adventprofmm_thn_it.ufo
<glyph name="exclam" format="1">
  <advance width="79"/>
  <unicode hex="0021"/>
  <outline>
    <contour>
      <point x="145" y="690" type="curve" smooth="yes"/>
      <point x="54" y="120" type="line"/>
      <point x="69" y="120" type="line"/>
      <point x="177" y="690" type="line" smooth="yes"/>
      <point x="179" y="702"/>
      <point x="176" y="708"/>
      <point x="166" y="708" type="curve" smooth="yes"/>
      <point x="157" y="708"/>
      <point x="147" y="702"/>
    </contour>
    <contour>
      <point x="60" y="18" type="curve" smooth="yes"/>
      <point x="61" y="26"/>
      <point x="55" y="34"/>
      <point x="46" y="34" type="curve" smooth="yes"/>
      <point x="36" y="34"/>
      <point x="27" y="26"/>
      <point x="26" y="18" type="curve" smooth="yes"/>
      <point x="24" y="8"/>
      <point x="31" y="0"/>
      <point x="41" y="0" type="curve" smooth="yes"/>
      <point x="50" y="0"/>
      <point x="58" y="8"/>
    </contour>
  </outline>
</glyph>
<glyph name="quotedbl" format="1">
  <advance width="200"/>
  <unicode hex="0022"/>
  <outline>
    <contour>
      <point x="280" y="721" type="curve" smooth="yes"/>
      <point x="261" y="587" type="line"/>
      <point x="278" y="587" type="line"/>
      <point x="309" y="721" type="line" smooth="yes"/>
      <point x="312" y="741"/>
      <point x="283" y="741"/>
    </contour>
    <contour>
      <point x="145" y="721" type="curve" smooth="yes"/>
      <point x="126" y="587" type="line"/>
      <point x="143" y="587" type="line"/>
      <point x="173" y="721" type="line" smooth="yes"/>
      <point x="176" y="741"/>
      <point x="148" y="741"/>
    </contour>
  </outline>
</glyph>
<glyph name="numbersign" format="1">
  <advance width="584"/>
  <unicode hex="0023"/>
  <outline>
    <contour>
      <point x="637" y="414" type="line"/>
      <point x="640" y="431" type="line"/>
      <point x="497" y="431" type="line"/>
      <point x="608" y="698" type="line"/>
      <point x="589" y="698" type="line"/>
      <point x="479" y="431" type="line"/>
      <point x="290" y="431" type="line"/>
      <point x="399" y="698" type="line"/>
      <point x="380" y="698" type="line"/>
      <point x="271" y="431" type="line"/>
      <point x="93" y="431" type="line"/>
      <point x="90" y="414" type="line"/>
      <point x="262" y="414" type="line"/>
      <point x="193" y="243" type="line"/>
      <point x="60" y="243" type="line"/>
      <point x="57" y="226" type="line"/>
      <point x="185" y="226" type="line"/>
      <point x="94" y="0" type="line"/>
      <point x="112" y="0" type="line"/>
      <point x="204" y="226" type="line"/>
      <point x="395" y="226" type="line"/>
      <point x="304" y="0" type="line"/>
      <point x="322" y="0" type="line"/>
      <point x="414" y="226" type="line"/>
      <point x="604" y="226" type="line"/>
      <point x="607" y="243" type="line"/>
      <point x="420" y="243" type="line"/>
      <point x="491" y="414" type="line"/>
    </contour>
    <contour>
      <point x="281" y="414" type="line"/>
      <point x="471" y="414" type="line"/>
      <point x="402" y="243" type="line"/>
      <point x="211" y="243" type="line"/>
    </contour>
  </outline>
</glyph>
<glyph name="dollar" format="1">
  <advance width="505"/>
  <unicode hex="0024"/>
  <outline>
    <contour>
      <point x="533" y="651" type="curve"/>
      <point x="543" y="669" type="line"/>
      <point x="502" y="694"/>
      <point x="446" y="707"/>
      <point x="391" y="707" type="curve" smooth="yes"/>
      <point x="336" y="707"/>
      <point x="281" y="695"/>
      <point x="237" y="669" type="curve" smooth="yes"/>
      <point x="192" y="642"/>
      <point x="158" y="602"/>
      <point x="144" y="547" type="curve" smooth="yes"/>
      <point x="124" y="459"/>
      <point x="193" y="416"/>
      <point x="275" y="381" type="curve" smooth="yes"/>
      <point x="308" y="365"/>
      <point x="344" y="352"/>
      <point x="376" y="338" type="curve" smooth="yes"/>
      <point x="450" y="304"/>
      <point x="510" y="262"/>
      <point x="496" y="178" type="curve" smooth="yes"/>
      <point x="487" y="124"/>
      <point x="461" y="85"/>
      <point x="425" y="57" type="curve" smooth="yes"/>
      <point x="377" y="21"/>
      <point x="307" y="7"/>
      <point x="264" y="7" type="curve" smooth="yes"/>
      <point x="200" y="7"/>
      <point x="141" y="24"/>
      <point x="113" y="47" type="curve" smooth="yes"/>
      <point x="62" y="87"/>
      <point x="55" y="142"/>
      <point x="55" y="142" type="curve"/>
      <point x="39" y="132" type="line"/>
      <point x="39" y="132"/>
      <point x="47" y="75"/>
      <point x="100" y="32" type="curve" smooth="yes"/>
      <point x="131" y="7"/>
      <point x="192" y="-13"/>
      <point x="260" y="-13" type="curve" smooth="yes"/>
      <point x="321" y="-13"/>
      <point x="388" y="7"/>
      <point x="436" y="43" type="curve" smooth="yes"/>
      <point x="479" y="76"/>
      <point x="508" y="121"/>
      <point x="517" y="177" type="curve" smooth="yes"/>
      <point x="533" y="268"/>
      <point x="466" y="317"/>
      <point x="386" y="355" type="curve" smooth="yes"/>
      <point x="353" y="371"/>
      <point x="318" y="384"/>
      <point x="287" y="398" type="curve" smooth="yes"/>
      <point x="178" y="443"/>
      <point x="152" y="483"/>
      <point x="162" y="542" type="curve" smooth="yes"/>
      <point x="171" y="593"/>
      <point x="210" y="637"/>
      <point x="250" y="658" type="curve" smooth="yes"/>
      <point x="296" y="681"/>
      <point x="344" y="691"/>
      <point x="389" y="690" type="curve" smooth="yes"/>
      <point x="448" y="690"/>
      <point x="500" y="673"/>
    </contour>
    <contour>
      <point x="416" y="815" type="line"/>
      <point x="397" y="815" type="line"/>
      <point x="234" y="-113" type="line"/>
      <point x="253" y="-113" type="line"/>
    </contour>
  </outline>
</glyph>
<glyph name="percent" format="1">
  <advance width="684"/>
  <unicode hex="0025"/>
  <outline>
    <contour>
      <point x="742" y="698" type="line"/>
      <point x="716" y="698" type="line"/>
      <point x="56" y="0" type="line"/>
      <point x="82" y="0" type="line"/>
    </contour>
    <contour>
      <point x="286" y="712" type="curve" smooth="yes"/>
      <point x="205" y="712"/>
      <point x="129" y="647"/>
      <point x="114" y="566" type="curve" smooth="yes"/>
      <point x="100" y="486"/>
      <point x="154" y="421"/>
      <point x="235" y="421" type="curve" smooth="yes"/>
      <point x="315" y="421"/>
      <point x="391" y="486"/>
      <point x="405" y="566" type="curve" smooth="yes"/>
      <point x="420" y="647"/>
      <point x="366" y="712"/>
    </contour>
    <contour>
      <point x="283" y="692" type="curve" smooth="yes"/>
      <point x="352" y="692"/>
      <point x="398" y="636"/>
      <point x="385" y="566" type="curve" smooth="yes"/>
      <point x="373" y="497"/>
      <point x="307" y="441"/>
      <point x="238" y="441" type="curve" smooth="yes"/>
      <point x="168" y="441"/>
      <point x="122" y="497"/>
      <point x="134" y="566" type="curve" smooth="yes"/>
      <point x="147" y="636"/>
      <point x="213" y="692"/>
    </contour>
    <contour>
      <point x="568" y="276" type="curve" smooth="yes"/>
      <point x="489" y="276"/>
      <point x="413" y="211"/>
      <point x="399" y="131" type="curve" smooth="yes"/>
      <point x="384" y="51"/>
      <point x="438" y="-14"/>
      <point x="517" y="-14" type="curve" smooth="yes"/>
      <point x="598" y="-14"/>
      <point x="673" y="51"/>
      <point x="688" y="131" type="curve" smooth="yes"/>
      <point x="702" y="211"/>
      <point x="649" y="276"/>
    </contour>
    <contour>
      <point x="565" y="256" type="curve" smooth="yes"/>
      <point x="635" y="256"/>
      <point x="681" y="200"/>
      <point x="669" y="131" type="curve" smooth="yes"/>
      <point x="656" y="62"/>
      <point x="591" y="7"/>
      <point x="521" y="7" type="curve" smooth="yes"/>
      <point x="453" y="7"/>
      <point x="406" y="62"/>
      <point x="419" y="131" type="curve" smooth="yes"/>
      <point x="431" y="200"/>
      <point x="497" y="256"/>
    </contour>
  </outline>
</glyph>
<glyph name="ampersand" format="1">
  <advance width="504"/>
  <unicode hex="0026"/>
  <outline>
    <contour>
      <point x="501" y="681" type="curve"/>
      <point x="514" y="702" type="line"/>
      <point x="514" y="702"/>
      <point x="403" y="702"/>
      <point x="345" y="702" type="curve" smooth="yes"/>
      <point x="252" y="702"/>
      <point x="189" y="639"/>
      <point x="177" y="553" type="curve" smooth="yes"/>
      <point x="169" y="497"/>
      <point x="194" y="436"/>
      <point x="261" y="403" type="curve"/>
      <point x="257" y="403"/>
      <point x="248" y="403"/>
      <point x="243" y="403" type="curve" smooth="yes"/>
      <point x="108" y="403"/>
      <point x="74" y="318"/>
      <point x="62" y="254" type="curve"/>
      <point x="62" y="254"/>
      <point x="46" y="161"/>
      <point x="46" y="161" type="curve"/>
      <point x="18" y="4"/>
      <point x="137" y="-9"/>
      <point x="211" y="-4" type="curve" smooth="yes"/>
      <point x="274" y="0"/>
      <point x="352" y="36"/>
      <point x="389" y="108" type="curve"/>
      <point x="384" y="46"/>
      <point x="411" y="10"/>
      <point x="473" y="-9" type="curve"/>
      <point x="481" y="9" type="line"/>
      <point x="419" y="31"/>
      <point x="397" y="63"/>
      <point x="409" y="136" type="curve" smooth="yes"/>
      <point x="453" y="382" type="line"/>
      <point x="543" y="382" type="line"/>
      <point x="556" y="403" type="line"/>
      <point x="457" y="403" type="line"/>
      <point x="475" y="505" type="line"/>
      <point x="459" y="505" type="line"/>
      <point x="441" y="403" type="line"/>
      <point x="392" y="403"/>
      <point x="343" y="403"/>
      <point x="334" y="403" type="curve" smooth="yes"/>
      <point x="278" y="403"/>
      <point x="183" y="459"/>
      <point x="200" y="554" type="curve" smooth="yes"/>
      <point x="210" y="628"/>
      <point x="267" y="681"/>
      <point x="346" y="681" type="curve" smooth="yes"/>
      <point x="386" y="681"/>
      <point x="501" y="681"/>
    </contour>
    <contour>
      <point x="437" y="382" type="curve"/>
      <point x="400" y="173" type="line" smooth="yes"/>
      <point x="386" y="91"/>
      <point x="311" y="20"/>
      <point x="214" y="13" type="curve" smooth="yes"/>
      <point x="106" y="5"/>
      <point x="45" y="47"/>
      <point x="65" y="159" type="curve" smooth="yes"/>
      <point x="66" y="165"/>
      <point x="80" y="248"/>
      <point x="81" y="251" type="curve" smooth="yes"/>
      <point x="94" y="326"/>
      <point x="134" y="382"/>
      <point x="237" y="382" type="curve" smooth="yes"/>
      <point x="255" y="382"/>
      <point x="350" y="382"/>
    </contour>
  </outline>
</glyph>
<glyph name="quotesingle" format="1">
  <advance width="66"/>
  <unicode hex="0027"/>
  <outline>
    <contour>
      <point x="145" y="722" type="curve" smooth="yes"/>
      <point x="127" y="587" type="line"/>
      <point x="143" y="587" type="line"/>
      <point x="174" y="722" type="line"/>
      <point x="177" y="741"/>
      <point x="148" y="741"/>
    </contour>
  </outline>
</glyph>
<glyph name="parenleft" format="1">
  <advance width="150"/>
  <unicode hex="0028"/>
  <outline>
    <contour>
      <point x="274" y="798" type="curve"/>
      <point x="267" y="813" type="line"/>
      <point x="186" y="766"/>
      <point x="149" y="723"/>
      <point x="132" y="625" type="curve" smooth="yes"/>
      <point x="34" y="69" type="line" smooth="yes"/>
      <point x="16" y="-29"/>
      <point x="38" y="-72"/>
      <point x="103" y="-119" type="curve"/>
      <point x="117" y="-101" type="line"/>
      <point x="91" y="-80"/>
      <point x="32" y="-50"/>
      <point x="52" y="65" type="curve" smooth="yes"/>
      <point x="67" y="153"/>
      <point x="96" y="316"/>
      <point x="152" y="635" type="curve" smooth="yes"/>
      <point x="169" y="728"/>
      <point x="211" y="759"/>
    </contour>
  </outline>
</glyph>
<glyph name="parenright" format="1">
  <advance width="150"/>
  <unicode hex="0029"/>
  <outline>
    <contour>
      <point x="155" y="798" type="curve"/>
      <point x="168" y="813" type="line"/>
      <point x="234" y="766"/>
      <point x="255" y="723"/>
      <point x="238" y="625" type="curve" smooth="yes"/>
      <point x="140" y="69" type="line" smooth="yes"/>
      <point x="122" y="-29"/>
      <point x="86" y="-72"/>
      <point x="4" y="-119" type="curve"/>
      <point x="-3" y="-101" type="line"/>
      <point x="29" y="-80"/>
      <point x="100" y="-50"/>
      <point x="120" y="65" type="curve" smooth="yes"/>
      <point x="135" y="153"/>
      <point x="164" y="316"/>
      <point x="220" y="635" type="curve" smooth="yes"/>
      <point x="237" y="728"/>
      <point x="204" y="759"/>
    </contour>
  </outline>
</glyph>
<glyph name="asterisk" format="1">
  <advance width="321"/>
  <unicode hex="002A"/>
  <outline>
    <contour>
      <point x="239" y="546" type="line"/>
      <point x="141" y="440" type="line"/>
      <point x="157" y="427" type="line"/>
      <point x="253" y="536" type="line"/>
      <point x="316" y="427" type="line"/>
      <point x="334" y="440" type="line"/>
      <point x="271" y="546" type="line"/>
      <point x="409" y="592" type="line"/>
      <point x="405" y="612" type="line"/>
      <point x="266" y="561" type="line"/>
      <point x="292" y="698" type="line"/>
      <point x="270" y="698" type="line"/>
      <point x="246" y="561" type="line"/>
      <point x="129" y="612" type="line"/>
      <point x="119" y="592" type="line"/>
    </contour>
  </outline>
</glyph>
<glyph name="plus" format="1">
  <advance width="355"/>
  <unicode hex="002B"/>
  <outline>
    <contour>
      <point x="234" y="378" type="line"/>
      <point x="84" y="378" type="line"/>
      <point x="81" y="361" type="line"/>
      <point x="231" y="361" type="line"/>
      <point x="204" y="209" type="line"/>
      <point x="223" y="209" type="line"/>
      <point x="250" y="361" type="line"/>
      <point x="400" y="361" type="line"/>
      <point x="403" y="378" type="line"/>
      <point x="253" y="378" type="line"/>
      <point x="280" y="528" type="line"/>
      <point x="261" y="528" type="line"/>
    </contour>
  </outline>
</glyph>
<glyph name="comma" format="1">
  <advance width="82"/>
  <unicode hex="002C"/>
  <outline>
    <contour>
      <point x="5" y="-57" type="curve"/>
      <point x="13" y="-64" type="line"/>
      <point x="13" y="-64"/>
      <point x="56" y="-40"/>
      <point x="66" y="13" type="curve" smooth="yes"/>
      <point x="68" y="23"/>
      <point x="62" y="30"/>
      <point x="52" y="30" type="curve" smooth="yes"/>
      <point x="43" y="30"/>
      <point x="34" y="22"/>
      <point x="33" y="13" type="curve" smooth="yes"/>
      <point x="31" y="5"/>
      <point x="35" y="0"/>
      <point x="41" y="-3" type="curve"/>
      <point x="37" y="-18"/>
      <point x="28" y="-39"/>
    </contour>
  </outline>
</glyph>
<glyph name="hyphen" format="1">
  <advance width="360"/>
  <unicode hex="002D"/>
  <outline>
    <contour>
      <point x="411" y="413" type="line"/>
      <point x="92" y="413" type="line"/>
      <point x="89" y="393" type="line"/>
      <point x="408" y="393" type="line"/>
    </contour>
  </outline>
</glyph>
<glyph name="zero" format="1">
  <advance width="449"/>
  <unicode hex="0030"/>
  <outline>
    <contour>
      <point x="103" y="506" type="curve" smooth="yes"/>
      <point x="46" y="185" type="line" smooth="yes"/>
      <point x="23" y="56"/>
      <point x="105" y="-11"/>
      <point x="222" y="-11" type="curve" smooth="yes"/>
      <point x="347" y="-11"/>
      <point x="443" y="63"/>
      <point x="464" y="185" type="curve" smooth="yes"/>
      <point x="521" y="505" type="line" smooth="yes"/>
      <point x="543" y="635"/>
      <point x="481" y="714"/>
      <point x="351" y="714" type="curve" smooth="yes"/>
      <point x="219" y="714"/>
      <point x="127" y="642"/>
    </contour>
    <contour>
      <point x="65" y="184" type="curve" smooth="yes"/>
      <point x="122" y="506" type="line" smooth="yes"/>
      <point x="142" y="621"/>
      <point x="219" y="693"/>
      <point x="345" y="693" type="curve" smooth="yes"/>
      <point x="472" y="693"/>
      <point x="524" y="624"/>
      <point x="503" y="508" type="curve" smooth="yes"/>
      <point x="446" y="184" type="line" smooth="yes"/>
      <point x="425" y="66"/>
      <point x="332" y="8"/>
      <point x="225" y="8" type="curve" smooth="yes"/>
      <point x="118" y="8"/>
      <point x="46" y="77"/>
    </contour>
  </outline>
</glyph>
<glyph name="one" format="1">
  <advance width="163"/>
  <unicode hex="0031"/>
  <outline>
    <contour>
      <point x="93" y="606" type="curve"/>
      <point x="96" y="590" type="line"/>
      <point x="148" y="602"/>
      <point x="197" y="630"/>
      <point x="237" y="664" type="curve"/>
      <point x="120" y="0" type="line"/>
      <point x="140" y="0" type="line"/>
      <point x="263" y="698" type="line"/>
      <point x="243" y="698" type="line"/>
      <point x="211" y="658"/>
      <point x="147" y="620"/>
    </contour>
  </outline>
</glyph>
<glyph name="two" format="1">
  <advance width="375"/>
  <unicode hex="0032"/>
  <outline>
    <contour>
      <point x="125" y="588" type="curve"/>
      <point x="143" y="581" type="line"/>
      <point x="172" y="642"/>
      <point x="230" y="689"/>
      <point x="315" y="689" type="curve" smooth="yes"/>
      <point x="398" y="689"/>
      <point x="452" y="623"/>
      <point x="436" y="541" type="curve" smooth="yes"/>
      <point x="428" y="504"/>
      <point x="408" y="463"/>
      <point x="373" y="422" type="curve" smooth="yes"/>
      <point x="251" y="286"/>
      <point x="132" y="153"/>
      <point x="13" y="20" type="curve"/>
      <point x="10" y="0" type="line"/>
      <point x="359" y="0" type="line"/>
      <point x="362" y="20" type="line"/>
      <point x="35" y="20" type="line"/>
      <point x="209" y="215"/>
      <point x="298" y="313"/>
      <point x="385" y="411" type="curve" smooth="yes"/>
      <point x="424" y="458"/>
      <point x="448" y="503"/>
      <point x="457" y="546" type="curve" smooth="yes"/>
      <point x="475" y="638"/>
      <point x="407" y="708"/>
      <point x="324" y="708" type="curve" smooth="yes"/>
      <point x="233" y="708"/>
      <point x="168" y="668"/>
    </contour>
  </outline>
</glyph>
<glyph name="three" format="1">
  <advance width="407"/>
  <unicode hex="0033"/>
  <outline>
    <contour>
      <point x="255" y="413" type="curve" smooth="yes"/>
      <point x="212" y="413" type="line"/>
      <point x="459" y="678" type="line"/>
      <point x="463" y="698" type="line"/>
      <point x="174" y="698" type="line"/>
      <point x="170" y="678" type="line"/>
      <point x="435" y="678" type="line"/>
      <point x="172" y="393" type="line"/>
      <point x="258" y="393" type="line" smooth="yes"/>
      <point x="304" y="393"/>
      <point x="343" y="373"/>
      <point x="377" y="338" type="curve" smooth="yes"/>
      <point x="409" y="304"/>
      <point x="422" y="261"/>
      <point x="412" y="207" type="curve" smooth="yes"/>
      <point x="403" y="154"/>
      <point x="377" y="107"/>
      <point x="334" y="67" type="curve" smooth="yes"/>
      <point x="292" y="26"/>
      <point x="241" y="7"/>
      <point x="178" y="7" type="curve" smooth="yes"/>
      <point x="115" y="7"/>
      <point x="69" y="36"/>
      <point x="40" y="94" type="curve"/>
      <point x="21" y="82" type="line"/>
      <point x="49" y="24"/>
      <point x="108" y="-12"/>
      <point x="180" y="-12" type="curve" smooth="yes"/>
      <point x="239" y="-12"/>
      <point x="294" y="9"/>
      <point x="341" y="50" type="curve" smooth="yes"/>
      <point x="389" y="90"/>
      <point x="419" y="141"/>
      <point x="430" y="199" type="curve" smooth="yes"/>
      <point x="440" y="258"/>
      <point x="428" y="309"/>
      <point x="394" y="350" type="curve" smooth="yes"/>
      <point x="361" y="391"/>
      <point x="314" y="413"/>
    </contour>
  </outline>
</glyph>
<glyph name="four" format="1">
  <advance width="429"/>
  <unicode hex="0034"/>
  <outline>
    <contour>
      <point x="415" y="393" type="line"/>
      <point x="483" y="393" type="line"/>
      <point x="491" y="413" type="line"/>
      <point x="418" y="413" type="line"/>
      <point x="469" y="698" type="line"/>
      <point x="450" y="698" type="line"/>
      <point x="399" y="413" type="line"/>
      <point x="103" y="413" type="line"/>
      <point x="312" y="698" type="line"/>
      <point x="292" y="698" type="line"/>
      <point x="67" y="393" type="line"/>
      <point x="396" y="393" type="line"/>
      <point x="328" y="0" type="line"/>
      <point x="346" y="0" type="line"/>
    </contour>
  </outline>
</glyph>
<glyph name="five" format="1">
  <advance width="406"/>
  <unicode hex="0035"/>
  <outline>
    <contour>
      <point x="135" y="411" type="curve"/>
      <point x="210" y="678" type="line"/>
      <point x="458" y="678" type="line"/>
      <point x="462" y="698" type="line"/>
      <point x="197" y="698" type="line"/>
      <point x="111" y="393" type="line"/>
      <point x="227" y="393" type="line" smooth="yes"/>
      <point x="385" y="393"/>
      <point x="427" y="297"/>
      <point x="410" y="199" type="curve" smooth="yes"/>
      <point x="388" y="76"/>
      <point x="279" y="7"/>
      <point x="184" y="7" type="curve" smooth="yes"/>
      <point x="96" y="7"/>
      <point x="29" y="59"/>
      <point x="29" y="59" type="curve"/>
      <point x="18" y="42" type="line"/>
      <point x="18" y="42"/>
      <point x="86" y="-12"/>
      <point x="181" y="-12" type="curve" smooth="yes"/>
      <point x="295" y="-12"/>
      <point x="407" y="74"/>
      <point x="428" y="198" type="curve" smooth="yes"/>
      <point x="450" y="318"/>
      <point x="392" y="413"/>
      <point x="229" y="413" type="curve" smooth="yes"/>
      <point x="219" y="413"/>
      <point x="146" y="411"/>
    </contour>
  </outline>
</glyph>
<glyph name="six" format="1">
  <advance width="447"/>
  <unicode hex="0036"/>
  <outline>
    <contour>
      <point x="371" y="679" type="curve" smooth="yes"/>
      <point x="409" y="679" type="line"/>
      <point x="412" y="697" type="line"/>
      <point x="378" y="697" type="line" smooth="yes"/>
      <point x="289" y="697"/>
      <point x="211" y="662"/>
      <point x="167" y="614" type="curve" smooth="yes"/>
      <point x="125" y="568"/>
      <point x="103" y="517"/>
      <point x="93" y="462" type="curve" smooth="yes"/>
      <point x="47" y="202" type="line" smooth="yes"/>
      <point x="37" y="143"/>
      <point x="49" y="92"/>
      <point x="84" y="52" type="curve" smooth="yes"/>
      <point x="117" y="11"/>
      <point x="164" y="-10"/>
      <point x="222" y="-10" type="curve" smooth="yes"/>
      <point x="282" y="-10"/>
      <point x="334" y="11"/>
      <point x="383" y="53" type="curve" smooth="yes"/>
      <point x="432" y="94"/>
      <point x="462" y="143"/>
      <point x="472" y="202" type="curve" smooth="yes"/>
      <point x="483" y="261"/>
      <point x="470" y="311"/>
      <point x="436" y="352" type="curve" smooth="yes"/>
      <point x="402" y="393"/>
      <point x="355" y="414"/>
      <point x="295" y="414" type="curve" smooth="yes"/>
      <point x="219" y="414"/>
      <point x="137" y="377"/>
      <point x="82" y="288" type="curve"/>
      <point x="111" y="450" type="line" smooth="yes"/>
      <point x="127" y="540"/>
      <point x="166" y="598"/>
      <point x="217" y="631" type="curve" smooth="yes"/>
      <point x="263" y="662"/>
      <point x="315" y="679"/>
    </contour>
    <contour>
      <point x="293" y="395" type="curve" smooth="yes"/>
      <point x="400" y="395"/>
      <point x="471" y="308"/>
      <point x="452" y="201" type="curve" smooth="yes"/>
      <point x="433" y="95"/>
      <point x="332" y="9"/>
      <point x="225" y="9" type="curve" smooth="yes"/>
      <point x="119" y="9"/>
      <point x="48" y="95"/>
      <point x="67" y="201" type="curve" smooth="yes"/>
      <point x="86" y="308"/>
      <point x="187" y="395"/>
    </contour>
  </outline>
</glyph>
<glyph name="seven" format="1">
  <advance width="392"/>
  <unicode hex="0037"/>
  <outline>
    <contour>
      <point x="521" y="698" type="line"/>
      <point x="130" y="698" type="line"/>
      <point x="126" y="678" type="line"/>
      <point x="494" y="678" type="line"/>
      <point x="18" y="0" type="line"/>
      <point x="38" y="0" type="line"/>
      <point x="517" y="678" type="line"/>
    </contour>
  </outline>
</glyph>
<glyph name="eight" format="1">
  <advance width="435"/>
  <unicode hex="0038"/>
  <outline>
    <contour>
      <point x="341" y="707" type="curve" smooth="yes"/>
      <point x="292" y="707"/>
      <point x="250" y="691"/>
      <point x="213" y="658" type="curve" smooth="yes"/>
      <point x="176" y="625"/>
      <point x="152" y="584"/>
      <point x="144" y="536" type="curve" smooth="yes"/>
      <point x="139" y="505"/>
      <point x="144" y="474"/>
      <point x="158" y="444" type="curve" smooth="yes"/>
      <point x="174" y="416"/>
      <point x="196" y="396"/>
      <point x="225" y="385" type="curve"/>
      <point x="184" y="373"/>
      <point x="139" y="348"/>
      <point x="105" y="311" type="curve" smooth="yes"/>
      <point x="71" y="275"/>
      <point x="50" y="234"/>
      <point x="42" y="191" type="curve" smooth="yes"/>
      <point x="32" y="133"/>
      <point x="43" y="85"/>
      <point x="76" y="46" type="curve" smooth="yes"/>
      <point x="109" y="7"/>
      <point x="154" y="-12"/>
      <point x="214" y="-12" type="curve" smooth="yes"/>
      <point x="272" y="-12"/>
      <point x="325" y="7"/>
      <point x="371" y="46" type="curve" smooth="yes"/>
      <point x="416" y="85"/>
      <point x="445" y="133"/>
      <point x="455" y="191" type="curve" smooth="yes"/>
      <point x="462" y="232"/>
      <point x="455" y="272"/>
      <point x="435" y="310" type="curve" smooth="yes"/>
      <point x="414" y="348"/>
      <point x="382" y="373"/>
      <point x="339" y="385" type="curve"/>
      <point x="374" y="396"/>
      <point x="405" y="416"/>
      <point x="428" y="440" type="curve" smooth="yes"/>
      <point x="455" y="469"/>
      <point x="472" y="502"/>
      <point x="478" y="536" type="curve" smooth="yes"/>
      <point x="486" y="584"/>
      <point x="479" y="625"/>
      <point x="453" y="658" type="curve" smooth="yes"/>
      <point x="427" y="691"/>
      <point x="389" y="707"/>
    </contour>
    <contour>
      <point x="285" y="391" type="curve" smooth="yes"/>
      <point x="237" y="391"/>
      <point x="200" y="414"/>
      <point x="178" y="448" type="curve" smooth="yes"/>
      <point x="163" y="473"/>
      <point x="157" y="505"/>
      <point x="163" y="539" type="curve" smooth="yes"/>
      <point x="177" y="621"/>
      <point x="256" y="687"/>
      <point x="338" y="687" type="curve" smooth="yes"/>
      <point x="420" y="687"/>
      <point x="474" y="621"/>
      <point x="460" y="539" type="curve" smooth="yes"/>
      <point x="454" y="506"/>
      <point x="438" y="476"/>
      <point x="416" y="451" type="curve" smooth="yes"/>
      <point x="383" y="415"/>
      <point x="334" y="391"/>
    </contour>
    <contour>
      <point x="216" y="5" type="curve" smooth="yes"/>
      <point x="112" y="5"/>
      <point x="44" y="88"/>
      <point x="62" y="189" type="curve" smooth="yes"/>
      <point x="70" y="233"/>
      <point x="92" y="274"/>
      <point x="123" y="305" type="curve" smooth="yes"/>
      <point x="166" y="346"/>
      <point x="222" y="373"/>
      <point x="281" y="373" type="curve" smooth="yes"/>
      <point x="342" y="373"/>
      <point x="391" y="344"/>
      <point x="417" y="299" type="curve" smooth="yes"/>
      <point x="436" y="268"/>
      <point x="443" y="231"/>
      <point x="436" y="189" type="curve" smooth="yes"/>
      <point x="418" y="88"/>
      <point x="319" y="5"/>
    </contour>
  </outline>
</glyph>
<glyph name="nine" format="1">
  <advance width="443"/>
  <unicode hex="0039"/>
  <outline>
    <contour>
      <point x="340" y="706" type="curve" smooth="yes"/>
      <point x="280" y="706"/>
      <point x="227" y="685"/>
      <point x="179" y="643" type="curve" smooth="yes"/>
      <point x="131" y="603"/>
      <point x="101" y="553"/>
      <point x="91" y="494" type="curve" smooth="yes"/>
      <point x="80" y="436"/>
      <point x="92" y="385"/>
      <point x="126" y="344" type="curve" smooth="yes"/>
      <point x="160" y="304"/>
      <point x="206" y="283"/>
      <point x="266" y="283" type="curve" smooth="yes"/>
      <point x="343" y="283"/>
      <point x="425" y="319"/>
      <point x="480" y="408" type="curve"/>
      <point x="452" y="246" type="line" smooth="yes"/>
      <point x="437" y="162"/>
      <point x="397" y="98"/>
      <point x="346" y="65" type="curve" smooth="yes"/>
      <point x="299" y="34"/>
      <point x="247" y="20"/>
      <point x="191" y="20" type="curve" smooth="yes"/>
      <point x="153" y="20" type="line"/>
      <point x="149" y="-1" type="line"/>
      <point x="184" y="-1" type="line" smooth="yes"/>
      <point x="272" y="-1"/>
      <point x="347" y="33"/>
      <point x="391" y="82" type="curve" smooth="yes"/>
      <point x="433" y="129"/>
      <point x="459" y="180"/>
      <point x="469" y="234" type="curve" smooth="yes"/>
      <point x="515" y="494" type="line" smooth="yes"/>
      <point x="525" y="553"/>
      <point x="513" y="604"/>
      <point x="479" y="645" type="curve" smooth="yes"/>
      <point x="446" y="685"/>
      <point x="398" y="706"/>
    </contour>
    <contour>
      <point x="337" y="687" type="curve" smooth="yes"/>
      <point x="443" y="687"/>
      <point x="515" y="602"/>
      <point x="496" y="495" type="curve" smooth="yes"/>
      <point x="477" y="388"/>
      <point x="375" y="301"/>
      <point x="269" y="301" type="curve" smooth="yes"/>
      <point x="162" y="301"/>
      <point x="91" y="388"/>
      <point x="110" y="495" type="curve" smooth="yes"/>
      <point x="129" y="602"/>
      <point x="230" y="687"/>
    </contour>
  </outline>
</glyph>
<glyph name="colon" format="1">
  <advance width="77"/>
  <unicode hex="003A"/>
  <outline>
    <contour>
      <point x="80" y="143" type="curve" smooth="yes"/>
      <point x="81" y="153"/>
      <point x="75" y="159"/>
      <point x="66" y="159" type="curve" smooth="yes"/>
      <point x="57" y="159"/>
      <point x="47" y="153"/>
      <point x="46" y="143" type="curve" smooth="yes"/>
      <point x="44" y="134"/>
      <point x="51" y="127"/>
      <point x="60" y="127" type="curve" smooth="yes"/>
      <point x="69" y="127"/>
      <point x="78" y="134"/>
    </contour>
    <contour>
      <point x="122" y="384" type="curve" smooth="yes"/>
      <point x="124" y="393"/>
      <point x="117" y="400"/>
      <point x="108" y="400" type="curve" smooth="yes"/>
      <point x="99" y="400"/>
      <point x="90" y="393"/>
      <point x="88" y="384" type="curve" smooth="yes"/>
      <point x="86" y="374"/>
      <point x="93" y="367"/>
      <point x="102" y="367" type="curve" smooth="yes"/>
      <point x="111" y="367"/>
      <point x="120" y="374"/>
    </contour>
  </outline>
</glyph>
<glyph name="semicolon" format="1">
  <advance width="88"/>
  <unicode hex="003B"/>
  <outline>
    <contour>
      <point x="29" y="68" type="curve"/>
      <point x="37" y="63" type="line"/>
      <point x="37" y="63"/>
      <point x="80" y="87"/>
      <point x="89" y="140" type="curve" smooth="yes"/>
      <point x="91" y="150"/>
      <point x="85" y="156"/>
      <point x="75" y="156" type="curve" smooth="yes"/>
      <point x="67" y="156"/>
      <point x="58" y="148"/>
      <point x="56" y="140" type="curve" smooth="yes"/>
      <point x="55" y="132"/>
      <point x="58" y="125"/>
      <point x="64" y="123" type="curve"/>
      <point x="61" y="109"/>
      <point x="52" y="87"/>
    </contour>
    <contour>
      <point x="133" y="384" type="curve" smooth="yes"/>
      <point x="135" y="393"/>
      <point x="128" y="400"/>
      <point x="120" y="400" type="curve" smooth="yes"/>
      <point x="110" y="400"/>
      <point x="101" y="393"/>
      <point x="99" y="384" type="curve" smooth="yes"/>
      <point x="97" y="374"/>
      <point x="104" y="367"/>
      <point x="114" y="367" type="curve" smooth="yes"/>
      <point x="122" y="367"/>
      <point x="131" y="374"/>
    </contour>
  </outline>
</glyph>
<glyph name="less" format="1">
  <advance width="327"/>
  <unicode hex="003C"/>
  <outline>
    <contour>
      <point x="325" y="94" type="line"/>
      <point x="104" y="356" type="line"/>
      <point x="418" y="623" type="line"/>
      <point x="406" y="635" type="line"/>
      <point x="81" y="358" type="line"/>
      <point x="308" y="79" type="line"/>
    </contour>
  </outline>
</glyph>
<glyph name="equal" format="1">
  <advance width="362"/>
  <unicode hex="003D"/>
  <outline>
    <contour>
      <point x="412" y="411" type="line"/>
      <point x="93" y="411" type="line"/>
      <point x="90" y="393" type="line"/>
      <point x="409" y="393" type="line"/>
    </contour>
    <contour>
      <point x="394" y="307" type="line"/>
      <point x="75" y="307" type="line"/>
      <point x="71" y="288" type="line"/>
      <point x="390" y="288" type="line"/>
    </contour>
  </outline>
</glyph>
<glyph name="greater" format="1">
  <advance width="326"/>
  <unicode hex="003E"/>
  <outline>
    <contour>
      <point x="32" y="94" type="line"/>
      <point x="43" y="79" type="line"/>
      <point x="370" y="358" type="line"/>
      <point x="141" y="635" type="line"/>
      <point x="125" y="623" type="line"/>
      <point x="346" y="356" type="line"/>
    </contour>
  </outline>
</glyph>
<glyph name="question" format="1">
  <advance width="386"/>
  <unicode hex="003F"/>
  <outline>
    <contour>
      <point x="109" y="530" type="curve"/>
      <point x="128" y="530" type="line"/>
      <point x="147" y="639"/>
      <point x="237" y="689"/>
      <point x="314" y="689" type="curve" smooth="yes"/>
      <point x="409" y="689"/>
      <point x="459" y="616"/>
      <point x="445" y="535" type="curve" smooth="yes"/>
      <point x="435" y="482"/>
      <point x="410" y="446"/>
      <point x="357" y="393" type="curve" smooth="yes"/>
      <point x="272" y="310"/>
      <point x="223" y="293"/>
      <point x="204" y="187" type="curve" smooth="yes"/>
      <point x="192" y="119" type="line"/>
      <point x="210" y="119" type="line"/>
      <point x="210" y="119"/>
      <point x="219" y="168"/>
      <point x="224" y="193" type="curve" smooth="yes"/>
      <point x="237" y="271"/>
      <point x="265" y="288"/>
      <point x="360" y="373" type="curve" smooth="yes"/>
      <point x="411" y="419"/>
      <point x="450" y="463"/>
      <point x="463" y="536" type="curve" smooth="yes"/>
      <point x="482" y="646"/>
      <point x="404" y="705"/>
      <point x="317" y="707" type="curve" smooth="yes"/>
      <point x="229" y="708"/>
      <point x="130" y="652"/>
    </contour>
    <contour>
      <point x="187" y="30" type="curve" smooth="yes"/>
      <point x="177" y="30"/>
      <point x="167" y="22"/>
      <point x="166" y="13" type="curve" smooth="yes"/>
      <point x="164" y="3"/>
      <point x="171" y="-4"/>
      <point x="181" y="-4" type="curve" smooth="yes"/>
      <point x="189" y="-4"/>
      <point x="198" y="3"/>
      <point x="200" y="13" type="curve" smooth="yes"/>
      <point x="201" y="22"/>
      <point x="195" y="30"/>
    </contour>
  </outline>
</glyph>
<glyph name="at" format="1">
  <advance width="694"/>
  <unicode hex="0040"/>
  <outline>
    <contour>
      <point x="759" y="472" type="curve"/>
      <point x="752" y="484" type="line"/>
      <point x="709" y="457"/>
      <point x="703" y="437"/>
      <point x="691" y="371" type="curve" smooth="yes"/>
      <point x="675" y="282"/>
      <point x="664" y="218"/>
      <point x="655" y="168" type="curve" smooth="yes"/>
      <point x="632" y="35"/>
      <point x="463" y="-48"/>
      <point x="320" y="-48" type="curve" smooth="yes"/>
      <point x="126" y="-48"/>
      <point x="46" y="53"/>
      <point x="71" y="198" type="curve" smooth="yes"/>
      <point x="79" y="239"/>
      <point x="86" y="283"/>
      <point x="96" y="338" type="curve" smooth="yes"/>
      <point x="125" y="501"/>
      <point x="257" y="561"/>
      <point x="377" y="561" type="curve" smooth="yes"/>
      <point x="498" y="561"/>
      <point x="551" y="508"/>
      <point x="557" y="442" type="curve"/>
      <point x="557" y="442"/>
      <point x="387" y="442"/>
      <point x="371" y="442" type="curve" smooth="yes"/>
      <point x="292" y="442"/>
      <point x="212" y="408"/>
      <point x="191" y="288" type="curve" smooth="yes"/>
      <point x="180" y="222" type="line" smooth="yes"/>
      <point x="165" y="140"/>
      <point x="192" y="61"/>
      <point x="326" y="61" type="curve" smooth="yes"/>
      <point x="399" y="61"/>
      <point x="511" y="69"/>
      <point x="511" y="69" type="curve"/>
      <point x="511" y="69"/>
      <point x="569" y="397"/>
      <point x="573" y="424" type="curve"/>
      <point x="629" y="424" type="line"/>
      <point x="642" y="442" type="line"/>
      <point x="573" y="442" type="line"/>
      <point x="570" y="535"/>
      <point x="484" y="579"/>
      <point x="381" y="579" type="curve" smooth="yes"/>
      <point x="209" y="579"/>
      <point x="101" y="471"/>
      <point x="76" y="333" type="curve" smooth="yes"/>
      <point x="70" y="295"/>
      <point x="61" y="246"/>
      <point x="53" y="201" type="curve" smooth="yes"/>
      <point x="23" y="31"/>
      <point x="129" y="-67"/>
      <point x="312" y="-67" type="curve" smooth="yes"/>
      <point x="471" y="-67"/>
      <point x="645" y="22"/>
      <point x="671" y="170" type="curve" smooth="yes"/>
      <point x="710" y="386" type="line" smooth="yes"/>
      <point x="719" y="442"/>
      <point x="730" y="451"/>
    </contour>
    <contour>
      <point x="363" y="424" type="curve" smooth="yes"/>
      <point x="364" y="424"/>
      <point x="534" y="424"/>
      <point x="557" y="424" type="curve"/>
      <point x="498" y="87" type="line"/>
      <point x="498" y="87"/>
      <point x="398" y="79"/>
      <point x="328" y="79" type="curve" smooth="yes"/>
      <point x="223" y="79"/>
      <point x="179" y="130"/>
      <point x="197" y="227" type="curve" smooth="yes"/>
      <point x="207" y="285" type="line" smooth="yes"/>
      <point x="222" y="372"/>
      <point x="275" y="424"/>
    </contour>
  </outline>
</glyph>
<glyph name="B" format="1">
  <advance width="468"/>
  <unicode hex="0042"/>
  <outline>
    <contour>
      <point x="365" y="698" type="curve" smooth="yes"/>
      <point x="145" y="698" type="line"/>
      <point x="22" y="0" type="line"/>
      <point x="252" y="0" type="line" smooth="yes"/>
      <point x="328" y="0"/>
      <point x="389" y="26"/>
      <point x="426" y="69" type="curve" smooth="yes"/>
      <point x="459" y="109"/>
      <point x="481" y="155"/>
      <point x="490" y="208" type="curve" smooth="yes"/>
      <point x="507" y="304"/>
      <point x="478" y="367"/>
      <point x="400" y="399" type="curve"/>
      <point x="400" y="400" type="line" smooth="yes"/>
      <point x="400" y="402"/>
      <point x="400" y="402"/>
      <point x="402" y="403" type="curve"/>
      <point x="457" y="422"/>
      <point x="502" y="480"/>
      <point x="512" y="538" type="curve" smooth="yes"/>
      <point x="521" y="588"/>
      <point x="513" y="627"/>
      <point x="489" y="654" type="curve" smooth="yes"/>
      <point x="463" y="683"/>
      <point x="421" y="698"/>
    </contour>
    <contour>
      <point x="350" y="411" type="curve" smooth="yes"/>
      <point x="113" y="411" type="line"/>
      <point x="160" y="679" type="line"/>
      <point x="353" y="679" type="line" smooth="yes"/>
      <point x="467" y="679"/>
      <point x="509" y="624"/>
      <point x="494" y="541" type="curve" smooth="yes"/>
      <point x="487" y="501"/>
      <point x="468" y="468"/>
      <point x="438" y="444" type="curve" smooth="yes"/>
      <point x="409" y="422"/>
      <point x="380" y="411"/>
    </contour>
    <contour>
      <point x="253" y="19" type="curve" smooth="yes"/>
      <point x="44" y="19" type="line"/>
      <point x="110" y="393" type="line"/>
      <point x="322" y="393" type="line" smooth="yes"/>
      <point x="436" y="393"/>
      <point x="491" y="319"/>
      <point x="471" y="205" type="curve" smooth="yes"/>
      <point x="450" y="90"/>
      <point x="373" y="19"/>
    </contour>
  </outline>
</glyph>
<glyph name="C" format="1">
  <advance width="383"/>
  <unicode hex="0043"/>
  <outline>
    <contour>
      <point x="458" y="658" type="curve"/>
      <point x="469" y="675" type="line"/>
      <point x="431" y="697"/>
      <point x="386" y="708"/>
      <point x="332" y="708" type="curve" smooth="yes"/>
      <point x="290" y="708"/>
      <point x="253" y="700"/>
      <point x="221" y="683" type="curve" smooth="yes"/>
      <point x="157" y="647"/>
      <point x="120" y="603"/>
      <point x="102" y="503" type="curve" smooth="yes"/>
      <point x="46" y="183" type="line" smooth="yes"/>
      <point x="31" y="99"/>
      <point x="54" y="42"/>
      <point x="98" y="15" type="curve" smooth="yes"/>
      <point x="142" y="-10"/>
      <point x="191" y="-10"/>
      <point x="211" y="-10" type="curve" smooth="yes"/>
      <point x="262" y="-10"/>
      <point x="318" y="1"/>
      <point x="379" y="23" type="curve"/>
      <point x="376" y="41" type="line"/>
      <point x="313" y="18"/>
      <point x="259" y="7"/>
      <point x="220" y="7" type="curve" smooth="yes"/>
      <point x="181" y="7"/>
      <point x="138" y="12"/>
      <point x="111" y="32" type="curve" smooth="yes"/>
      <point x="74" y="58"/>
      <point x="50" y="106"/>
      <point x="65" y="185" type="curve" smooth="yes"/>
      <point x="123" y="512" type="line" smooth="yes"/>
      <point x="133" y="572"/>
      <point x="164" y="619"/>
      <point x="192" y="643" type="curve" smooth="yes"/>
      <point x="222" y="668"/>
      <point x="272" y="689"/>
      <point x="332" y="689" type="curve" smooth="yes"/>
      <point x="373" y="689"/>
      <point x="414" y="679"/>
    </contour>
  </outline>
</glyph>
<glyph name="F" format="1">
  <advance width="349"/>
  <unicode hex="0046"/>
  <outline>
    <contour>
      <point x="22" y="0" type="line"/>
      <point x="42" y="0" type="line"/>
      <point x="111" y="393" type="line"/>
      <point x="331" y="393" type="line"/>
      <point x="341" y="411" type="line"/>
      <point x="114" y="411" type="line"/>
      <point x="161" y="678" type="line"/>
      <point x="474" y="678" type="line"/>
      <point x="478" y="698" type="line"/>
      <point x="145" y="698" type="line"/>
    </contour>
  </outline>
</glyph>
<glyph name="G" format="1">
  <advance width="440"/>
  <unicode hex="0047"/>
  <outline>
    <contour>
      <point x="458" y="657" type="curve"/>
      <point x="468" y="674" type="line"/>
      <point x="429" y="696"/>
      <point x="382" y="707"/>
      <point x="332" y="707" type="curve" smooth="yes"/>
      <point x="291" y="707"/>
      <point x="254" y="698"/>
      <point x="221" y="682" type="curve" smooth="yes"/>
      <point x="158" y="647"/>
      <point x="117" y="586"/>
      <point x="102" y="502" type="curve" smooth="yes"/>
      <point x="47" y="188" type="line" smooth="yes"/>
      <point x="35" y="122"/>
      <point x="46" y="73"/>
      <point x="83" y="40" type="curve" smooth="yes"/>
      <point x="118" y="7"/>
      <point x="164" y="-10"/>
      <point x="224" y="-10" type="curve" smooth="yes"/>
      <point x="313" y="-10"/>
      <point x="379" y="23"/>
      <point x="421" y="88" type="curve"/>
      <point x="406" y="0" type="line"/>
      <point x="425" y="0" type="line"/>
      <point x="477" y="299" type="line"/>
      <point x="275" y="299" type="line"/>
      <point x="280" y="280" type="line"/>
      <point x="455" y="280" type="line"/>
      <point x="438" y="182" type="line" smooth="yes"/>
      <point x="429" y="133"/>
      <point x="408" y="91"/>
      <point x="374" y="58" type="curve" smooth="yes"/>
      <point x="339" y="26"/>
      <point x="291" y="9"/>
      <point x="230" y="9" type="curve" smooth="yes"/>
      <point x="108" y="9"/>
      <point x="48" y="82"/>
      <point x="66" y="186" type="curve" smooth="yes"/>
      <point x="121" y="495" type="line" smooth="yes"/>
      <point x="133" y="564"/>
      <point x="164" y="617"/>
      <point x="195" y="645" type="curve" smooth="yes"/>
      <point x="231" y="674"/>
      <point x="277" y="689"/>
      <point x="332" y="689" type="curve" smooth="yes"/>
      <point x="371" y="689"/>
      <point x="413" y="678"/>
    </contour>
  </outline>
</glyph>
<glyph name="J" format="1">
  <advance width="139"/>
  <unicode hex="004A"/>
  <outline>
    <contour>
      <point x="138" y="122" type="curve" smooth="yes"/>
      <point x="240" y="698" type="line"/>
      <point x="137" y="698" type="line"/>
      <point x="133" y="679" type="line"/>
      <point x="218" y="676" type="line"/>
      <point x="119" y="118" type="line" smooth="yes"/>
      <point x="105" y="35"/>
      <point x="65" y="-10"/>
      <point x="3" y="-19" type="curve"/>
      <point x="6" y="-37" type="line"/>
      <point x="45" y="-31"/>
      <point x="74" y="-15"/>
      <point x="96" y="12" type="curve" smooth="yes"/>
      <point x="116" y="37"/>
      <point x="129" y="73"/>
    </contour>
  </outline>
</glyph>
<glyph name="N" format="1">
  <advance width="536"/>
  <unicode hex="004E"/>
  <outline>
    <contour>
      <point x="501" y="32" type="line"/>
      <point x="163" y="698" type="line"/>
      <point x="145" y="698" type="line"/>
      <point x="22" y="0" type="line"/>
      <point x="40" y="0" type="line"/>
      <point x="157" y="668" type="line"/>
      <point x="496" y="0" type="line"/>
      <point x="513" y="0" type="line"/>
      <point x="636" y="698" type="line"/>
      <point x="619" y="698" type="line"/>
    </contour>
  </outline>
</glyph>
<glyph name="P" format="1">
  <advance width="466"/>
  <unicode hex="0050"/>
  <outline>
    <contour>
      <point x="394" y="698" type="curve" smooth="yes"/>
      <point x="145" y="698" type="line"/>
      <point x="22" y="0" type="line"/>
      <point x="41" y="0" type="line"/>
      <point x="90" y="280" type="line"/>
      <point x="169" y="280"/>
      <point x="253" y="280"/>
      <point x="313" y="280" type="curve" smooth="yes"/>
      <point x="447" y="280"/>
      <point x="517" y="354"/>
      <point x="541" y="492" type="curve" smooth="yes"/>
      <point x="564" y="621"/>
      <point x="520" y="698"/>
    </contour>
    <contour>
      <point x="93" y="299" type="curve"/>
      <point x="160" y="678" type="line"/>
      <point x="391" y="678" type="line" smooth="yes"/>
      <point x="506" y="678"/>
      <point x="543" y="609"/>
      <point x="522" y="492" type="curve" smooth="yes"/>
      <point x="500" y="367"/>
      <point x="437" y="299"/>
      <point x="315" y="299" type="curve" smooth="yes"/>
      <point x="260" y="299"/>
      <point x="181" y="299"/>
    </contour>
  </outline>
</glyph>
<glyph name="R" format="1">
  <advance width="471"/>
  <unicode hex="0052"/>
  <outline>
    <contour>
      <point x="394" y="698" type="curve" smooth="yes"/>
      <point x="145" y="698" type="line"/>
      <point x="22" y="0" type="line"/>
      <point x="41" y="0" type="line"/>
      <point x="90" y="280" type="line"/>
      <point x="313" y="280" type="line" smooth="yes"/>
      <point x="325" y="280"/>
      <point x="337" y="282"/>
      <point x="349" y="283" type="curve"/>
      <point x="435" y="0" type="line"/>
      <point x="455" y="0" type="line"/>
      <point x="369" y="285" type="line"/>
      <point x="467" y="304"/>
      <point x="520" y="374"/>
      <point x="541" y="492" type="curve" smooth="yes"/>
      <point x="564" y="621"/>
      <point x="520" y="698"/>
    </contour>
    <contour>
      <point x="315" y="299" type="curve" smooth="yes"/>
      <point x="93" y="299" type="line"/>
      <point x="160" y="678" type="line"/>
      <point x="391" y="678" type="line" smooth="yes"/>
      <point x="506" y="678"/>
      <point x="543" y="609"/>
      <point x="522" y="492" type="curve" smooth="yes"/>
      <point x="500" y="367"/>
      <point x="437" y="299"/>
    </contour>
  </outline>
</glyph>
<glyph name="S" format="1">
  <advance width="491"/>
  <unicode hex="0053"/>
  <outline>
    <contour>
      <point x="525" y="651" type="curve"/>
      <point x="536" y="670" type="line"/>
      <point x="495" y="694"/>
      <point x="440" y="707"/>
      <point x="384" y="707" type="curve" smooth="yes"/>
      <point x="330" y="707"/>
      <point x="274" y="695"/>
      <point x="229" y="669" type="curve" smooth="yes"/>
      <point x="184" y="643"/>
      <point x="150" y="603"/>
      <point x="138" y="547" type="curve" smooth="yes"/>
      <point x="118" y="460"/>
      <point x="185" y="417"/>
      <point x="267" y="381" type="curve" smooth="yes"/>
      <point x="301" y="366"/>
      <point x="336" y="353"/>
      <point x="368" y="338" type="curve" smooth="yes"/>
      <point x="444" y="304"/>
      <point x="503" y="263"/>
      <point x="489" y="178" type="curve" smooth="yes"/>
      <point x="480" y="124"/>
      <point x="453" y="85"/>
      <point x="418" y="57" type="curve" smooth="yes"/>
      <point x="369" y="22"/>
      <point x="306" y="7"/>
      <point x="242" y="7" type="curve" smooth="yes"/>
      <point x="177" y="7"/>
      <point x="134" y="25"/>
      <point x="105" y="48" type="curve" smooth="yes"/>
      <point x="55" y="88"/>
      <point x="48" y="142"/>
      <point x="48" y="142" type="curve"/>
      <point x="32" y="133" type="line"/>
      <point x="32" y="133"/>
      <point x="39" y="75"/>
      <point x="92" y="32" type="curve" smooth="yes"/>
      <point x="123" y="8"/>
      <point x="169" y="-12"/>
      <point x="238" y="-12" type="curve" smooth="yes"/>
      <point x="314" y="-12"/>
      <point x="381" y="8"/>
      <point x="428" y="44" type="curve" smooth="yes"/>
      <point x="472" y="76"/>
      <point x="501" y="121"/>
      <point x="510" y="177" type="curve" smooth="yes"/>
      <point x="527" y="268"/>
      <point x="460" y="318"/>
      <point x="379" y="355" type="curve" smooth="yes"/>
      <point x="347" y="371"/>
      <point x="311" y="385"/>
      <point x="279" y="398" type="curve" smooth="yes"/>
      <point x="170" y="444"/>
      <point x="146" y="483"/>
      <point x="156" y="543" type="curve" smooth="yes"/>
      <point x="165" y="594"/>
      <point x="202" y="637"/>
      <point x="243" y="658" type="curve" smooth="yes"/>
      <point x="288" y="682"/>
      <point x="337" y="691"/>
      <point x="382" y="691" type="curve" smooth="yes"/>
      <point x="440" y="690"/>
      <point x="493" y="673"/>
    </contour>
  </outline>
</glyph>
<glyph name="T" format="1">
  <advance width="364"/>
  <unicode hex="0054"/>
  <outline>
    <contour>
      <point x="505" y="698" type="line"/>
      <point x="103" y="698" type="line"/>
      <point x="99" y="678" type="line"/>
      <point x="288" y="678" type="line"/>
      <point x="170" y="0" type="line"/>
      <point x="188" y="0" type="line"/>
      <point x="307" y="678" type="line"/>
      <point x="501" y="678" type="line"/>
    </contour>
  </outline>
</glyph>
<glyph name="U" format="1">
  <advance width="455"/>
  <unicode hex="0055"/>
  <outline>
    <contour>
      <point x="468" y="185" type="curve" smooth="yes"/>
      <point x="559" y="698" type="line"/>
      <point x="540" y="698" type="line"/>
      <point x="449" y="184" type="line" smooth="yes"/>
      <point x="438" y="122"/>
      <point x="412" y="78"/>
      <point x="370" y="50" type="curve" smooth="yes"/>
      <point x="329" y="22"/>
      <point x="281" y="8"/>
      <point x="229" y="8" type="curve" smooth="yes"/>
      <point x="176" y="8"/>
      <point x="133" y="23"/>
      <point x="101" y="52" type="curve" smooth="yes"/>
      <point x="69" y="81"/>
      <point x="58" y="125"/>
      <point x="68" y="184" type="curve" smooth="yes"/>
      <point x="159" y="698" type="line"/>
      <point x="141" y="698" type="line"/>
      <point x="50" y="185" type="line" smooth="yes"/>
      <point x="38" y="118"/>
      <point x="49" y="68"/>
      <point x="85" y="36" type="curve" smooth="yes"/>
      <point x="121" y="4"/>
      <point x="168" y="-11"/>
      <point x="226" y="-11" type="curve" smooth="yes"/>
      <point x="282" y="-11"/>
      <point x="333" y="4"/>
      <point x="380" y="36" type="curve" smooth="yes"/>
      <point x="426" y="68"/>
      <point x="456" y="118"/>
    </contour>
  </outline>
</glyph>
<glyph name="V" format="1">
  <advance width="469"/>
  <unicode hex="0056"/>
  <outline>
    <contour>
      <point x="245" y="0" type="line"/>
      <point x="594" y="698" type="line"/>
      <point x="575" y="698" type="line"/>
      <point x="237" y="26" type="line"/>
      <point x="136" y="698" type="line"/>
      <point x="117" y="698" type="line"/>
      <point x="223" y="0" type="line"/>
    </contour>
  </outline>
</glyph>
<glyph name="W" format="1">
  <advance width="693"/>
  <unicode hex="0057"/>
  <outline>
    <contour>
      <point x="196" y="36" type="line"/>
      <point x="142" y="698" type="line"/>
      <point x="121" y="698" type="line"/>
      <point x="180" y="0" type="line"/>
      <point x="201" y="0" type="line"/>
      <point x="460" y="651" type="line"/>
      <point x="491" y="0" type="line"/>
      <point x="512" y="0" type="line"/>
      <point x="815" y="698" type="line"/>
      <point x="793" y="698" type="line"/>
      <point x="508" y="35" type="line"/>
      <point x="479" y="698" type="line"/>
      <point x="458" y="698" type="line"/>
    </contour>
  </outline>
</glyph>
<glyph name="Z" format="1">
  <advance width="503"/>
  <unicode hex="005A"/>
  <outline>
    <contour>
      <point x="141" y="679" type="line"/>
      <point x="583" y="679" type="line"/>
      <point x="12" y="19" type="line"/>
      <point x="9" y="0" type="line"/>
      <point x="494" y="0" type="line"/>
      <point x="497" y="19" type="line"/>
      <point x="35" y="19" type="line"/>
      <point x="607" y="679" type="line"/>
      <point x="611" y="698" type="line"/>
      <point x="144" y="698" type="line"/>
    </contour>
  </outline>
</glyph>
<glyph name="backslash" format="1">
  <advance width="372"/>
  <unicode hex="005C"/>
  <outline>
    <contour>
      <point x="178" y="815" type="line"/>
      <point x="157" y="815" type="line"/>
      <point x="318" y="-113" type="line"/>
      <point x="338" y="-113" type="line"/>
    </contour>
  </outline>
</glyph>
<glyph name="bracketright" format="1">
  <advance width="198"/>
  <unicode hex="005D"/>
  <outline>
    <contour>
      <point x="318" y="815" type="line"/>
      <point x="157" y="815" type="line"/>
      <point x="154" y="798" type="line"/>
      <point x="296" y="796" type="line"/>
      <point x="139" y="-95" type="line"/>
      <point x="-2" y="-96" type="line"/>
      <point x="-5" y="-113" type="line"/>
      <point x="155" y="-113" type="line"/>
    </contour>
  </outline>
</glyph>
<glyph name="a" format="1">
  <advance width="408"/>
  <unicode hex="0061"/>
  <outline>
    <contour>
      <point x="433" y="345" type="curve"/>
      <point x="378" y="374"/>
      <point x="313" y="403"/>
      <point x="240" y="403" type="curve" smooth="yes"/>
      <point x="106" y="403"/>
      <point x="63" y="315"/>
      <point x="52" y="251" type="curve"/>
      <point x="52" y="251"/>
      <point x="37" y="168"/>
      <point x="37" y="168" type="curve"/>
      <point x="16" y="50"/>
      <point x="65" y="-10"/>
      <point x="210" y="-10" type="curve" smooth="yes"/>
      <point x="251" y="-10"/>
      <point x="392" y="0"/>
      <point x="392" y="0" type="curve"/>
      <point x="392" y="0"/>
      <point x="429" y="212"/>
      <point x="451" y="335" type="curve" smooth="yes"/>
      <point x="461" y="395"/>
      <point x="449" y="441"/>
      <point x="413" y="470" type="curve" smooth="yes"/>
      <point x="384" y="495"/>
      <point x="338" y="507"/>
      <point x="273" y="507" type="curve"/>
      <point x="269" y="488" type="line"/>
      <point x="337" y="488"/>
      <point x="372" y="477"/>
      <point x="398" y="457" type="curve" smooth="yes"/>
      <point x="429" y="431"/>
      <point x="442" y="392"/>
    </contour>
    <contour>
      <point x="429" y="322" type="curve"/>
      <point x="429" y="322"/>
      <point x="376" y="18"/>
      <point x="376" y="18" type="curve"/>
      <point x="376" y="18"/>
      <point x="259" y="8"/>
      <point x="213" y="8" type="curve" smooth="yes"/>
      <point x="56" y="4"/>
      <point x="41" y="90"/>
      <point x="54" y="162" type="curve" smooth="yes"/>
      <point x="58" y="185"/>
      <point x="64" y="221"/>
      <point x="69" y="249" type="curve" smooth="yes"/>
      <point x="82" y="323"/>
      <point x="132" y="383"/>
      <point x="235" y="383" type="curve" smooth="yes"/>
      <point x="308" y="383"/>
      <point x="365" y="358"/>
    </contour>
  </outline>
</glyph>
<glyph name="b" format="1">
  <advance width="419"/>
  <unicode hex="0062"/>
  <outline>
    <contour>
      <point x="123" y="470" type="curve"/>
      <point x="164" y="698" type="line"/>
      <point x="145" y="698" type="line"/>
      <point x="21" y="-1" type="line"/>
      <point x="21" y="-1"/>
      <point x="159" y="-11"/>
      <point x="199" y="-11" type="curve" smooth="yes"/>
      <point x="346" y="-11"/>
      <point x="414" y="50"/>
      <point x="435" y="168" type="curve" smooth="yes"/>
      <point x="435" y="169"/>
      <point x="469" y="358"/>
      <point x="469" y="358" type="curve"/>
      <point x="480" y="421"/>
      <point x="451" y="508"/>
      <point x="317" y="508" type="curve" smooth="yes"/>
      <point x="244" y="508"/>
      <point x="178" y="492"/>
    </contour>
    <contour>
      <point x="44" y="18" type="curve"/>
      <point x="44" y="18"/>
      <point x="120" y="450"/>
      <point x="120" y="450" type="curve"/>
      <point x="177" y="474"/>
      <point x="242" y="491"/>
      <point x="315" y="491" type="curve" smooth="yes"/>
      <point x="418" y="491"/>
      <point x="462" y="429"/>
      <point x="449" y="354" type="curve" smooth="yes"/>
      <point x="445" y="330"/>
      <point x="419" y="182"/>
      <point x="415" y="161" type="curve" smooth="yes"/>
      <point x="402" y="89"/>
      <point x="358" y="4"/>
      <point x="202" y="7" type="curve" smooth="yes"/>
      <point x="156" y="8"/>
      <point x="44" y="18"/>
    </contour>
  </outline>
</glyph>
<glyph name="d" format="1">
  <advance width="417"/>
  <unicode hex="0064"/>
  <outline>
    <contour>
      <point x="393" y="-1" type="curve"/>
      <point x="517" y="698" type="line"/>
      <point x="498" y="698" type="line"/>
      <point x="457" y="470" type="line"/>
      <point x="409" y="492"/>
      <point x="351" y="508"/>
      <point x="278" y="508" type="curve" smooth="yes"/>
      <point x="144" y="508"/>
      <point x="84" y="421"/>
      <point x="73" y="358" type="curve"/>
      <point x="73" y="358"/>
      <point x="39" y="169"/>
      <point x="39" y="168" type="curve" smooth="yes"/>
      <point x="18" y="50"/>
      <point x="67" y="-11"/>
      <point x="213" y="-11" type="curve" smooth="yes"/>
      <point x="253" y="-11"/>
      <point x="393" y="-1"/>
    </contour>
    <contour>
      <point x="454" y="450" type="curve"/>
      <point x="454" y="450"/>
      <point x="378" y="18"/>
      <point x="378" y="18" type="curve"/>
      <point x="378" y="18"/>
      <point x="263" y="8"/>
      <point x="217" y="7" type="curve" smooth="yes"/>
      <point x="59" y="4"/>
      <point x="45" y="89"/>
      <point x="58" y="161" type="curve" smooth="yes"/>
      <point x="62" y="182"/>
      <point x="88" y="330"/>
      <point x="92" y="354" type="curve" smooth="yes"/>
      <point x="105" y="429"/>
      <point x="170" y="491"/>
      <point x="273" y="491" type="curve" smooth="yes"/>
      <point x="347" y="491"/>
      <point x="406" y="474"/>
    </contour>
  </outline>
</glyph>
<glyph name="f" format="1">
  <advance width="209"/>
  <unicode hex="0066"/>
  <outline>
    <contour>
      <point x="321" y="687" type="curve"/>
      <point x="328" y="705" type="line"/>
      <point x="317" y="708"/>
      <point x="304" y="708"/>
      <point x="292" y="708" type="curve" smooth="yes"/>
      <point x="222" y="708"/>
      <point x="138" y="670"/>
      <point x="116" y="548" type="curve" smooth="yes"/>
      <point x="20" y="0" type="line"/>
      <point x="40" y="0" type="line"/>
      <point x="124" y="482" type="line"/>
      <point x="267" y="482" type="line"/>
      <point x="277" y="498" type="line"/>
      <point x="127" y="498" type="line"/>
      <point x="136" y="546"/>
      <point x="136" y="547"/>
      <point x="136" y="548" type="curve" smooth="yes"/>
      <point x="156" y="662"/>
      <point x="234" y="693"/>
      <point x="295" y="691" type="curve" smooth="yes"/>
      <point x="304" y="691"/>
      <point x="312" y="689"/>
    </contour>
  </outline>
</glyph>
<glyph name="h" format="1">
  <advance width="406"/>
  <unicode hex="0068"/>
  <outline>
    <contour>
      <point x="125" y="471" type="curve"/>
      <point x="165" y="698" type="line"/>
      <point x="145" y="698" type="line"/>
      <point x="22" y="0" type="line"/>
      <point x="42" y="0" type="line"/>
      <point x="121" y="453" type="line"/>
      <point x="161" y="471"/>
      <point x="228" y="490"/>
      <point x="286" y="493" type="curve" smooth="yes"/>
      <point x="395" y="498"/>
      <point x="452" y="459"/>
      <point x="433" y="346" type="curve" smooth="yes"/>
      <point x="372" y="0" type="line"/>
      <point x="391" y="0" type="line"/>
      <point x="451" y="345" type="line" smooth="yes"/>
      <point x="479" y="501"/>
      <point x="364" y="514"/>
      <point x="276" y="508" type="curve" smooth="yes"/>
      <point x="224" y="505"/>
      <point x="159" y="485"/>
    </contour>
  </outline>
</glyph>
<glyph name="i" format="1">
  <advance width="73"/>
  <unicode hex="0069"/>
  <outline>
    <contour>
      <point x="132" y="499" type="line"/>
      <point x="113" y="499" type="line"/>
      <point x="26" y="0" type="line"/>
      <point x="45" y="0" type="line"/>
    </contour>
    <contour>
      <point x="160" y="708" type="curve" smooth="yes"/>
      <point x="150" y="708"/>
      <point x="142" y="701"/>
      <point x="140" y="691" type="curve" smooth="yes"/>
      <point x="139" y="682"/>
      <point x="144" y="674"/>
      <point x="154" y="674" type="curve" smooth="yes"/>
      <point x="163" y="674"/>
      <point x="173" y="682"/>
      <point x="174" y="691" type="curve" smooth="yes"/>
      <point x="176" y="701"/>
      <point x="169" y="708"/>
    </contour>
  </outline>
</glyph>
<glyph name="j" format="1">
  <advance width="142"/>
  <unicode hex="006A"/>
  <outline>
    <contour>
      <point x="102" y="-68" type="curve" smooth="yes"/>
      <point x="201" y="499" type="line"/>
      <point x="99" y="499" type="line"/>
      <point x="96" y="481" type="line"/>
      <point x="181" y="481" type="line"/>
      <point x="85" y="-67" type="line" smooth="yes"/>
      <point x="77" y="-112"/>
      <point x="60" y="-143"/>
      <point x="36" y="-161" type="curve" smooth="yes"/>
      <point x="10" y="-179"/>
      <point x="0" y="-184"/>
      <point x="-32" y="-196" type="curve"/>
      <point x="-29" y="-213" type="line"/>
      <point x="2" y="-204"/>
      <point x="28" y="-191"/>
      <point x="48" y="-175" type="curve"/>
      <point x="76" y="-150"/>
      <point x="93" y="-116"/>
    </contour>
    <contour>
      <point x="243" y="691" type="curve" smooth="yes"/>
      <point x="245" y="701"/>
      <point x="240" y="707"/>
      <point x="230" y="707" type="curve" smooth="yes"/>
      <point x="221" y="707"/>
      <point x="212" y="701"/>
      <point x="210" y="691" type="curve" smooth="yes"/>
      <point x="209" y="682"/>
      <point x="215" y="674"/>
      <point x="224" y="674" type="curve" smooth="yes"/>
      <point x="234" y="674"/>
      <point x="242" y="682"/>
    </contour>
  </outline>
</glyph>
<glyph name="l" format="1">
  <advance width="65"/>
  <unicode hex="006C"/>
  <outline>
    <contour>
      <point x="165" y="698" type="line"/>
      <point x="145" y="698" type="line"/>
      <point x="22" y="0" type="line"/>
      <point x="42" y="0" type="line"/>
    </contour>
  </outline>
</glyph>
<glyph name="m" format="1">
  <advance width="676"/>
  <unicode hex="006D"/>
  <outline>
    <contour>
      <point x="703" y="344" type="curve" smooth="yes"/>
      <point x="643" y="0" type="line"/>
      <point x="660" y="0" type="line"/>
      <point x="720" y="343" type="line" smooth="yes"/>
      <point x="747" y="499"/>
      <point x="655" y="514"/>
      <point x="568" y="507" type="curve" smooth="yes"/>
      <point x="517" y="504"/>
      <point x="446" y="480"/>
      <point x="403" y="454" type="curve"/>
      <point x="378" y="506"/>
      <point x="317" y="512"/>
      <point x="256" y="507" type="curve" smooth="yes"/>
      <point x="204" y="503"/>
      <point x="153" y="486"/>
      <point x="120" y="470" type="curve"/>
      <point x="125" y="498" type="line"/>
      <point x="106" y="498" type="line"/>
      <point x="19" y="0" type="line"/>
      <point x="38" y="0" type="line"/>
      <point x="117" y="451" type="line"/>
      <point x="157" y="470"/>
      <point x="197" y="487"/>
      <point x="258" y="492" type="curve" smooth="yes"/>
      <point x="365" y="499"/>
      <point x="411" y="458"/>
      <point x="391" y="344" type="curve" smooth="yes"/>
      <point x="331" y="0" type="line"/>
      <point x="351" y="0" type="line"/>
      <point x="411" y="343" type="line" smooth="yes"/>
      <point x="418" y="385"/>
      <point x="416" y="417"/>
      <point x="409" y="441" type="curve"/>
      <point x="453" y="464"/>
      <point x="512" y="487"/>
      <point x="569" y="492" type="curve" smooth="yes"/>
      <point x="678" y="499"/>
      <point x="723" y="458"/>
    </contour>
  </outline>
</glyph>
<glyph name="n" format="1">
  <advance width="404"/>
  <unicode hex="006E"/>
  <outline>
    <contour>
      <point x="429" y="345" type="curve" smooth="yes"/>
      <point x="369" y="0" type="line"/>
      <point x="387" y="0" type="line"/>
      <point x="447" y="344" type="line" smooth="yes"/>
      <point x="475" y="501"/>
      <point x="361" y="514"/>
      <point x="273" y="508" type="curve" smooth="yes"/>
      <point x="221" y="505"/>
      <point x="155" y="485"/>
      <point x="121" y="471" type="curve"/>
      <point x="125" y="499" type="line"/>
      <point x="106" y="499" type="line"/>
      <point x="19" y="0" type="line"/>
      <point x="38" y="0" type="line"/>
      <point x="117" y="452" type="line"/>
      <point x="158" y="471"/>
      <point x="225" y="490"/>
      <point x="283" y="493" type="curve" smooth="yes"/>
      <point x="392" y="498"/>
      <point x="449" y="459"/>
    </contour>
  </outline>
</glyph>
<glyph name="o" format="1">
  <advance width="391"/>
  <unicode hex="006F"/>
  <outline>
    <contour>
      <point x="410" y="184" type="curve" smooth="yes"/>
      <point x="433" y="315" type="line" smooth="yes"/>
      <point x="454" y="436"/>
      <point x="404" y="510"/>
      <point x="285" y="510" type="curve" smooth="yes"/>
      <point x="166" y="510"/>
      <point x="86" y="442"/>
      <point x="64" y="315" type="curve" smooth="yes"/>
      <point x="41" y="184" type="line" smooth="yes"/>
      <point x="22" y="77"/>
      <point x="66" y="-10"/>
      <point x="194" y="-10" type="curve" smooth="yes"/>
      <point x="317" y="-10"/>
      <point x="390" y="71"/>
    </contour>
    <contour>
      <point x="415" y="319" type="curve" smooth="yes"/>
      <point x="391" y="184" type="line" smooth="yes"/>
      <point x="373" y="84"/>
      <point x="311" y="8"/>
      <point x="197" y="8" type="curve" smooth="yes"/>
      <point x="86" y="8"/>
      <point x="43" y="85"/>
      <point x="61" y="184" type="curve" smooth="yes"/>
      <point x="85" y="319" type="line" smooth="yes"/>
      <point x="106" y="442"/>
      <point x="186" y="492"/>
      <point x="282" y="492" type="curve" smooth="yes"/>
      <point x="377" y="492"/>
      <point x="435" y="433"/>
    </contour>
  </outline>
</glyph>
<glyph name="p" format="1">
  <advance width="403"/>
  <unicode hex="0070"/>
  <outline>
    <contour>
      <point x="419" y="175" type="curve" smooth="yes"/>
      <point x="449" y="344" type="line" smooth="yes"/>
      <point x="468" y="450"/>
      <point x="413" y="513"/>
      <point x="304" y="508" type="curve" smooth="yes"/>
      <point x="255" y="506"/>
      <point x="175" y="487"/>
      <point x="119" y="451" type="curve"/>
      <point x="127" y="498" type="line"/>
      <point x="107" y="498" type="line"/>
      <point x="-16" y="-206" type="line"/>
      <point x="2" y="-212" type="line"/>
      <point x="54" y="80" type="line"/>
      <point x="66" y="22"/>
      <point x="151" y="-12"/>
      <point x="212" y="-12" type="curve" smooth="yes"/>
      <point x="323" y="-12"/>
      <point x="398" y="53"/>
    </contour>
    <contour>
      <point x="433" y="346" type="curve" smooth="yes"/>
      <point x="401" y="168" type="line" smooth="yes"/>
      <point x="383" y="67"/>
      <point x="320" y="9"/>
      <point x="232" y="4" type="curve" smooth="yes"/>
      <point x="143" y="-1"/>
      <point x="48" y="50"/>
      <point x="65" y="147" type="curve" smooth="yes"/>
      <point x="115" y="426" type="line"/>
      <point x="166" y="470"/>
      <point x="263" y="494"/>
      <point x="318" y="493" type="curve" smooth="yes"/>
      <point x="391" y="490"/>
      <point x="451" y="450"/>
    </contour>
  </outline>
</glyph>
<glyph name="q" format="1">
  <advance width="398"/>
  <unicode hex="0071"/>
  <outline>
    <contour>
      <point x="373" y="81" type="curve"/>
      <point x="322" y="-207" type="line"/>
      <point x="340" y="-211" type="line"/>
      <point x="465" y="498" type="line"/>
      <point x="446" y="498" type="line"/>
      <point x="438" y="451" type="line"/>
      <point x="395" y="488"/>
      <point x="321" y="507"/>
      <point x="274" y="509" type="curve" smooth="yes"/>
      <point x="165" y="514"/>
      <point x="89" y="450"/>
      <point x="70" y="345" type="curve" smooth="yes"/>
      <point x="41" y="176" type="line" smooth="yes"/>
      <point x="19" y="54"/>
      <point x="71" y="-11"/>
      <point x="182" y="-11" type="curve" smooth="yes"/>
      <point x="243" y="-11"/>
      <point x="324" y="14"/>
    </contour>
    <contour>
      <point x="434" y="427" type="curve"/>
      <point x="385" y="148" type="line" smooth="yes"/>
      <point x="367" y="51"/>
      <point x="248" y="0"/>
      <point x="169" y="4" type="curve" smooth="yes"/>
      <point x="85" y="11"/>
      <point x="41" y="68"/>
      <point x="59" y="169" type="curve" smooth="yes"/>
      <point x="91" y="348" type="line" smooth="yes"/>
      <point x="109" y="451"/>
      <point x="183" y="491"/>
      <point x="255" y="493" type="curve" smooth="yes"/>
      <point x="313" y="495"/>
      <point x="406" y="459"/>
    </contour>
  </outline>
</glyph>
<glyph name="r" format="1">
  <advance width="291"/>
  <unicode hex="0072"/>
  <outline>
    <contour>
      <point x="375" y="490" type="curve"/>
      <point x="379" y="506" type="line"/>
      <point x="365" y="510"/>
      <point x="351" y="513"/>
      <point x="335" y="513" type="curve" smooth="yes"/>
      <point x="278" y="513"/>
      <point x="206" y="488"/>
      <point x="117" y="453" type="curve"/>
      <point x="125" y="499" type="line"/>
      <point x="106" y="499" type="line"/>
      <point x="19" y="0" type="line"/>
      <point x="38" y="0" type="line"/>
      <point x="114" y="432" type="line"/>
      <point x="219" y="476"/>
      <point x="280" y="494"/>
      <point x="330" y="494" type="curve" smooth="yes"/>
      <point x="345" y="494"/>
      <point x="360" y="493"/>
    </contour>
  </outline>
</glyph>
<glyph name="s" format="1">
  <advance width="372"/>
  <unicode hex="0073"/>
  <outline>
    <contour>
      <point x="387" y="460" type="curve"/>
      <point x="400" y="474" type="line"/>
      <point x="398" y="475"/>
      <point x="355" y="510"/>
      <point x="280" y="510" type="curve" smooth="yes"/>
      <point x="245" y="510"/>
      <point x="205" y="502"/>
      <point x="171" y="483" type="curve" smooth="yes"/>
      <point x="138" y="464"/>
      <point x="112" y="436"/>
      <point x="102" y="395" type="curve" smooth="yes"/>
      <point x="93" y="352"/>
      <point x="106" y="323"/>
      <point x="133" y="300" type="curve" smooth="yes"/>
      <point x="160" y="280"/>
      <point x="197" y="265"/>
      <point x="241" y="249" type="curve" smooth="yes"/>
      <point x="290" y="230"/>
      <point x="322" y="212"/>
      <point x="341" y="194" type="curve" smooth="yes"/>
      <point x="364" y="168"/>
      <point x="368" y="143"/>
      <point x="361" y="114" type="curve" smooth="yes"/>
      <point x="355" y="90"/>
      <point x="341" y="64"/>
      <point x="315" y="43" type="curve" smooth="yes"/>
      <point x="287" y="20"/>
      <point x="244" y="2"/>
      <point x="185" y="2" type="curve" smooth="yes"/>
      <point x="147" y="2"/>
      <point x="118" y="10"/>
      <point x="94" y="22" type="curve" smooth="yes"/>
      <point x="65" y="37"/>
      <point x="47" y="59"/>
      <point x="35" y="81" type="curve"/>
      <point x="19" y="68" type="line"/>
      <point x="33" y="44"/>
      <point x="54" y="21"/>
      <point x="86" y="4" type="curve" smooth="yes"/>
      <point x="110" y="-8"/>
      <point x="142" y="-15"/>
      <point x="182" y="-15" type="curve" smooth="yes"/>
      <point x="243" y="-15"/>
      <point x="289" y="1"/>
      <point x="322" y="26" type="curve" smooth="yes"/>
      <point x="354" y="52"/>
      <point x="372" y="84"/>
      <point x="379" y="113" type="curve" smooth="yes"/>
      <point x="386" y="147"/>
      <point x="384" y="178"/>
      <point x="354" y="208" type="curve" smooth="yes"/>
      <point x="335" y="228"/>
      <point x="301" y="246"/>
      <point x="250" y="266" type="curve" smooth="yes"/>
      <point x="205" y="283"/>
      <point x="172" y="297"/>
      <point x="150" y="315" type="curve" smooth="yes"/>
      <point x="122" y="335"/>
      <point x="113" y="359"/>
      <point x="121" y="394" type="curve" smooth="yes"/>
      <point x="129" y="430"/>
      <point x="154" y="454"/>
      <point x="182" y="470" type="curve" smooth="yes"/>
      <point x="213" y="485"/>
      <point x="247" y="492"/>
      <point x="277" y="492" type="curve" smooth="yes"/>
      <point x="346" y="492"/>
      <point x="387" y="460"/>
    </contour>
  </outline>
</glyph>
<glyph name="t" format="1">
  <advance width="202"/>
  <unicode hex="0074"/>
  <outline>
    <contour>
      <point x="63" y="132" type="curve" smooth="yes"/>
      <point x="124" y="481" type="line"/>
      <point x="271" y="481" type="line"/>
      <point x="283" y="499" type="line"/>
      <point x="127" y="499" type="line"/>
      <point x="163" y="698" type="line"/>
      <point x="143" y="698" type="line"/>
      <point x="43" y="132" type="line" smooth="yes"/>
      <point x="29" y="53"/>
      <point x="52" y="8"/>
      <point x="122" y="-13" type="curve"/>
      <point x="132" y="4" type="line"/>
      <point x="69" y="26"/>
      <point x="50" y="58"/>
    </contour>
  </outline>
</glyph>
<glyph name="w" format="1">
  <advance width="632"/>
  <unicode hex="0077"/>
  <outline>
    <contour>
      <point x="179" y="36" type="line"/>
      <point x="107" y="498" type="line"/>
      <point x="87" y="498" type="line"/>
      <point x="168" y="0" type="line"/>
      <point x="180" y="0" type="line"/>
      <point x="391" y="453" type="line"/>
      <point x="447" y="0" type="line"/>
      <point x="460" y="0" type="line"/>
      <point x="714" y="498" type="line"/>
      <point x="694" y="498" type="line"/>
      <point x="459" y="36" type="line"/>
      <point x="405" y="498" type="line"/>
      <point x="394" y="498" type="line"/>
    </contour>
  </outline>
</glyph>
<glyph name="x" format="1">
  <advance width="354"/>
  <unicode hex="0078"/>
  <outline>
    <contour>
      <point x="105" y="498" type="line"/>
      <point x="213" y="250" type="line"/>
      <point x="11" y="0" type="line"/>
      <point x="33" y="0" type="line"/>
      <point x="221" y="233" type="line"/>
      <point x="320" y="0" type="line"/>
      <point x="341" y="0" type="line"/>
      <point x="234" y="249" type="line"/>
      <point x="431" y="498" type="line"/>
      <point x="409" y="498" type="line"/>
      <point x="226" y="264" type="line"/>
      <point x="128" y="498" type="line"/>
    </contour>
  </outline>
</glyph>
<glyph name="y" format="1">
  <advance width="421"/>
  <unicode hex="0079"/>
  <outline>
    <contour>
      <point x="496" y="499" type="curve"/>
      <point x="485" y="510" type="line"/>
      <point x="457" y="485"/>
      <point x="447" y="465"/>
      <point x="439" y="418" type="curve" smooth="yes"/>
      <point x="395" y="169" type="line" smooth="yes"/>
      <point x="381" y="88"/>
      <point x="306" y="16"/>
      <point x="209" y="10" type="curve" smooth="yes"/>
      <point x="101" y="2"/>
      <point x="41" y="44"/>
      <point x="61" y="156" type="curve" smooth="yes"/>
      <point x="121" y="499" type="line"/>
      <point x="101" y="499" type="line"/>
      <point x="41" y="157" type="line" smooth="yes"/>
      <point x="14" y="1"/>
      <point x="132" y="-12"/>
      <point x="207" y="-8" type="curve" smooth="yes"/>
      <point x="270" y="-3"/>
      <point x="345" y="30"/>
      <point x="383" y="99" type="curve"/>
      <point x="354" y="-66" type="line" smooth="yes"/>
      <point x="346" y="-110"/>
      <point x="329" y="-142"/>
      <point x="305" y="-160" type="curve" smooth="yes"/>
      <point x="279" y="-178"/>
      <point x="269" y="-183"/>
      <point x="237" y="-195" type="curve"/>
      <point x="240" y="-212" type="line"/>
      <point x="272" y="-202"/>
      <point x="297" y="-190"/>
      <point x="317" y="-174" type="curve" smooth="yes"/>
      <point x="346" y="-149"/>
      <point x="362" y="-114"/>
      <point x="371" y="-67" type="curve" smooth="yes"/>
      <point x="456" y="417" type="line" smooth="yes"/>
      <point x="464" y="461"/>
      <point x="472" y="482"/>
    </contour>
  </outline>
</glyph>
<glyph name="z" format="1">
  <advance width="387"/>
  <unicode hex="007A"/>
  <outline>
    <contour>
      <point x="105" y="481" type="line"/>
      <point x="418" y="481" type="line"/>
      <point x="15" y="19" type="line"/>
      <point x="12" y="0" type="line"/>
      <point x="378" y="0" type="line"/>
      <point x="381" y="19" type="line"/>
      <point x="38" y="19" type="line"/>
      <point x="442" y="481" type="line"/>
      <point x="445" y="499" type="line"/>
      <point x="108" y="499" type="line"/>
    </contour>
  </outline>
</glyph>
<glyph name="braceleft" format="1">
  <advance width="227"/>
  <unicode hex="007B"/>
  <outline>
    <contour>
      <point x="206" y="515" type="curve" smooth="yes"/>
      <point x="226" y="628" type="line" smooth="yes"/>
      <point x="252" y="773"/>
      <point x="349" y="800"/>
      <point x="352" y="801" type="curve"/>
      <point x="352" y="820" type="line"/>
      <point x="348" y="818"/>
      <point x="237" y="789"/>
      <point x="208" y="628" type="curve" smooth="yes"/>
      <point x="188" y="515" type="line" smooth="yes"/>
      <point x="178" y="459"/>
      <point x="163" y="408"/>
      <point x="92" y="360" type="curve" smooth="yes"/>
      <point x="80" y="352" type="line"/>
      <point x="89" y="344" type="line" smooth="yes"/>
      <point x="144" y="295"/>
      <point x="141" y="245"/>
      <point x="131" y="189" type="curve" smooth="yes"/>
      <point x="111" y="76" type="line" smooth="yes"/>
      <point x="83" y="-85"/>
      <point x="183" y="-116"/>
      <point x="187" y="-117" type="curve"/>
      <point x="194" y="-98" type="line"/>
      <point x="190" y="-97"/>
      <point x="103" y="-69"/>
      <point x="129" y="76" type="curve" smooth="yes"/>
      <point x="149" y="189" type="line" smooth="yes"/>
      <point x="159" y="245"/>
      <point x="162" y="300"/>
      <point x="110" y="352" type="curve"/>
      <point x="181" y="404"/>
      <point x="196" y="459"/>
    </contour>
  </outline>
</glyph>
<glyph name="braceright" format="1">
  <advance width="227"/>
  <unicode hex="007D"/>
  <outline>
    <contour>
      <point x="163" y="820" type="curve"/>
      <point x="155" y="801" type="line"/>
      <point x="159" y="800"/>
      <point x="247" y="773"/>
      <point x="221" y="628" type="curve" smooth="yes"/>
      <point x="201" y="515" type="line" smooth="yes"/>
      <point x="191" y="459"/>
      <point x="188" y="404"/>
      <point x="240" y="352" type="curve"/>
      <point x="169" y="300"/>
      <point x="154" y="245"/>
      <point x="144" y="189" type="curve" smooth="yes"/>
      <point x="124" y="76" type="line" smooth="yes"/>
      <point x="98" y="-69"/>
      <point x="0" y="-97"/>
      <point x="-3" y="-98" type="curve"/>
      <point x="-2" y="-117" type="line"/>
      <point x="1" y="-116"/>
      <point x="113" y="-85"/>
      <point x="141" y="76" type="curve" smooth="yes"/>
      <point x="161" y="189" type="line" smooth="yes"/>
      <point x="171" y="245"/>
      <point x="185" y="295"/>
      <point x="257" y="344" type="curve" smooth="yes"/>
      <point x="270" y="352" type="line"/>
      <point x="260" y="360" type="line" smooth="yes"/>
      <point x="204" y="408"/>
      <point x="208" y="459"/>
      <point x="218" y="515" type="curve" smooth="yes"/>
      <point x="238" y="628" type="line" smooth="yes"/>
      <point x="267" y="789"/>
      <point x="167" y="818"/>
    </contour>
  </outline>
</glyph>
<glyph name="asciitilde" format="1">
  <advance width="330"/>
  <unicode hex="007E"/>
  <outline>
    <contour>
      <point x="363" y="307" type="curve"/>
      <point x="355" y="322" type="line"/>
      <point x="330" y="302"/>
      <point x="308" y="296"/>
      <point x="287" y="297" type="curve" smooth="yes"/>
      <point x="242" y="299"/>
      <point x="205" y="337"/>
      <point x="155" y="337" type="curve" smooth="yes"/>
      <point x="130" y="337"/>
      <point x="104" y="329"/>
      <point x="72" y="304" type="curve"/>
      <point x="80" y="287" type="line"/>
      <point x="106" y="309"/>
      <point x="129" y="317"/>
      <point x="149" y="317" type="curve" smooth="yes"/>
      <point x="192" y="317"/>
      <point x="236" y="278"/>
      <point x="288" y="278" type="curve" smooth="yes"/>
      <point x="310" y="278"/>
      <point x="335" y="286"/>
    </contour>
  </outline>
</glyph>
<glyph name="exclamdown" format="1">
  <advance width="78"/>
  <unicode hex="00A1"/>
  <outline>
    <contour>
      <point x="58" y="18" type="curve" smooth="yes"/>
      <point x="150" y="588" type="line"/>
      <point x="135" y="588" type="line"/>
      <point x="26" y="18" type="line"/>
      <point x="24" y="7"/>
      <point x="32" y="0"/>
      <point x="40" y="0" type="curve" smooth="yes"/>
      <point x="51" y="0"/>
      <point x="56" y="7"/>
    </contour>
    <contour>
      <point x="177" y="691" type="curve" smooth="yes"/>
      <point x="179" y="701"/>
      <point x="172" y="708"/>
      <point x="164" y="708" type="curve" smooth="yes"/>
      <point x="154" y="708"/>
      <point x="145" y="701"/>
      <point x="143" y="691" type="curve" smooth="yes"/>
      <point x="142" y="682"/>
      <point x="148" y="674"/>
      <point x="158" y="674" type="curve" smooth="yes"/>
      <point x="166" y="674"/>
      <point x="176" y="682"/>
    </contour>
  </outline>
</glyph>
<glyph name="cent" format="1">
  <advance width="356"/>
  <unicode hex="00A2"/>
  <outline>
    <contour>
      <point x="410" y="457" type="curve"/>
      <point x="420" y="476" type="line"/>
      <point x="366" y="504"/>
      <point x="302" y="516"/>
      <point x="243" y="504" type="curve" smooth="yes"/>
      <point x="197" y="494"/>
      <point x="153" y="470"/>
      <point x="121" y="426" type="curve" smooth="yes"/>
      <point x="95" y="394"/>
      <point x="83" y="362"/>
      <point x="74" y="318" type="curve"/>
      <point x="48" y="173" type="line" smooth="yes"/>
      <point x="31" y="75"/>
      <point x="66" y="23"/>
      <point x="130" y="1" type="curve" smooth="yes"/>
      <point x="185" y="-18"/>
      <point x="269" y="-13"/>
      <point x="339" y="5" type="curve"/>
      <point x="338" y="25" type="line"/>
      <point x="338" y="25"/>
      <point x="218" y="-9"/>
      <point x="134" y="21" type="curve" smooth="yes"/>
      <point x="66" y="45"/>
      <point x="53" y="98"/>
      <point x="66" y="175" type="curve" smooth="yes"/>
      <point x="91" y="312" type="line" smooth="yes"/>
      <point x="98" y="355"/>
      <point x="114" y="389"/>
      <point x="136" y="416" type="curve" smooth="yes"/>
      <point x="164" y="453"/>
      <point x="203" y="476"/>
      <point x="248" y="485" type="curve" smooth="yes"/>
      <point x="299" y="496"/>
      <point x="357" y="486"/>
    </contour>
    <contour>
      <point x="313" y="621" type="line"/>
      <point x="296" y="621" type="line"/>
      <point x="167" y="-113" type="line"/>
      <point x="184" y="-113" type="line"/>
    </contour>
  </outline>
</glyph>
<glyph name="sterling" format="1">
  <advance width="397"/>
  <unicode hex="00A3"/>
  <outline>
    <contour>
      <point x="125" y="16" type="curve" smooth="yes"/>
      <point x="22" y="16" type="line"/>
      <point x="20" y="0" type="line"/>
      <point x="378" y="0" type="line"/>
      <point x="380" y="16" type="line"/>
      <point x="213" y="16" type="line"/>
      <point x="248" y="29"/>
      <point x="280" y="51"/>
      <point x="303" y="86" type="curve" smooth="yes"/>
      <point x="356" y="167"/>
      <point x="341" y="251"/>
      <point x="286" y="329" type="curve" smooth="yes"/>
      <point x="275" y="344"/>
      <point x="264" y="359"/>
      <point x="253" y="375" type="curve"/>
      <point x="444" y="375" type="line"/>
      <point x="447" y="396" type="line"/>
      <point x="237" y="396" type="line"/>
      <point x="230" y="405"/>
      <point x="225" y="414"/>
      <point x="221" y="420" type="curve" smooth="yes"/>
      <point x="156" y="509"/>
      <point x="154" y="561"/>
      <point x="187" y="617" type="curve" smooth="yes"/>
      <point x="215" y="663"/>
      <point x="268" y="686"/>
      <point x="311" y="689" type="curve" smooth="yes"/>
      <point x="366" y="692"/>
      <point x="415" y="675"/>
      <point x="453" y="650" type="curve"/>
      <point x="462" y="667" type="line"/>
      <point x="416" y="695"/>
      <point x="359" y="712"/>
      <point x="307" y="705" type="curve" smooth="yes"/>
      <point x="257" y="701"/>
      <point x="207" y="678"/>
      <point x="174" y="627" type="curve" smooth="yes"/>
      <point x="122" y="549"/>
      <point x="153" y="480"/>
      <point x="202" y="408" type="curve"/>
      <point x="205" y="404"/>
      <point x="209" y="400"/>
      <point x="211" y="396" type="curve"/>
      <point x="89" y="396" type="line"/>
      <point x="86" y="375" type="line"/>
      <point x="227" y="375" type="line"/>
      <point x="242" y="353"/>
      <point x="257" y="332"/>
      <point x="268" y="316" type="curve" smooth="yes"/>
      <point x="321" y="243"/>
      <point x="328" y="164"/>
      <point x="288" y="97" type="curve" smooth="yes"/>
      <point x="248" y="34"/>
      <point x="181" y="16"/>
    </contour>
  </outline>
</glyph>
<glyph name="currency" format="1">
  <advance width="416"/>
  <unicode hex="00A4"/>
  <outline>
    <contour>
      <point x="382" y="378" type="curve"/>
      <point x="477" y="459" type="line"/>
      <point x="467" y="472" type="line"/>
      <point x="373" y="392" type="line"/>
      <point x="350" y="414"/>
      <point x="319" y="428"/>
      <point x="283" y="428" type="curve" smooth="yes"/>
      <point x="245" y="428"/>
      <point x="209" y="415"/>
      <point x="180" y="392" type="curve"/>
      <point x="114" y="472" type="line"/>
      <point x="98" y="459" type="line"/>
      <point x="164" y="378" type="line"/>
      <point x="138" y="353"/>
      <point x="119" y="319"/>
      <point x="112" y="283" type="curve" smooth="yes"/>
      <point x="106" y="245"/>
      <point x="113" y="212"/>
      <point x="130" y="186" type="curve"/>
      <point x="36" y="106" type="line"/>
      <point x="47" y="92" type="line"/>
      <point x="141" y="173" type="line"/>
      <point x="163" y="151"/>
      <point x="194" y="137"/>
      <point x="232" y="137" type="curve" smooth="yes"/>
      <point x="268" y="137"/>
      <point x="303" y="151"/>
      <point x="332" y="173" type="curve"/>
      <point x="400" y="92" type="line"/>
      <point x="415" y="106" type="line"/>
      <point x="348" y="186" type="line"/>
      <point x="376" y="212"/>
      <point x="395" y="245"/>
      <point x="401" y="283" type="curve" smooth="yes"/>
      <point x="408" y="319"/>
      <point x="400" y="353"/>
    </contour>
    <contour>
      <point x="235" y="157" type="curve" smooth="yes"/>
      <point x="166" y="157"/>
      <point x="119" y="213"/>
      <point x="131" y="283" type="curve" smooth="yes"/>
      <point x="143" y="351"/>
      <point x="210" y="407"/>
      <point x="279" y="407" type="curve" smooth="yes"/>
      <point x="347" y="407"/>
      <point x="393" y="351"/>
      <point x="381" y="283" type="curve" smooth="yes"/>
      <point x="369" y="213"/>
      <point x="303" y="157"/>
    </contour>
  </outline>
</glyph>
<glyph name="yen" format="1">
  <advance width="502"/>
  <unicode hex="00A5"/>
  <outline>
    <contour>
      <point x="264" y="131" type="line"/>
      <point x="114" y="131" type="line"/>
      <point x="110" y="111" type="line"/>
      <point x="260" y="111" type="line"/>
      <point x="241" y="0" type="line"/>
      <point x="258" y="0" type="line"/>
      <point x="277" y="111" type="line"/>
      <point x="429" y="111" type="line"/>
      <point x="433" y="131" type="line"/>
      <point x="281" y="131" type="line"/>
      <point x="296" y="217" type="line"/>
      <point x="448" y="217" type="line"/>
      <point x="451" y="235" type="line"/>
      <point x="299" y="235" type="line"/>
      <point x="318" y="341" type="line"/>
      <point x="609" y="698" type="line"/>
      <point x="586" y="698" type="line"/>
      <point x="313" y="361" type="line"/>
      <point x="161" y="698" type="line"/>
      <point x="138" y="698" type="line"/>
      <point x="301" y="341" type="line"/>
      <point x="282" y="235" type="line"/>
      <point x="132" y="235" type="line"/>
      <point x="129" y="217" type="line"/>
      <point x="279" y="217" type="line"/>
    </contour>
  </outline>
</glyph>
<glyph name="dieresis" format="1">
  <advance width="343"/>
  <unicode hex="00A8"/>
  <outline>
    <contour>
      <point x="157" y="724" type="curve" smooth="yes"/>
      <point x="148" y="724"/>
      <point x="139" y="716"/>
      <point x="137" y="706" type="curve" smooth="yes"/>
      <point x="135" y="697"/>
      <point x="142" y="690"/>
      <point x="151" y="690" type="curve" smooth="yes"/>
      <point x="161" y="690"/>
      <point x="169" y="697"/>
      <point x="171" y="706" type="curve" smooth="yes"/>
      <point x="173" y="716"/>
      <point x="167" y="724"/>
    </contour>
    <contour>
      <point x="315" y="724" type="curve" smooth="yes"/>
      <point x="306" y="724"/>
      <point x="298" y="716"/>
      <point x="296" y="706" type="curve" smooth="yes"/>
      <point x="294" y="697"/>
      <point x="300" y="690"/>
      <point x="309" y="690" type="curve" smooth="yes"/>
      <point x="318" y="690"/>
      <point x="327" y="697"/>
      <point x="329" y="706" type="curve" smooth="yes"/>
      <point x="331" y="716"/>
      <point x="324" y="724"/>
    </contour>
  </outline>
</glyph>
<glyph name="copyright" format="1">
  <advance width="668"/>
  <unicode hex="00A9"/>
  <outline>
    <contour>
      <point x="682" y="191" type="curve" smooth="yes"/>
      <point x="705" y="319" type="line" smooth="yes"/>
      <point x="735" y="490"/>
      <point x="618" y="577"/>
      <point x="435" y="579" type="curve" smooth="yes"/>
      <point x="251" y="577"/>
      <point x="104" y="490"/>
      <point x="74" y="319" type="curve" smooth="yes"/>
      <point x="51" y="191" type="line" smooth="yes"/>
      <point x="21" y="20"/>
      <point x="138" y="-67"/>
      <point x="321" y="-68" type="curve" smooth="yes"/>
      <point x="505" y="-67"/>
      <point x="652" y="20"/>
    </contour>
    <contour>
      <point x="687" y="316" type="curve" smooth="yes"/>
      <point x="666" y="194" type="line" smooth="yes"/>
      <point x="637" y="33"/>
      <point x="498" y="-51"/>
      <point x="323" y="-52" type="curve" smooth="yes"/>
      <point x="150" y="-51"/>
      <point x="39" y="33"/>
      <point x="68" y="194" type="curve" smooth="yes"/>
      <point x="89" y="316" type="line" smooth="yes"/>
      <point x="118" y="477"/>
      <point x="257" y="561"/>
      <point x="431" y="561" type="curve" smooth="yes"/>
      <point x="605" y="561"/>
      <point x="716" y="477"/>
    </contour>
    <contour>
      <point x="551" y="404" type="curve"/>
      <point x="562" y="420" type="line"/>
      <point x="524" y="442"/>
      <point x="479" y="453"/>
      <point x="425" y="453" type="curve" smooth="yes"/>
      <point x="384" y="453"/>
      <point x="346" y="446"/>
      <point x="315" y="428" type="curve" smooth="yes"/>
      <point x="251" y="393"/>
      <point x="214" y="350"/>
      <point x="196" y="249" type="curve" smooth="yes"/>
      <point x="182" y="165"/>
      <point x="205" y="110"/>
      <point x="248" y="82" type="curve"/>
      <point x="293" y="58"/>
      <point x="340" y="58"/>
      <point x="361" y="58" type="curve" smooth="yes"/>
      <point x="413" y="58"/>
      <point x="468" y="68"/>
      <point x="528" y="90" type="curve"/>
      <point x="526" y="109" type="line"/>
      <point x="463" y="86"/>
      <point x="409" y="75"/>
      <point x="371" y="75" type="curve" smooth="yes"/>
      <point x="332" y="75"/>
      <point x="290" y="80"/>
      <point x="261" y="99" type="curve" smooth="yes"/>
      <point x="224" y="125"/>
      <point x="204" y="174"/>
      <point x="218" y="254" type="curve" smooth="yes"/>
      <point x="229" y="316"/>
      <point x="258" y="364"/>
      <point x="287" y="388" type="curve" smooth="yes"/>
      <point x="315" y="414"/>
      <point x="365" y="435"/>
      <point x="426" y="435" type="curve" smooth="yes"/>
      <point x="467" y="435"/>
      <point x="507" y="425"/>
    </contour>
  </outline>
</glyph>
<glyph name="ordfeminine" format="1">
  <advance width="285"/>
  <unicode hex="00AA"/>
  <outline>
    <contour>
      <point x="337" y="389" type="curve"/>
      <point x="337" y="391"/>
      <point x="366" y="553"/>
      <point x="366" y="553" type="curve"/>
      <point x="375" y="606"/>
      <point x="371" y="645"/>
      <point x="352" y="669" type="curve" smooth="yes"/>
      <point x="334" y="694"/>
      <point x="292" y="707"/>
      <point x="229" y="707" type="curve"/>
      <point x="223" y="691" type="line"/>
      <point x="279" y="690"/>
      <point x="316" y="680"/>
      <point x="337" y="658" type="curve" smooth="yes"/>
      <point x="353" y="639"/>
      <point x="358" y="609"/>
      <point x="351" y="568" type="curve"/>
      <point x="302" y="608"/>
      <point x="254" y="628"/>
      <point x="209" y="628" type="curve" smooth="yes"/>
      <point x="136" y="628"/>
      <point x="100" y="564"/>
      <point x="91" y="515" type="curve" smooth="yes"/>
      <point x="80" y="453"/>
      <point x="85" y="374"/>
      <point x="235" y="378" type="curve" smooth="yes"/>
      <point x="257" y="380"/>
      <point x="289" y="383"/>
    </contour>
    <contour>
      <point x="346" y="547" type="curve"/>
      <point x="321" y="404" type="line"/>
      <point x="255" y="395"/>
      <point x="173" y="389"/>
      <point x="138" y="414" type="curve" smooth="yes"/>
      <point x="105" y="436"/>
      <point x="102" y="468"/>
      <point x="110" y="512" type="curve" smooth="yes"/>
      <point x="116" y="549"/>
      <point x="142" y="612"/>
      <point x="207" y="612" type="curve" smooth="yes"/>
      <point x="250" y="612"/>
      <point x="297" y="590"/>
    </contour>
  </outline>
</glyph>
<glyph name="registered" format="1">
  <advance width="668"/>
  <unicode hex="00AE"/>
  <outline>
    <contour>
      <point x="682" y="191" type="curve" smooth="yes"/>
      <point x="705" y="319" type="line" smooth="yes"/>
      <point x="735" y="490"/>
      <point x="618" y="577"/>
      <point x="435" y="579" type="curve" smooth="yes"/>
      <point x="251" y="577"/>
      <point x="104" y="490"/>
      <point x="74" y="319" type="curve" smooth="yes"/>
      <point x="51" y="191" type="line" smooth="yes"/>
      <point x="21" y="20"/>
      <point x="138" y="-67"/>
      <point x="321" y="-68" type="curve" smooth="yes"/>
      <point x="505" y="-67"/>
      <point x="652" y="20"/>
    </contour>
    <contour>
      <point x="687" y="316" type="curve" smooth="yes"/>
      <point x="666" y="194" type="line" smooth="yes"/>
      <point x="637" y="33"/>
      <point x="498" y="-51"/>
      <point x="323" y="-52" type="curve" smooth="yes"/>
      <point x="150" y="-51"/>
      <point x="39" y="33"/>
      <point x="68" y="194" type="curve" smooth="yes"/>
      <point x="89" y="316" type="line" smooth="yes"/>
      <point x="118" y="477"/>
      <point x="257" y="561"/>
      <point x="431" y="561" type="curve" smooth="yes"/>
      <point x="605" y="561"/>
      <point x="716" y="477"/>
    </contour>
    <contour>
      <point x="251" y="442" type="line"/>
      <point x="184" y="59" type="line"/>
      <point x="204" y="59" type="line"/>
      <point x="231" y="212" type="line"/>
      <point x="444" y="212" type="line"/>
      <point x="500" y="59" type="line"/>
      <point x="520" y="59" type="line"/>
      <point x="465" y="215" type="line"/>
      <point x="521" y="219"/>
      <point x="557" y="246"/>
      <point x="571" y="328" type="curve" smooth="yes"/>
      <point x="586" y="418"/>
      <point x="549" y="442"/>
      <point x="486" y="442" type="curve" smooth="yes"/>
    </contour>
    <contour>
      <point x="457" y="232" type="curve" smooth="yes"/>
      <point x="234" y="232" type="line"/>
      <point x="268" y="422" type="line"/>
      <point x="491" y="422" type="line" smooth="yes"/>
      <point x="548" y="422"/>
      <point x="564" y="393"/>
      <point x="553" y="327" type="curve" smooth="yes"/>
      <point x="542" y="262"/>
      <point x="517" y="232"/>
    </contour>
  </outline>
</glyph>
<glyph name="degree" format="1">
  <advance width="324"/>
  <unicode hex="00B0"/>
  <outline>
    <contour>
      <point x="406" y="563" type="curve" smooth="yes"/>
      <point x="420" y="643"/>
      <point x="366" y="708"/>
      <point x="286" y="708" type="curve" smooth="yes"/>
      <point x="205" y="708"/>
      <point x="129" y="643"/>
      <point x="115" y="563" type="curve" smooth="yes"/>
      <point x="101" y="483"/>
      <point x="154" y="418"/>
      <point x="235" y="418" type="curve" smooth="yes"/>
      <point x="315" y="418"/>
      <point x="392" y="483"/>
    </contour>
    <contour>
      <point x="283" y="689" type="curve" smooth="yes"/>
      <point x="352" y="689"/>
      <point x="398" y="632"/>
      <point x="386" y="563" type="curve" smooth="yes"/>
      <point x="374" y="494"/>
      <point x="308" y="438"/>
      <point x="239" y="438" type="curve" smooth="yes"/>
      <point x="169" y="438"/>
      <point x="123" y="494"/>
      <point x="135" y="563" type="curve" smooth="yes"/>
      <point x="147" y="632"/>
      <point x="213" y="689"/>
    </contour>
  </outline>
</glyph>
<glyph name="plusminus" format="1">
  <advance width="356"/>
  <unicode hex="00B1"/>
  <outline>
    <contour>
      <point x="212" y="246" type="line"/>
      <point x="61" y="246" type="line"/>
      <point x="57" y="226" type="line"/>
      <point x="376" y="226" type="line"/>
      <point x="380" y="246" type="line"/>
      <point x="231" y="246" type="line"/>
      <point x="257" y="396" type="line"/>
      <point x="407" y="396" type="line"/>
      <point x="410" y="414" type="line"/>
      <point x="260" y="414" type="line"/>
      <point x="287" y="563" type="line"/>
      <point x="268" y="563" type="line"/>
      <point x="241" y="414" type="line"/>
      <point x="91" y="414" type="line"/>
      <point x="88" y="396" type="line"/>
      <point x="238" y="396" type="line"/>
    </contour>
  </outline>
</glyph>
<glyph name="paragraph" format="1">
  <advance width="572"/>
  <unicode hex="00B6"/>
  <outline>
    <contour>
      <point x="480" y="282" type="line"/>
      <point x="431" y="1" type="line"/>
      <point x="450" y="1" type="line"/>
      <point x="570" y="681" type="line"/>
      <point x="648" y="679" type="line"/>
      <point x="529" y="1" type="line"/>
      <point x="549" y="1" type="line"/>
      <point x="672" y="700" type="line"/>
      <point x="324" y="700" type="line" smooth="yes"/>
      <point x="198" y="700"/>
      <point x="128" y="624"/>
      <point x="104" y="493" type="curve" smooth="yes"/>
      <point x="80" y="356"/>
      <point x="124" y="282"/>
      <point x="257" y="282" type="curve" smooth="yes"/>
    </contour>
    <contour>
      <point x="319" y="680" type="curve" smooth="yes"/>
      <point x="550" y="680" type="line"/>
      <point x="483" y="300" type="line"/>
      <point x="262" y="300" type="line" smooth="yes"/>
      <point x="139" y="300"/>
      <point x="101" y="370"/>
      <point x="122" y="493" type="curve" smooth="yes"/>
      <point x="143" y="612"/>
      <point x="204" y="680"/>
    </contour>
  </outline>
</glyph>
<glyph name="cedilla" format="1">
  <advance width="341"/>
  <unicode hex="00B8"/>
  <outline>
    <contour>
      <point x="95" y="0" type="line"/>
      <point x="74" y="0" type="line"/>
      <point x="36" y="-46" type="line"/>
      <point x="33" y="-67" type="line"/>
      <point x="54" y="-67"/>
      <point x="74" y="-67"/>
      <point x="90" y="-67" type="curve" smooth="yes"/>
      <point x="132" y="-67"/>
      <point x="157" y="-96"/>
      <point x="150" y="-136" type="curve" smooth="yes"/>
      <point x="138" y="-199"/>
      <point x="82" y="-206"/>
      <point x="65" y="-207" type="curve" smooth="yes"/>
      <point x="13" y="-210"/>
      <point x="-26" y="-196"/>
      <point x="-26" y="-196" type="curve"/>
      <point x="-30" y="-204"/>
      <point x="-32" y="-206"/>
      <point x="-35" y="-213" type="curve"/>
      <point x="-3" y="-221"/>
      <point x="17" y="-227"/>
      <point x="63" y="-226" type="curve" smooth="yes"/>
      <point x="106" y="-223"/>
      <point x="158" y="-198"/>
      <point x="169" y="-136" type="curve" smooth="yes"/>
      <point x="177" y="-86"/>
      <point x="145" y="-46"/>
      <point x="93" y="-46" type="curve"/>
      <point x="88" y="-46"/>
      <point x="82" y="-46"/>
      <point x="59" y="-46" type="curve"/>
    </contour>
  </outline>
</glyph>
<glyph name="guillemotright" format="1">
  <advance width="458"/>
  <unicode hex="00BB"/>
  <outline>
    <contour>
      <point x="46" y="79" type="line"/>
      <point x="266" y="266" type="line"/>
      <point x="112" y="453" type="line"/>
      <point x="95" y="440" type="line"/>
      <point x="237" y="266" type="line"/>
      <point x="35" y="96" type="line"/>
    </contour>
    <contour>
      <point x="266" y="79" type="line"/>
      <point x="485" y="266" type="line"/>
      <point x="332" y="453" type="line"/>
      <point x="314" y="440" type="line"/>
      <point x="456" y="266" type="line"/>
      <point x="254" y="96" type="line"/>
    </contour>
  </outline>
</glyph>
<glyph name="questiondown" format="1">
  <advance width="389"/>
  <unicode hex="00BF"/>
  <outline>
    <contour>
      <point x="399" y="162" type="curve"/>
      <point x="379" y="162" type="line"/>
      <point x="360" y="53"/>
      <point x="271" y="3"/>
      <point x="194" y="3" type="curve" smooth="yes"/>
      <point x="98" y="3"/>
      <point x="48" y="76"/>
      <point x="62" y="157" type="curve" smooth="yes"/>
      <point x="72" y="210"/>
      <point x="97" y="246"/>
      <point x="150" y="299" type="curve" smooth="yes"/>
      <point x="235" y="382"/>
      <point x="285" y="398"/>
      <point x="304" y="505" type="curve" smooth="yes"/>
      <point x="316" y="573" type="line"/>
      <point x="297" y="573" type="line"/>
      <point x="297" y="573"/>
      <point x="288" y="522"/>
      <point x="283" y="499" type="curve" smooth="yes"/>
      <point x="270" y="421"/>
      <point x="243" y="404"/>
      <point x="147" y="319" type="curve" smooth="yes"/>
      <point x="96" y="273"/>
      <point x="58" y="229"/>
      <point x="45" y="156" type="curve" smooth="yes"/>
      <point x="26" y="46"/>
      <point x="103" y="-13"/>
      <point x="191" y="-15" type="curve" smooth="yes"/>
      <point x="278" y="-18"/>
      <point x="378" y="40"/>
    </contour>
    <contour>
      <point x="327" y="695" type="curve" smooth="yes"/>
      <point x="318" y="695"/>
      <point x="309" y="689"/>
      <point x="307" y="679" type="curve" smooth="yes"/>
      <point x="306" y="670"/>
      <point x="312" y="662"/>
      <point x="321" y="662" type="curve" smooth="yes"/>
      <point x="331" y="662"/>
      <point x="340" y="670"/>
      <point x="341" y="679" type="curve" smooth="yes"/>
      <point x="343" y="689"/>
      <point x="337" y="695"/>
    </contour>
  </outline>
</glyph>
<glyph name="Agrave" format="1">
  <advance width="512"/>
  <unicode hex="00C0"/>
  <outline>
    <contour>
      <point x="372" y="698" type="line"/>
      <point x="4" y="0" type="line"/>
      <point x="24" y="0" type="line"/>
      <point x="171" y="280" type="line"/>
      <point x="438" y="280" type="line"/>
      <point x="487" y="0" type="line"/>
      <point x="508" y="0" type="line"/>
      <point x="386" y="698" type="line"/>
    </contour>
    <contour>
      <point x="435" y="299" type="line"/>
      <point x="182" y="299" type="line"/>
      <point x="372" y="658" type="line"/>
    </contour>
    <contour>
      <point x="334" y="840" type="curve"/>
      <point x="371" y="740" type="line"/>
      <point x="392" y="740" type="line"/>
      <point x="361" y="855" type="line" smooth="yes"/>
      <point x="359" y="864"/>
      <point x="351" y="869"/>
      <point x="341" y="864" type="curve"/>
      <point x="331" y="859"/>
      <point x="329" y="849"/>
    </contour>
  </outline>
</glyph>
<glyph name="Aacute" format="1">
  <advance width="512"/>
  <unicode hex="00C1"/>
  <outline>
    <contour>
      <point x="372" y="698" type="line"/>
      <point x="4" y="0" type="line"/>
      <point x="24" y="0" type="line"/>
      <point x="171" y="280" type="line"/>
      <point x="438" y="280" type="line"/>
      <point x="487" y="0" type="line"/>
      <point x="508" y="0" type="line"/>
      <point x="386" y="698" type="line"/>
    </contour>
    <contour>
      <point x="435" y="299" type="line"/>
      <point x="182" y="299" type="line"/>
      <point x="372" y="658" type="line"/>
    </contour>
    <contour>
      <point x="459" y="871" type="curve" smooth="yes"/>
      <point x="378" y="741" type="line"/>
      <point x="402" y="741" type="line"/>
      <point x="484" y="856" type="line"/>
      <point x="492" y="865"/>
      <point x="494" y="877"/>
      <point x="485" y="882" type="curve" smooth="yes"/>
      <point x="477" y="887"/>
      <point x="465" y="881"/>
    </contour>
  </outline>
</glyph>
<glyph name="Acircumflex" format="1">
  <advance width="514"/>
  <unicode hex="00C2"/>
  <outline>
    <contour>
      <point x="373" y="698" type="line"/>
      <point x="5" y="0" type="line"/>
      <point x="25" y="0" type="line"/>
      <point x="172" y="280" type="line"/>
      <point x="440" y="280" type="line"/>
      <point x="488" y="0" type="line"/>
      <point x="509" y="0" type="line"/>
      <point x="387" y="698" type="line"/>
    </contour>
    <contour>
      <point x="436" y="299" type="line"/>
      <point x="183" y="299" type="line"/>
      <point x="373" y="658" type="line"/>
    </contour>
    <contour>
      <point x="412" y="846" type="line"/>
      <point x="499" y="741" type="line"/>
      <point x="517" y="757" type="line"/>
      <point x="417" y="875" type="line"/>
      <point x="274" y="756" type="line"/>
      <point x="285" y="741" type="line"/>
    </contour>
  </outline>
</glyph>
<glyph name="Atilde" format="1">
  <advance width="512"/>
  <unicode hex="00C3"/>
  <outline>
    <contour>
      <point x="372" y="698" type="line"/>
      <point x="4" y="0" type="line"/>
      <point x="24" y="0" type="line"/>
      <point x="171" y="280" type="line"/>
      <point x="438" y="280" type="line"/>
      <point x="487" y="0" type="line"/>
      <point x="508" y="0" type="line"/>
      <point x="386" y="698" type="line"/>
    </contour>
    <contour>
      <point x="435" y="299" type="line"/>
      <point x="182" y="299" type="line"/>
      <point x="372" y="658" type="line"/>
    </contour>
    <contour>
      <point x="516" y="787" type="curve"/>
      <point x="511" y="804" type="line"/>
      <point x="484" y="785"/>
      <point x="468" y="781"/>
      <point x="457" y="781" type="curve" smooth="yes"/>
      <point x="423" y="780"/>
      <point x="391" y="813"/>
      <point x="348" y="813" type="curve"/>
      <point x="328" y="812"/>
      <point x="305" y="805"/>
      <point x="281" y="783" type="curve"/>
      <point x="289" y="766" type="line"/>
      <point x="294" y="771"/>
      <point x="316" y="790"/>
      <point x="341" y="791" type="curve" smooth="yes"/>
      <point x="380" y="791"/>
      <point x="410" y="759"/>
      <point x="452" y="759" type="curve"/>
      <point x="472" y="760"/>
      <point x="493" y="767"/>
    </contour>
  </outline>
</glyph>
<glyph name="Adieresis" format="1">
  <advance width="512"/>
  <unicode hex="00C4"/>
  <outline>
    <contour>
      <point x="372" y="698" type="line"/>
      <point x="4" y="0" type="line"/>
      <point x="24" y="0" type="line"/>
      <point x="171" y="280" type="line"/>
      <point x="438" y="280" type="line"/>
      <point x="487" y="0" type="line"/>
      <point x="508" y="0" type="line"/>
      <point x="386" y="698" type="line"/>
    </contour>
    <contour>
      <point x="435" y="299" type="line"/>
      <point x="182" y="299" type="line"/>
      <point x="372" y="658" type="line"/>
    </contour>
    <contour>
      <point x="484" y="817" type="curve" smooth="yes"/>
      <point x="475" y="817"/>
      <point x="465" y="810"/>
      <point x="464" y="801" type="curve" smooth="yes"/>
      <point x="462" y="791"/>
      <point x="469" y="783"/>
      <point x="478" y="783" type="curve" smooth="yes"/>
      <point x="488" y="783"/>
      <point x="495" y="791"/>
      <point x="497" y="801" type="curve" smooth="yes"/>
      <point x="498" y="810"/>
      <point x="494" y="817"/>
    </contour>
    <contour>
      <point x="340" y="801" type="curve" smooth="yes"/>
      <point x="341" y="810"/>
      <point x="335" y="817"/>
      <point x="327" y="817" type="curve" smooth="yes"/>
      <point x="317" y="817"/>
      <point x="307" y="810"/>
      <point x="306" y="801" type="curve" smooth="yes"/>
      <point x="304" y="791"/>
      <point x="311" y="783"/>
      <point x="321" y="783" type="curve" smooth="yes"/>
      <point x="329" y="783"/>
      <point x="338" y="791"/>
    </contour>
  </outline>
</glyph>
<glyph name="Aring" format="1">
  <advance width="514"/>
  <unicode hex="00C5"/>
  <outline>
    <contour>
      <point x="360" y="674" type="line"/>
      <point x="5" y="0" type="line"/>
      <point x="25" y="0" type="line"/>
      <point x="172" y="279" type="line"/>
      <point x="440" y="279" type="line"/>
      <point x="488" y="0" type="line"/>
      <point x="509" y="0" type="line"/>
      <point x="391" y="674" type="line"/>
    </contour>
    <contour>
      <point x="436" y="299" type="line"/>
      <point x="183" y="299" type="line"/>
      <point x="373" y="658" type="line"/>
    </contour>
    <contour>
      <point x="372" y="660" type="curve" smooth="yes"/>
      <point x="436" y="660"/>
      <point x="496" y="711"/>
      <point x="507" y="773" type="curve" smooth="yes"/>
      <point x="518" y="836"/>
      <point x="476" y="888"/>
      <point x="412" y="888" type="curve" smooth="yes"/>
      <point x="350" y="888"/>
      <point x="290" y="836"/>
      <point x="279" y="773" type="curve" smooth="yes"/>
      <point x="268" y="711"/>
      <point x="310" y="660"/>
    </contour>
    <contour>
      <point x="487" y="773" type="curve" smooth="yes"/>
      <point x="478" y="722"/>
      <point x="428" y="680"/>
      <point x="375" y="680" type="curve" smooth="yes"/>
      <point x="324" y="680"/>
      <point x="290" y="722"/>
      <point x="299" y="773" type="curve" smooth="yes"/>
      <point x="308" y="826"/>
      <point x="358" y="868"/>
      <point x="409" y="868" type="curve" smooth="yes"/>
      <point x="462" y="868"/>
      <point x="496" y="826"/>
    </contour>
  </outline>
</glyph>
<glyph name="AE" format="1">
  <advance width="708"/>
  <unicode hex="00C6"/>
  <outline>
    <contour>
      <point x="701" y="20" type="line"/>
      <point x="389" y="20" type="line"/>
      <point x="455" y="393" type="line"/>
      <point x="675" y="393" type="line"/>
      <point x="686" y="413" type="line"/>
      <point x="458" y="413" type="line"/>
      <point x="505" y="678" type="line"/>
      <point x="817" y="678" type="line"/>
      <point x="821" y="698" type="line"/>
      <point x="397" y="698" type="line"/>
      <point x="3" y="0" type="line"/>
      <point x="25" y="0" type="line"/>
      <point x="182" y="279" type="line"/>
      <point x="415" y="279" type="line"/>
      <point x="366" y="0" type="line"/>
      <point x="698" y="0" type="line"/>
    </contour>
    <contour>
      <point x="485" y="678" type="line"/>
      <point x="418" y="299" type="line"/>
      <point x="192" y="299" type="line"/>
      <point x="405" y="678" type="line"/>
    </contour>
  </outline>
</glyph>
<glyph name="Egrave" format="1">
  <advance width="363"/>
  <unicode hex="00C8"/>
  <outline>
    <contour>
      <point x="355" y="19" type="line"/>
      <point x="43" y="19" type="line"/>
      <point x="109" y="393" type="line"/>
      <point x="330" y="393" type="line"/>
      <point x="339" y="411" type="line"/>
      <point x="112" y="411" type="line"/>
      <point x="159" y="679" type="line"/>
      <point x="473" y="679" type="line"/>
      <point x="477" y="698" type="line"/>
      <point x="144" y="698" type="line"/>
      <point x="21" y="0" type="line"/>
      <point x="352" y="0" type="line"/>
    </contour>
    <contour>
      <point x="268" y="843" type="curve" smooth="yes"/>
      <point x="306" y="743" type="line"/>
      <point x="328" y="743" type="line"/>
      <point x="296" y="857" type="line"/>
      <point x="294" y="866"/>
      <point x="285" y="871"/>
      <point x="276" y="866" type="curve"/>
      <point x="267" y="861"/>
      <point x="266" y="851"/>
    </contour>
  </outline>
</glyph>
<glyph name="Ecircumflex" format="1">
  <advance width="364"/>
  <unicode hex="00CA"/>
  <outline>
    <contour>
      <point x="356" y="19" type="line"/>
      <point x="44" y="19" type="line"/>
      <point x="110" y="393" type="line"/>
      <point x="331" y="393" type="line"/>
      <point x="340" y="411" type="line"/>
      <point x="113" y="411" type="line"/>
      <point x="160" y="679" type="line"/>
      <point x="474" y="679" type="line"/>
      <point x="478" y="698" type="line"/>
      <point x="145" y="698" type="line"/>
      <point x="22" y="0" type="line"/>
      <point x="353" y="0" type="line"/>
    </contour>
    <contour>
      <point x="339" y="847" type="line"/>
      <point x="426" y="743" type="line"/>
      <point x="443" y="758" type="line"/>
      <point x="344" y="876" type="line"/>
      <point x="200" y="758" type="line"/>
      <point x="212" y="744" type="line"/>
    </contour>
  </outline>
</glyph>
<glyph name="Edieresis" format="1">
  <advance width="364"/>
  <unicode hex="00CB"/>
  <outline>
    <contour>
      <point x="356" y="19" type="line"/>
      <point x="44" y="19" type="line"/>
      <point x="110" y="393" type="line"/>
      <point x="331" y="393" type="line"/>
      <point x="340" y="411" type="line"/>
      <point x="113" y="411" type="line"/>
      <point x="160" y="679" type="line"/>
      <point x="474" y="679" type="line"/>
      <point x="478" y="698" type="line"/>
      <point x="145" y="698" type="line"/>
      <point x="22" y="0" type="line"/>
      <point x="353" y="0" type="line"/>
    </contour>
    <contour>
      <point x="426" y="802" type="curve" smooth="yes"/>
      <point x="428" y="811"/>
      <point x="421" y="818"/>
      <point x="411" y="818" type="curve" smooth="yes"/>
      <point x="402" y="818"/>
      <point x="394" y="811"/>
      <point x="392" y="802" type="curve" smooth="yes"/>
      <point x="390" y="792"/>
      <point x="396" y="784"/>
      <point x="405" y="784" type="curve" smooth="yes"/>
      <point x="415" y="784"/>
      <point x="424" y="792"/>
    </contour>
    <contour>
      <point x="268" y="802" type="curve" smooth="yes"/>
      <point x="270" y="811"/>
      <point x="263" y="818"/>
      <point x="254" y="818" type="curve" smooth="yes"/>
      <point x="244" y="818"/>
      <point x="235" y="811"/>
      <point x="233" y="802" type="curve" smooth="yes"/>
      <point x="231" y="792"/>
      <point x="238" y="784"/>
      <point x="248" y="784" type="curve" smooth="yes"/>
      <point x="257" y="784"/>
      <point x="266" y="792"/>
    </contour>
  </outline>
</glyph>
<glyph name="Igrave" format="1">
  <advance width="159"/>
  <unicode hex="00CC"/>
  <outline>
    <contour>
      <point x="84" y="0" type="line"/>
      <point x="102" y="0" type="line"/>
      <point x="225" y="698" type="line"/>
      <point x="121" y="698" type="line"/>
      <point x="117" y="679" type="line"/>
      <point x="203" y="676" type="line"/>
    </contour>
    <contour>
      <point x="283" y="855" type="curve"/>
      <point x="211" y="740" type="line"/>
      <point x="232" y="740" type="line"/>
      <point x="305" y="840" type="line"/>
      <point x="312" y="849"/>
      <point x="314" y="859"/>
      <point x="306" y="864" type="curve"/>
      <point x="298" y="869"/>
      <point x="288" y="864"/>
    </contour>
  </outline>
</glyph>
<glyph name="Iacute" format="1">
  <advance width="159"/>
  <unicode hex="00CD"/>
  <outline>
    <contour>
      <point x="84" y="0" type="line"/>
      <point x="102" y="0" type="line"/>
      <point x="225" y="698" type="line"/>
      <point x="121" y="698" type="line"/>
      <point x="117" y="679" type="line"/>
      <point x="203" y="676" type="line"/>
    </contour>
    <contour>
      <point x="283" y="855" type="curve"/>
      <point x="211" y="740" type="line"/>
      <point x="233" y="740" type="line"/>
      <point x="306" y="840" type="line" smooth="yes"/>
      <point x="312" y="849"/>
      <point x="314" y="859"/>
      <point x="307" y="864" type="curve" smooth="yes"/>
      <point x="299" y="869"/>
      <point x="288" y="864"/>
    </contour>
  </outline>
</glyph>
<glyph name="Icircumflex" format="1">
  <advance width="215"/>
  <unicode hex="00CE"/>
  <outline>
    <contour>
      <point x="99" y="0" type="line"/>
      <point x="118" y="0" type="line"/>
      <point x="241" y="698" type="line"/>
      <point x="136" y="698" type="line"/>
      <point x="132" y="679" type="line"/>
      <point x="218" y="676" type="line"/>
    </contour>
    <contour>
      <point x="257" y="843" type="line"/>
      <point x="343" y="738" type="line"/>
      <point x="361" y="754" type="line"/>
      <point x="262" y="871" type="line"/>
      <point x="119" y="754" type="line"/>
      <point x="131" y="739" type="line"/>
    </contour>
  </outline>
</glyph>
<glyph name="Idieresis" format="1">
  <advance width="177"/>
  <unicode hex="00CF"/>
  <outline>
    <contour>
      <point x="102" y="0" type="line"/>
      <point x="121" y="0" type="line"/>
      <point x="244" y="698" type="line"/>
      <point x="139" y="698" type="line"/>
      <point x="135" y="679" type="line"/>
      <point x="221" y="676" type="line"/>
    </contour>
    <contour>
      <point x="305" y="817" type="curve" smooth="yes"/>
      <point x="296" y="817"/>
      <point x="286" y="810"/>
      <point x="285" y="800" type="curve" smooth="yes"/>
      <point x="283" y="791"/>
      <point x="290" y="783"/>
      <point x="299" y="783" type="curve" smooth="yes"/>
      <point x="308" y="783"/>
      <point x="317" y="791"/>
      <point x="319" y="800" type="curve" smooth="yes"/>
      <point x="320" y="810"/>
      <point x="314" y="817"/>
    </contour>
    <contour>
      <point x="147" y="817" type="curve" smooth="yes"/>
      <point x="137" y="817"/>
      <point x="128" y="810"/>
      <point x="127" y="800" type="curve" smooth="yes"/>
      <point x="125" y="791"/>
      <point x="131" y="783"/>
      <point x="141" y="783" type="curve" smooth="yes"/>
      <point x="150" y="783"/>
      <point x="159" y="791"/>
      <point x="161" y="800" type="curve" smooth="yes"/>
      <point x="162" y="810"/>
      <point x="156" y="817"/>
    </contour>
  </outline>
</glyph>
<glyph name="Eth" format="1">
  <advance width="457"/>
  <unicode hex="00D0"/>
  <outline>
    <contour>
      <point x="333" y="698" type="curve" smooth="yes"/>
      <point x="145" y="698" type="line"/>
      <point x="22" y="0" type="line"/>
      <point x="230" y="0" type="line" smooth="yes"/>
      <point x="371" y="0"/>
      <point x="452" y="67"/>
      <point x="476" y="199" type="curve" smooth="yes"/>
      <point x="524" y="473" type="line" smooth="yes"/>
      <point x="548" y="609"/>
      <point x="483" y="698"/>
    </contour>
    <contour>
      <point x="223" y="20" type="curve" smooth="yes"/>
      <point x="44" y="20" type="line"/>
      <point x="110" y="393" type="line"/>
      <point x="324" y="393" type="line"/>
      <point x="332" y="413" type="line"/>
      <point x="113" y="413" type="line"/>
      <point x="160" y="678" type="line"/>
      <point x="339" y="678" type="line" smooth="yes"/>
      <point x="474" y="678"/>
      <point x="526" y="592"/>
      <point x="504" y="466" type="curve" smooth="yes"/>
      <point x="459" y="213" type="line" smooth="yes"/>
      <point x="433" y="63"/>
      <point x="351" y="20"/>
    </contour>
  </outline>
</glyph>
<glyph name="Ntilde" format="1">
  <advance width="535"/>
  <unicode hex="00D1"/>
  <outline>
    <contour>
      <point x="500" y="32" type="line"/>
      <point x="161" y="698" type="line"/>
      <point x="144" y="698" type="line"/>
      <point x="21" y="0" type="line"/>
      <point x="38" y="0" type="line"/>
      <point x="155" y="668" type="line"/>
      <point x="495" y="0" type="line"/>
      <point x="512" y="0" type="line"/>
      <point x="635" y="698" type="line"/>
      <point x="618" y="698" type="line"/>
    </contour>
    <contour>
      <point x="524" y="794" type="curve"/>
      <point x="518" y="812" type="line"/>
      <point x="491" y="793"/>
      <point x="476" y="789"/>
      <point x="465" y="789" type="curve" smooth="yes"/>
      <point x="429" y="788"/>
      <point x="397" y="822"/>
      <point x="354" y="821" type="curve" smooth="yes"/>
      <point x="334" y="820"/>
      <point x="312" y="813"/>
      <point x="287" y="791" type="curve"/>
      <point x="295" y="773" type="line"/>
      <point x="302" y="779"/>
      <point x="323" y="798"/>
      <point x="348" y="799" type="curve" smooth="yes"/>
      <point x="386" y="799"/>
      <point x="418" y="767"/>
      <point x="459" y="768" type="curve" smooth="yes"/>
      <point x="478" y="768"/>
      <point x="499" y="774"/>
    </contour>
  </outline>
</glyph>
<glyph name="Otilde" format="1">
  <advance width="449"/>
  <unicode hex="00D5"/>
  <outline>
    <contour>
      <point x="103" y="506" type="curve" smooth="yes"/>
      <point x="46" y="185" type="line" smooth="yes"/>
      <point x="23" y="56"/>
      <point x="105" y="-11"/>
      <point x="222" y="-11" type="curve" smooth="yes"/>
      <point x="347" y="-11"/>
      <point x="443" y="63"/>
      <point x="464" y="185" type="curve" smooth="yes"/>
      <point x="521" y="505" type="line" smooth="yes"/>
      <point x="543" y="635"/>
      <point x="481" y="714"/>
      <point x="351" y="714" type="curve" smooth="yes"/>
      <point x="219" y="714"/>
      <point x="127" y="642"/>
    </contour>
    <contour>
      <point x="65" y="184" type="curve" smooth="yes"/>
      <point x="122" y="506" type="line" smooth="yes"/>
      <point x="142" y="621"/>
      <point x="219" y="693"/>
      <point x="345" y="693" type="curve" smooth="yes"/>
      <point x="472" y="693"/>
      <point x="524" y="624"/>
      <point x="503" y="508" type="curve" smooth="yes"/>
      <point x="446" y="184" type="line" smooth="yes"/>
      <point x="425" y="66"/>
      <point x="332" y="8"/>
      <point x="225" y="8" type="curve" smooth="yes"/>
      <point x="118" y="8"/>
      <point x="46" y="77"/>
    </contour>
    <contour>
      <point x="479" y="787" type="curve"/>
      <point x="473" y="804" type="line"/>
      <point x="447" y="785"/>
      <point x="431" y="781"/>
      <point x="420" y="781" type="curve" smooth="yes"/>
      <point x="386" y="780"/>
      <point x="353" y="813"/>
      <point x="310" y="812" type="curve" smooth="yes"/>
      <point x="290" y="812"/>
      <point x="268" y="805"/>
      <point x="244" y="783" type="curve"/>
      <point x="251" y="765" type="line"/>
      <point x="257" y="771"/>
      <point x="279" y="790"/>
      <point x="304" y="790" type="curve" smooth="yes"/>
      <point x="343" y="791"/>
      <point x="373" y="758"/>
      <point x="415" y="759" type="curve" smooth="yes"/>
      <point x="433" y="759"/>
      <point x="454" y="766"/>
    </contour>
  </outline>
</glyph>
<glyph name="Odieresis" format="1">
  <advance width="449"/>
  <unicode hex="00D6"/>
  <outline>
    <contour>
      <point x="103" y="506" type="curve" smooth="yes"/>
      <point x="46" y="185" type="line" smooth="yes"/>
      <point x="23" y="56"/>
      <point x="105" y="-11"/>
      <point x="222" y="-11" type="curve" smooth="yes"/>
      <point x="347" y="-11"/>
      <point x="443" y="63"/>
      <point x="464" y="185" type="curve" smooth="yes"/>
      <point x="521" y="505" type="line" smooth="yes"/>
      <point x="543" y="635"/>
      <point x="481" y="714"/>
      <point x="351" y="714" type="curve" smooth="yes"/>
      <point x="219" y="714"/>
      <point x="127" y="642"/>
    </contour>
    <contour>
      <point x="65" y="184" type="curve" smooth="yes"/>
      <point x="122" y="506" type="line" smooth="yes"/>
      <point x="142" y="621"/>
      <point x="219" y="693"/>
      <point x="345" y="693" type="curve" smooth="yes"/>
      <point x="472" y="693"/>
      <point x="524" y="624"/>
      <point x="503" y="508" type="curve" smooth="yes"/>
      <point x="446" y="184" type="line" smooth="yes"/>
      <point x="425" y="66"/>
      <point x="332" y="8"/>
      <point x="225" y="8" type="curve" smooth="yes"/>
      <point x="118" y="8"/>
      <point x="46" y="77"/>
    </contour>
    <contour>
      <point x="447" y="827" type="curve" smooth="yes"/>
      <point x="438" y="827"/>
      <point x="429" y="820"/>
      <point x="427" y="810" type="curve" smooth="yes"/>
      <point x="426" y="801"/>
      <point x="432" y="793"/>
      <point x="441" y="793" type="curve" smooth="yes"/>
      <point x="450" y="793"/>
      <point x="460" y="801"/>
      <point x="461" y="810" type="curve" smooth="yes"/>
      <point x="463" y="820"/>
      <point x="456" y="827"/>
    </contour>
    <contour>
      <point x="289" y="827" type="curve" smooth="yes"/>
      <point x="280" y="827"/>
      <point x="272" y="820"/>
      <point x="270" y="810" type="curve" smooth="yes"/>
      <point x="269" y="801"/>
      <point x="274" y="793"/>
      <point x="283" y="793" type="curve" smooth="yes"/>
      <point x="293" y="793"/>
      <point x="303" y="801"/>
      <point x="304" y="810" type="curve" smooth="yes"/>
      <point x="306" y="820"/>
      <point x="299" y="827"/>
    </contour>
  </outline>
</glyph>
<glyph name="multiply" format="1">
  <advance width="296"/>
  <unicode hex="00D7"/>
  <outline>
    <contour>
      <point x="101" y="472" type="line"/>
      <point x="193" y="329" type="line"/>
      <point x="53" y="190" type="line"/>
      <point x="65" y="179" type="line"/>
      <point x="202" y="315" type="line"/>
      <point x="289" y="179" type="line"/>
      <point x="309" y="193" type="line"/>
      <point x="219" y="330" type="line"/>
      <point x="359" y="470" type="line"/>
      <point x="348" y="483" type="line"/>
      <point x="208" y="343" type="line"/>
      <point x="116" y="484" type="line"/>
    </contour>
  </outline>
</glyph>
<glyph name="Udieresis" format="1">
  <advance width="455"/>
  <unicode hex="00DC"/>
  <outline>
    <contour>
      <point x="468" y="185" type="curve" smooth="yes"/>
      <point x="559" y="698" type="line"/>
      <point x="540" y="698" type="line"/>
      <point x="449" y="184" type="line" smooth="yes"/>
      <point x="438" y="122"/>
      <point x="412" y="78"/>
      <point x="370" y="50" type="curve" smooth="yes"/>
      <point x="329" y="22"/>
      <point x="281" y="8"/>
      <point x="229" y="8" type="curve" smooth="yes"/>
      <point x="176" y="8"/>
      <point x="133" y="23"/>
      <point x="101" y="52" type="curve" smooth="yes"/>
      <point x="69" y="81"/>
      <point x="58" y="125"/>
      <point x="68" y="184" type="curve" smooth="yes"/>
      <point x="159" y="698" type="line"/>
      <point x="141" y="698" type="line"/>
      <point x="50" y="185" type="line" smooth="yes"/>
      <point x="38" y="118"/>
      <point x="49" y="68"/>
      <point x="85" y="36" type="curve" smooth="yes"/>
      <point x="121" y="4"/>
      <point x="168" y="-11"/>
      <point x="226" y="-11" type="curve" smooth="yes"/>
      <point x="282" y="-11"/>
      <point x="333" y="4"/>
      <point x="380" y="36" type="curve" smooth="yes"/>
      <point x="426" y="68"/>
      <point x="456" y="118"/>
    </contour>
    <contour>
      <point x="463" y="803" type="curve" smooth="yes"/>
      <point x="465" y="812"/>
      <point x="459" y="820"/>
      <point x="450" y="820" type="curve" smooth="yes"/>
      <point x="440" y="820"/>
      <point x="431" y="812"/>
      <point x="429" y="803" type="curve" smooth="yes"/>
      <point x="427" y="793"/>
      <point x="434" y="787"/>
      <point x="444" y="787" type="curve" smooth="yes"/>
      <point x="453" y="787"/>
      <point x="461" y="793"/>
    </contour>
    <contour>
      <point x="305" y="803" type="curve" smooth="yes"/>
      <point x="307" y="812"/>
      <point x="301" y="820"/>
      <point x="291" y="820" type="curve" smooth="yes"/>
      <point x="283" y="820"/>
      <point x="274" y="812"/>
      <point x="272" y="803" type="curve" smooth="yes"/>
      <point x="270" y="793"/>
      <point x="277" y="787"/>
      <point x="285" y="787" type="curve" smooth="yes"/>
      <point x="295" y="787"/>
      <point x="303" y="793"/>
    </contour>
  </outline>
</glyph>
<glyph name="Thorn" format="1">
  <advance width="361"/>
  <unicode hex="00DE"/>
  <outline>
    <contour>
      <point x="399" y="289" type="curve" smooth="yes"/>
      <point x="425" y="435" type="line" smooth="yes"/>
      <point x="430" y="479"/>
      <point x="429" y="510"/>
      <point x="416" y="542" type="curve" smooth="yes"/>
      <point x="399" y="586"/>
      <point x="363" y="610"/>
      <point x="321" y="620" type="curve" smooth="yes"/>
      <point x="269" y="631"/>
      <point x="205" y="621"/>
      <point x="146" y="597" type="curve"/>
      <point x="164" y="698" type="line"/>
      <point x="145" y="698" type="line"/>
      <point x="22" y="0" type="line"/>
      <point x="41" y="0" type="line"/>
      <point x="61" y="119" type="line"/>
      <point x="122" y="102"/>
      <point x="199" y="100"/>
      <point x="258" y="118" type="curve" smooth="yes"/>
      <point x="329" y="140"/>
      <point x="382" y="191"/>
    </contour>
    <contour>
      <point x="311" y="602" type="curve" smooth="yes"/>
      <point x="350" y="593"/>
      <point x="382" y="570"/>
      <point x="398" y="532" type="curve" smooth="yes"/>
      <point x="410" y="506"/>
      <point x="413" y="471"/>
      <point x="405" y="429" type="curve" smooth="yes"/>
      <point x="381" y="291" type="line" smooth="yes"/>
      <point x="367" y="215"/>
      <point x="335" y="161"/>
      <point x="259" y="137" type="curve" smooth="yes"/>
      <point x="178" y="112"/>
      <point x="89" y="131"/>
      <point x="65" y="137" type="curve"/>
      <point x="142" y="574" type="line"/>
      <point x="203" y="603"/>
      <point x="262" y="612"/>
    </contour>
  </outline>
</glyph>
<glyph name="germandbls" format="1">
  <advance width="428"/>
  <unicode hex="00DF"/>
  <outline>
    <contour>
      <point x="40" y="0" type="curve"/>
      <point x="135" y="539" type="line" smooth="yes"/>
      <point x="151" y="634"/>
      <point x="195" y="680"/>
      <point x="266" y="680" type="curve" smooth="yes"/>
      <point x="330" y="680"/>
      <point x="356" y="628"/>
      <point x="350" y="582" type="curve" smooth="yes"/>
      <point x="344" y="542"/>
      <point x="313" y="505"/>
      <point x="259" y="505" type="curve"/>
      <point x="244" y="483"/>
      <point x="236" y="463"/>
      <point x="233" y="446" type="curve" smooth="yes"/>
      <point x="222" y="380"/>
      <point x="280" y="339"/>
      <point x="336" y="294" type="curve" smooth="yes"/>
      <point x="386" y="253"/>
      <point x="436" y="220"/>
      <point x="422" y="137" type="curve" smooth="yes"/>
      <point x="412" y="85"/>
      <point x="373" y="9"/>
      <point x="257" y="9" type="curve" smooth="yes"/>
      <point x="179" y="9"/>
      <point x="138" y="55"/>
      <point x="138" y="55" type="curve"/>
      <point x="132" y="50"/>
      <point x="126" y="43"/>
      <point x="120" y="36" type="curve"/>
      <point x="120" y="36"/>
      <point x="160" y="-11"/>
      <point x="261" y="-11" type="curve" smooth="yes"/>
      <point x="361" y="-11"/>
      <point x="429" y="58"/>
      <point x="441" y="135" type="curve" smooth="yes"/>
      <point x="449" y="183"/>
      <point x="436" y="233"/>
      <point x="395" y="272" type="curve" smooth="yes"/>
      <point x="324" y="333"/>
      <point x="243" y="377"/>
      <point x="251" y="443" type="curve" smooth="yes"/>
      <point x="252" y="458"/>
      <point x="258" y="474"/>
      <point x="270" y="492" type="curve"/>
      <point x="273" y="492"/>
      <point x="277" y="492"/>
      <point x="281" y="492" type="curve"/>
      <point x="330" y="499"/>
      <point x="360" y="540"/>
      <point x="367" y="583" type="curve" smooth="yes"/>
      <point x="377" y="636"/>
      <point x="342" y="698"/>
      <point x="269" y="698" type="curve" smooth="yes"/>
      <point x="209" y="698"/>
      <point x="137" y="665"/>
      <point x="115" y="541" type="curve" smooth="yes"/>
      <point x="80" y="343"/>
      <point x="49" y="170"/>
      <point x="20" y="0" type="curve"/>
      <point x="26" y="0"/>
      <point x="33" y="0"/>
    </contour>
  </outline>
</glyph>
<glyph name="acircumflex" format="1">
  <advance width="409"/>
  <unicode hex="00E2"/>
  <outline>
    <contour>
      <point x="434" y="345" type="curve"/>
      <point x="380" y="374"/>
      <point x="314" y="403"/>
      <point x="241" y="403" type="curve" smooth="yes"/>
      <point x="107" y="403"/>
      <point x="64" y="315"/>
      <point x="53" y="251" type="curve"/>
      <point x="53" y="251"/>
      <point x="38" y="168"/>
      <point x="38" y="168" type="curve"/>
      <point x="17" y="50"/>
      <point x="66" y="-10"/>
      <point x="211" y="-10" type="curve" smooth="yes"/>
      <point x="252" y="-10"/>
      <point x="393" y="0"/>
      <point x="393" y="0" type="curve"/>
      <point x="393" y="0"/>
      <point x="430" y="212"/>
      <point x="452" y="335" type="curve" smooth="yes"/>
      <point x="462" y="395"/>
      <point x="450" y="441"/>
      <point x="414" y="470" type="curve" smooth="yes"/>
      <point x="385" y="495"/>
      <point x="339" y="507"/>
      <point x="274" y="507" type="curve"/>
      <point x="270" y="488" type="line"/>
      <point x="338" y="488"/>
      <point x="373" y="477"/>
      <point x="399" y="457" type="curve" smooth="yes"/>
      <point x="430" y="431"/>
      <point x="443" y="392"/>
    </contour>
    <contour>
      <point x="430" y="322" type="curve"/>
      <point x="430" y="322"/>
      <point x="377" y="18"/>
      <point x="377" y="18" type="curve"/>
      <point x="377" y="18"/>
      <point x="261" y="8"/>
      <point x="214" y="8" type="curve" smooth="yes"/>
      <point x="57" y="4"/>
      <point x="43" y="90"/>
      <point x="56" y="162" type="curve" smooth="yes"/>
      <point x="60" y="185"/>
      <point x="66" y="221"/>
      <point x="71" y="249" type="curve" smooth="yes"/>
      <point x="84" y="323"/>
      <point x="133" y="383"/>
      <point x="236" y="383" type="curve" smooth="yes"/>
      <point x="309" y="383"/>
      <point x="367" y="358"/>
    </contour>
    <contour>
      <point x="316" y="650" type="line"/>
      <point x="403" y="546" type="line"/>
      <point x="420" y="561" type="line"/>
      <point x="321" y="679" type="line"/>
      <point x="177" y="561" type="line"/>
      <point x="190" y="547" type="line"/>
    </contour>
  </outline>
</glyph>
<glyph name="atilde" format="1">
  <advance width="408"/>
  <unicode hex="00E3"/>
  <outline>
    <contour>
      <point x="433" y="345" type="curve"/>
      <point x="378" y="374"/>
      <point x="313" y="403"/>
      <point x="240" y="403" type="curve" smooth="yes"/>
      <point x="106" y="403"/>
      <point x="63" y="315"/>
      <point x="52" y="251" type="curve"/>
      <point x="52" y="251"/>
      <point x="37" y="168"/>
      <point x="37" y="168" type="curve"/>
      <point x="16" y="50"/>
      <point x="65" y="-10"/>
      <point x="210" y="-10" type="curve" smooth="yes"/>
      <point x="251" y="-10"/>
      <point x="392" y="0"/>
      <point x="392" y="0" type="curve"/>
      <point x="392" y="0"/>
      <point x="429" y="212"/>
      <point x="451" y="335" type="curve" smooth="yes"/>
      <point x="461" y="395"/>
      <point x="449" y="441"/>
      <point x="413" y="470" type="curve" smooth="yes"/>
      <point x="384" y="495"/>
      <point x="338" y="507"/>
      <point x="273" y="507" type="curve"/>
      <point x="269" y="488" type="line"/>
      <point x="337" y="488"/>
      <point x="372" y="477"/>
      <point x="398" y="457" type="curve" smooth="yes"/>
      <point x="429" y="431"/>
      <point x="442" y="392"/>
    </contour>
    <contour>
      <point x="429" y="322" type="curve"/>
      <point x="429" y="322"/>
      <point x="376" y="18"/>
      <point x="376" y="18" type="curve"/>
      <point x="376" y="18"/>
      <point x="259" y="8"/>
      <point x="213" y="8" type="curve" smooth="yes"/>
      <point x="56" y="4"/>
      <point x="41" y="90"/>
      <point x="54" y="162" type="curve" smooth="yes"/>
      <point x="58" y="185"/>
      <point x="64" y="221"/>
      <point x="69" y="249" type="curve" smooth="yes"/>
      <point x="82" y="323"/>
      <point x="132" y="383"/>
      <point x="235" y="383" type="curve" smooth="yes"/>
      <point x="308" y="383"/>
      <point x="365" y="358"/>
    </contour>
    <contour>
      <point x="422" y="595" type="curve"/>
      <point x="416" y="613" type="line"/>
      <point x="390" y="594"/>
      <point x="373" y="590"/>
      <point x="364" y="590" type="curve" smooth="yes"/>
      <point x="329" y="588"/>
      <point x="295" y="623"/>
      <point x="253" y="621" type="curve" smooth="yes"/>
      <point x="232" y="620"/>
      <point x="210" y="614"/>
      <point x="186" y="592" type="curve"/>
      <point x="195" y="574" type="line"/>
      <point x="200" y="580"/>
      <point x="222" y="598"/>
      <point x="247" y="599" type="curve" smooth="yes"/>
      <point x="285" y="599"/>
      <point x="317" y="568"/>
      <point x="357" y="568" type="curve"/>
      <point x="376" y="569"/>
      <point x="397" y="575"/>
    </contour>
  </outline>
</glyph>
<glyph name="adieresis" format="1">
  <advance width="408"/>
  <unicode hex="00E4"/>
  <outline>
    <contour>
      <point x="433" y="345" type="curve"/>
      <point x="378" y="374"/>
      <point x="313" y="403"/>
      <point x="240" y="403" type="curve" smooth="yes"/>
      <point x="106" y="403"/>
      <point x="63" y="315"/>
      <point x="52" y="251" type="curve"/>
      <point x="52" y="251"/>
      <point x="37" y="168"/>
      <point x="37" y="168" type="curve"/>
      <point x="16" y="50"/>
      <point x="65" y="-10"/>
      <point x="210" y="-10" type="curve" smooth="yes"/>
      <point x="251" y="-10"/>
      <point x="392" y="0"/>
      <point x="392" y="0" type="curve"/>
      <point x="392" y="0"/>
      <point x="429" y="212"/>
      <point x="451" y="335" type="curve" smooth="yes"/>
      <point x="461" y="395"/>
      <point x="449" y="441"/>
      <point x="413" y="470" type="curve" smooth="yes"/>
      <point x="384" y="495"/>
      <point x="338" y="507"/>
      <point x="273" y="507" type="curve"/>
      <point x="269" y="488" type="line"/>
      <point x="337" y="488"/>
      <point x="372" y="477"/>
      <point x="398" y="457" type="curve" smooth="yes"/>
      <point x="429" y="431"/>
      <point x="442" y="392"/>
    </contour>
    <contour>
      <point x="429" y="322" type="curve"/>
      <point x="429" y="322"/>
      <point x="376" y="18"/>
      <point x="376" y="18" type="curve"/>
      <point x="376" y="18"/>
      <point x="259" y="8"/>
      <point x="213" y="8" type="curve" smooth="yes"/>
      <point x="56" y="4"/>
      <point x="41" y="90"/>
      <point x="54" y="162" type="curve" smooth="yes"/>
      <point x="58" y="185"/>
      <point x="64" y="221"/>
      <point x="69" y="249" type="curve" smooth="yes"/>
      <point x="82" y="323"/>
      <point x="132" y="383"/>
      <point x="235" y="383" type="curve" smooth="yes"/>
      <point x="308" y="383"/>
      <point x="365" y="358"/>
    </contour>
    <contour>
      <point x="387" y="625" type="curve" smooth="yes"/>
      <point x="378" y="625"/>
      <point x="369" y="617"/>
      <point x="368" y="607" type="curve" smooth="yes"/>
      <point x="366" y="598"/>
      <point x="372" y="591"/>
      <point x="381" y="591" type="curve" smooth="yes"/>
      <point x="391" y="591"/>
      <point x="400" y="598"/>
      <point x="402" y="607" type="curve" smooth="yes"/>
      <point x="403" y="617"/>
      <point x="397" y="625"/>
    </contour>
    <contour>
      <point x="230" y="625" type="curve" smooth="yes"/>
      <point x="220" y="625"/>
      <point x="211" y="617"/>
      <point x="210" y="607" type="curve" smooth="yes"/>
      <point x="208" y="598"/>
      <point x="214" y="591"/>
      <point x="224" y="591" type="curve" smooth="yes"/>
      <point x="233" y="591"/>
      <point x="241" y="598"/>
      <point x="243" y="607" type="curve" smooth="yes"/>
      <point x="244" y="617"/>
      <point x="239" y="625"/>
    </contour>
  </outline>
</glyph>
<glyph name="aring" format="1">
  <advance width="410"/>
  <unicode hex="00E5"/>
  <outline>
    <contour>
      <point x="435" y="345" type="curve"/>
      <point x="381" y="374"/>
      <point x="315" y="403"/>
      <point x="243" y="403" type="curve" smooth="yes"/>
      <point x="108" y="403"/>
      <point x="65" y="315"/>
      <point x="54" y="251" type="curve"/>
      <point x="54" y="251"/>
      <point x="39" y="168"/>
      <point x="39" y="168" type="curve"/>
      <point x="18" y="50"/>
      <point x="67" y="-10"/>
      <point x="213" y="-10" type="curve" smooth="yes"/>
      <point x="253" y="-10"/>
      <point x="394" y="0"/>
      <point x="394" y="0" type="curve"/>
      <point x="394" y="0"/>
      <point x="431" y="212"/>
      <point x="453" y="335" type="curve" smooth="yes"/>
      <point x="463" y="395"/>
      <point x="451" y="441"/>
      <point x="415" y="470" type="curve" smooth="yes"/>
      <point x="386" y="495"/>
      <point x="340" y="507"/>
      <point x="275" y="507" type="curve"/>
      <point x="271" y="488" type="line"/>
      <point x="339" y="488"/>
      <point x="374" y="477"/>
      <point x="400" y="457" type="curve" smooth="yes"/>
      <point x="431" y="431"/>
      <point x="444" y="392"/>
    </contour>
    <contour>
      <point x="431" y="322" type="curve"/>
      <point x="431" y="322"/>
      <point x="378" y="18"/>
      <point x="378" y="18" type="curve"/>
      <point x="378" y="18"/>
      <point x="262" y="8"/>
      <point x="216" y="8" type="curve" smooth="yes"/>
      <point x="58" y="4"/>
      <point x="44" y="90"/>
      <point x="57" y="162" type="curve" smooth="yes"/>
      <point x="61" y="185"/>
      <point x="67" y="221"/>
      <point x="72" y="249" type="curve" smooth="yes"/>
      <point x="85" y="323"/>
      <point x="134" y="383"/>
      <point x="237" y="383" type="curve" smooth="yes"/>
      <point x="310" y="383"/>
      <point x="368" y="358"/>
    </contour>
    <contour>
      <point x="275" y="490" type="curve" smooth="yes"/>
      <point x="338" y="490"/>
      <point x="397" y="540"/>
      <point x="408" y="603" type="curve" smooth="yes"/>
      <point x="419" y="665"/>
      <point x="378" y="716"/>
      <point x="315" y="716" type="curve" smooth="yes"/>
      <point x="253" y="716"/>
      <point x="193" y="665"/>
      <point x="182" y="603" type="curve" smooth="yes"/>
      <point x="171" y="540"/>
      <point x="213" y="490"/>
    </contour>
    <contour>
      <point x="390" y="603" type="curve" smooth="yes"/>
      <point x="381" y="551"/>
      <point x="330" y="509"/>
      <point x="278" y="509" type="curve" smooth="yes"/>
      <point x="226" y="509"/>
      <point x="192" y="551"/>
      <point x="201" y="603" type="curve" smooth="yes"/>
      <point x="210" y="654"/>
      <point x="259" y="697"/>
      <point x="311" y="697" type="curve" smooth="yes"/>
      <point x="363" y="697"/>
      <point x="399" y="654"/>
    </contour>
  </outline>
</glyph>
<glyph name="ae" format="1">
  <advance width="751"/>
  <unicode hex="00E6"/>
  <outline>
    <contour>
      <point x="420" y="132" type="curve" smooth="yes"/>
      <point x="437" y="229" type="line"/>
      <point x="781" y="246" type="line"/>
      <point x="798" y="341" type="line" smooth="yes"/>
      <point x="816" y="448"/>
      <point x="761" y="508"/>
      <point x="651" y="508" type="curve" smooth="yes"/>
      <point x="561" y="508"/>
      <point x="486" y="465"/>
      <point x="453" y="391" type="curve"/>
      <point x="446" y="465"/>
      <point x="388" y="507"/>
      <point x="273" y="507" type="curve"/>
      <point x="272" y="501"/>
      <point x="270" y="495"/>
      <point x="269" y="488" type="curve"/>
      <point x="412" y="488"/>
      <point x="448" y="426"/>
      <point x="433" y="345" type="curve"/>
      <point x="378" y="374"/>
      <point x="313" y="403"/>
      <point x="240" y="403" type="curve" smooth="yes"/>
      <point x="106" y="403"/>
      <point x="63" y="315"/>
      <point x="52" y="251" type="curve" smooth="yes"/>
      <point x="37" y="168" type="line" smooth="yes"/>
      <point x="16" y="50"/>
      <point x="65" y="-10"/>
      <point x="210" y="-10" type="curve" smooth="yes"/>
      <point x="250" y="-10"/>
      <point x="392" y="0"/>
      <point x="392" y="0" type="curve"/>
      <point x="403" y="64" type="line"/>
      <point x="418" y="13"/>
      <point x="467" y="-12"/>
      <point x="549" y="-12" type="curve" smooth="yes"/>
      <point x="605" y="-12"/>
      <point x="662" y="4"/>
      <point x="719" y="35" type="curve"/>
      <point x="713" y="52" type="line"/>
      <point x="650" y="20"/>
      <point x="605" y="7"/>
      <point x="551" y="7" type="curve" smooth="yes"/>
      <point x="463" y="7"/>
      <point x="404" y="41"/>
    </contour>
    <contour>
      <point x="429" y="322" type="curve"/>
      <point x="376" y="18" type="line"/>
      <point x="376" y="18"/>
      <point x="259" y="8"/>
      <point x="213" y="8" type="curve" smooth="yes"/>
      <point x="56" y="4"/>
      <point x="41" y="90"/>
      <point x="54" y="162" type="curve" smooth="yes"/>
      <point x="69" y="249" type="line" smooth="yes"/>
      <point x="82" y="323"/>
      <point x="132" y="383"/>
      <point x="235" y="383" type="curve" smooth="yes"/>
      <point x="308" y="383"/>
      <point x="365" y="358"/>
    </contour>
    <contour>
      <point x="778" y="342" type="curve" smooth="yes"/>
      <point x="764" y="264" type="line"/>
      <point x="440" y="248" type="line"/>
      <point x="455" y="332" type="line" smooth="yes"/>
      <point x="478" y="462"/>
      <point x="577" y="491"/>
      <point x="645" y="491" type="curve" smooth="yes"/>
      <point x="716" y="491"/>
      <point x="799" y="462"/>
    </contour>
  </outline>
</glyph>
<glyph name="ccedilla" format="1">
  <advance width="342"/>
  <unicode hex="00E7"/>
  <outline>
    <contour>
      <point x="402" y="457" type="curve"/>
      <point x="412" y="476" type="line"/>
      <point x="359" y="504"/>
      <point x="295" y="516"/>
      <point x="235" y="504" type="curve" smooth="yes"/>
      <point x="189" y="494"/>
      <point x="146" y="470"/>
      <point x="112" y="426" type="curve" smooth="yes"/>
      <point x="88" y="394"/>
      <point x="75" y="362"/>
      <point x="66" y="318" type="curve"/>
      <point x="40" y="173" type="line" smooth="yes"/>
      <point x="23" y="75"/>
      <point x="58" y="23"/>
      <point x="122" y="1" type="curve" smooth="yes"/>
      <point x="178" y="-18"/>
      <point x="261" y="-13"/>
      <point x="331" y="5" type="curve"/>
      <point x="331" y="25" type="line"/>
      <point x="331" y="25"/>
      <point x="210" y="-9"/>
      <point x="126" y="21" type="curve" smooth="yes"/>
      <point x="59" y="45"/>
      <point x="46" y="98"/>
      <point x="59" y="175" type="curve" smooth="yes"/>
      <point x="84" y="312" type="line" smooth="yes"/>
      <point x="91" y="355"/>
      <point x="106" y="389"/>
      <point x="128" y="416" type="curve" smooth="yes"/>
      <point x="156" y="453"/>
      <point x="195" y="476"/>
      <point x="239" y="485" type="curve" smooth="yes"/>
      <point x="292" y="496"/>
      <point x="349" y="486"/>
    </contour>
    <contour>
      <point x="171" y="-47" type="curve" smooth="yes"/>
      <point x="167" y="-47"/>
      <point x="163" y="-47"/>
      <point x="137" y="-47" type="curve"/>
      <point x="173" y="0" type="line"/>
      <point x="152" y="0" type="line"/>
      <point x="114" y="-47" type="line"/>
      <point x="111" y="-67" type="line"/>
      <point x="132" y="-67"/>
      <point x="152" y="-67"/>
      <point x="168" y="-67" type="curve" smooth="yes"/>
      <point x="210" y="-67"/>
      <point x="235" y="-96"/>
      <point x="228" y="-136" type="curve" smooth="yes"/>
      <point x="216" y="-199"/>
      <point x="161" y="-207"/>
      <point x="143" y="-207" type="curve"/>
      <point x="92" y="-210"/>
      <point x="52" y="-196"/>
      <point x="51" y="-196" type="curve"/>
      <point x="48" y="-204"/>
      <point x="45" y="-206"/>
      <point x="42" y="-213" type="curve"/>
      <point x="74" y="-221"/>
      <point x="95" y="-227"/>
      <point x="142" y="-226" type="curve" smooth="yes"/>
      <point x="184" y="-223"/>
      <point x="236" y="-198"/>
      <point x="247" y="-136" type="curve" smooth="yes"/>
      <point x="255" y="-86"/>
      <point x="223" y="-47"/>
    </contour>
  </outline>
</glyph>
<glyph name="eacute" format="1">
  <advance width="384"/>
  <unicode hex="00E9"/>
  <outline>
    <contour>
      <point x="53" y="132" type="curve" smooth="yes"/>
      <point x="70" y="229" type="line"/>
      <point x="414" y="246" type="line"/>
      <point x="431" y="341" type="line" smooth="yes"/>
      <point x="441" y="402"/>
      <point x="427" y="448"/>
      <point x="393" y="476" type="curve" smooth="yes"/>
      <point x="367" y="497"/>
      <point x="331" y="508"/>
      <point x="284" y="508" type="curve" smooth="yes"/>
      <point x="229" y="508"/>
      <point x="180" y="493"/>
      <point x="143" y="463" type="curve" smooth="yes"/>
      <point x="106" y="435"/>
      <point x="80" y="392"/>
      <point x="70" y="338" type="curve" smooth="yes"/>
      <point x="34" y="133" type="line" smooth="yes"/>
      <point x="25" y="80"/>
      <point x="36" y="42"/>
      <point x="66" y="19" type="curve" smooth="yes"/>
      <point x="90" y="-2"/>
      <point x="129" y="-12"/>
      <point x="182" y="-12" type="curve" smooth="yes"/>
      <point x="238" y="-12"/>
      <point x="295" y="4"/>
      <point x="351" y="35" type="curve"/>
      <point x="346" y="52" type="line"/>
      <point x="282" y="20"/>
      <point x="238" y="7"/>
      <point x="184" y="7" type="curve" smooth="yes"/>
      <point x="138" y="7"/>
      <point x="104" y="14"/>
      <point x="79" y="35" type="curve" smooth="yes"/>
      <point x="53" y="56"/>
      <point x="45" y="88"/>
    </contour>
    <contour>
      <point x="411" y="342" type="curve" smooth="yes"/>
      <point x="407" y="322"/>
      <point x="400" y="282"/>
      <point x="397" y="264" type="curve"/>
      <point x="73" y="248" type="line"/>
      <point x="77" y="268"/>
      <point x="84" y="311"/>
      <point x="88" y="332" type="curve" smooth="yes"/>
      <point x="98" y="391"/>
      <point x="123" y="428"/>
      <point x="154" y="452" type="curve" smooth="yes"/>
      <point x="192" y="482"/>
      <point x="240" y="491"/>
      <point x="277" y="491" type="curve" smooth="yes"/>
      <point x="314" y="491"/>
      <point x="352" y="484"/>
      <point x="379" y="461" type="curve" smooth="yes"/>
      <point x="406" y="439"/>
      <point x="421" y="402"/>
    </contour>
    <contour>
      <point x="348" y="662" type="curve" smooth="yes"/>
      <point x="276" y="548" type="line"/>
      <point x="298" y="548" type="line"/>
      <point x="371" y="648" type="line" smooth="yes"/>
      <point x="377" y="656"/>
      <point x="379" y="667"/>
      <point x="371" y="671" type="curve"/>
      <point x="364" y="675"/>
      <point x="353" y="670"/>
    </contour>
  </outline>
</glyph>
<glyph name="ecircumflex" format="1">
  <advance width="385"/>
  <unicode hex="00EA"/>
  <outline>
    <contour>
      <point x="54" y="132" type="curve" smooth="yes"/>
      <point x="71" y="229" type="line"/>
      <point x="415" y="246" type="line"/>
      <point x="432" y="341" type="line" smooth="yes"/>
      <point x="442" y="402"/>
      <point x="428" y="448"/>
      <point x="394" y="476" type="curve" smooth="yes"/>
      <point x="369" y="497"/>
      <point x="332" y="508"/>
      <point x="285" y="508" type="curve" smooth="yes"/>
      <point x="230" y="508"/>
      <point x="181" y="493"/>
      <point x="144" y="463" type="curve" smooth="yes"/>
      <point x="107" y="435"/>
      <point x="81" y="392"/>
      <point x="71" y="338" type="curve" smooth="yes"/>
      <point x="35" y="133" type="line" smooth="yes"/>
      <point x="26" y="80"/>
      <point x="37" y="42"/>
      <point x="67" y="19" type="curve" smooth="yes"/>
      <point x="91" y="-2"/>
      <point x="130" y="-12"/>
      <point x="183" y="-12" type="curve" smooth="yes"/>
      <point x="239" y="-12"/>
      <point x="296" y="4"/>
      <point x="352" y="35" type="curve"/>
      <point x="347" y="52" type="line"/>
      <point x="283" y="20"/>
      <point x="239" y="7"/>
      <point x="185" y="7" type="curve" smooth="yes"/>
      <point x="140" y="7"/>
      <point x="105" y="14"/>
      <point x="80" y="35" type="curve" smooth="yes"/>
      <point x="54" y="56"/>
      <point x="46" y="88"/>
    </contour>
    <contour>
      <point x="412" y="342" type="curve" smooth="yes"/>
      <point x="408" y="322"/>
      <point x="401" y="282"/>
      <point x="398" y="264" type="curve"/>
      <point x="74" y="248" type="line"/>
      <point x="78" y="268"/>
      <point x="85" y="311"/>
      <point x="89" y="332" type="curve" smooth="yes"/>
      <point x="99" y="391"/>
      <point x="125" y="428"/>
      <point x="155" y="452" type="curve" smooth="yes"/>
      <point x="193" y="482"/>
      <point x="241" y="491"/>
      <point x="279" y="491" type="curve" smooth="yes"/>
      <point x="315" y="491"/>
      <point x="353" y="484"/>
      <point x="380" y="461" type="curve" smooth="yes"/>
      <point x="407" y="439"/>
      <point x="422" y="402"/>
    </contour>
    <contour>
      <point x="307" y="652" type="line"/>
      <point x="393" y="548" type="line"/>
      <point x="411" y="563" type="line"/>
      <point x="313" y="681" type="line"/>
      <point x="168" y="562" type="line"/>
      <point x="180" y="548" type="line"/>
    </contour>
  </outline>
</glyph>
<glyph name="igrave" format="1">
  <advance width="110"/>
  <unicode hex="00EC"/>
  <outline>
    <contour>
      <point x="177" y="499" type="line"/>
      <point x="157" y="499" type="line"/>
      <point x="70" y="0" type="line"/>
      <point x="90" y="0" type="line"/>
    </contour>
    <contour>
      <point x="120" y="645" type="curve"/>
      <point x="157" y="543" type="line"/>
      <point x="177" y="543" type="line"/>
      <point x="148" y="658" type="line"/>
      <point x="146" y="667"/>
      <point x="137" y="672"/>
      <point x="127" y="668" type="curve"/>
      <point x="118" y="662"/>
      <point x="115" y="652"/>
    </contour>
  </outline>
</glyph>
<glyph name="icircumflex" format="1">
  <advance width="237"/>
  <unicode hex="00EE"/>
  <outline>
    <contour>
      <point x="211" y="499" type="line"/>
      <point x="193" y="499" type="line"/>
      <point x="106" y="0" type="line"/>
      <point x="124" y="0" type="line"/>
    </contour>
    <contour>
      <point x="230" y="648" type="line"/>
      <point x="316" y="543" type="line"/>
      <point x="335" y="559" type="line"/>
      <point x="235" y="676" type="line"/>
      <point x="91" y="559" type="line"/>
      <point x="103" y="544" type="line"/>
    </contour>
  </outline>
</glyph>
<glyph name="idieresis" format="1">
  <advance width="191"/>
  <unicode hex="00EF"/>
  <outline>
    <contour>
      <point x="189" y="499" type="line"/>
      <point x="171" y="499" type="line"/>
      <point x="84" y="0" type="line"/>
      <point x="102" y="0" type="line"/>
    </contour>
    <contour>
      <point x="295" y="603" type="curve" smooth="yes"/>
      <point x="296" y="612"/>
      <point x="291" y="619"/>
      <point x="281" y="619" type="curve" smooth="yes"/>
      <point x="272" y="619"/>
      <point x="262" y="612"/>
      <point x="261" y="603" type="curve" smooth="yes"/>
      <point x="259" y="593"/>
      <point x="266" y="585"/>
      <point x="275" y="585" type="curve" smooth="yes"/>
      <point x="285" y="585"/>
      <point x="293" y="593"/>
    </contour>
    <contour>
      <point x="137" y="603" type="curve" smooth="yes"/>
      <point x="138" y="612"/>
      <point x="132" y="619"/>
      <point x="123" y="619" type="curve" smooth="yes"/>
      <point x="113" y="619"/>
      <point x="104" y="612"/>
      <point x="103" y="603" type="curve" smooth="yes"/>
      <point x="101" y="593"/>
      <point x="107" y="585"/>
      <point x="117" y="585" type="curve" smooth="yes"/>
      <point x="126" y="585"/>
      <point x="135" y="593"/>
    </contour>
  </outline>
</glyph>
<glyph name="ntilde" format="1">
  <advance width="404"/>
  <unicode hex="00F1"/>
  <outline>
    <contour>
      <point x="428" y="346" type="curve" smooth="yes"/>
      <point x="367" y="0" type="line"/>
      <point x="387" y="0" type="line"/>
      <point x="447" y="345" type="line" smooth="yes"/>
      <point x="475" y="501"/>
      <point x="361" y="514"/>
      <point x="273" y="508" type="curve" smooth="yes"/>
      <point x="221" y="505"/>
      <point x="155" y="486"/>
      <point x="120" y="471" type="curve"/>
      <point x="124" y="499" type="line"/>
      <point x="106" y="499" type="line"/>
      <point x="19" y="0" type="line"/>
      <point x="37" y="0" type="line"/>
      <point x="116" y="453" type="line"/>
      <point x="157" y="471"/>
      <point x="225" y="490"/>
      <point x="283" y="493" type="curve" smooth="yes"/>
      <point x="392" y="498"/>
      <point x="447" y="459"/>
    </contour>
    <contour>
      <point x="424" y="593" type="curve"/>
      <point x="418" y="610" type="line"/>
      <point x="392" y="592"/>
      <point x="376" y="587"/>
      <point x="365" y="587" type="curve" smooth="yes"/>
      <point x="331" y="586"/>
      <point x="298" y="619"/>
      <point x="255" y="618" type="curve" smooth="yes"/>
      <point x="235" y="618"/>
      <point x="213" y="612"/>
      <point x="189" y="590" type="curve"/>
      <point x="196" y="571" type="line"/>
      <point x="202" y="577"/>
      <point x="224" y="596"/>
      <point x="249" y="596" type="curve" smooth="yes"/>
      <point x="288" y="597"/>
      <point x="318" y="564"/>
      <point x="360" y="565" type="curve" smooth="yes"/>
      <point x="378" y="565"/>
      <point x="399" y="572"/>
    </contour>
  </outline>
</glyph>
<glyph name="ograve" format="1">
  <advance width="391"/>
  <unicode hex="00F2"/>
  <outline>
    <contour>
      <point x="410" y="184" type="curve" smooth="yes"/>
      <point x="433" y="315" type="line" smooth="yes"/>
      <point x="454" y="436"/>
      <point x="404" y="510"/>
      <point x="285" y="510" type="curve" smooth="yes"/>
      <point x="167" y="510"/>
      <point x="87" y="442"/>
      <point x="65" y="315" type="curve" smooth="yes"/>
      <point x="42" y="184" type="line" smooth="yes"/>
      <point x="23" y="77"/>
      <point x="67" y="-10"/>
      <point x="194" y="-10" type="curve" smooth="yes"/>
      <point x="318" y="-10"/>
      <point x="390" y="71"/>
    </contour>
    <contour>
      <point x="416" y="319" type="curve" smooth="yes"/>
      <point x="392" y="184" type="line" smooth="yes"/>
      <point x="374" y="84"/>
      <point x="312" y="8"/>
      <point x="197" y="8" type="curve" smooth="yes"/>
      <point x="87" y="8"/>
      <point x="43" y="85"/>
      <point x="61" y="184" type="curve" smooth="yes"/>
      <point x="85" y="319" type="line" smooth="yes"/>
      <point x="106" y="442"/>
      <point x="186" y="492"/>
      <point x="282" y="492" type="curve" smooth="yes"/>
      <point x="377" y="492"/>
      <point x="436" y="433"/>
    </contour>
    <contour>
      <point x="239" y="648" type="curve"/>
      <point x="276" y="548" type="line"/>
      <point x="297" y="548" type="line"/>
      <point x="267" y="662" type="line" smooth="yes"/>
      <point x="265" y="670"/>
      <point x="256" y="675"/>
      <point x="247" y="671" type="curve"/>
      <point x="238" y="667"/>
      <point x="235" y="656"/>
    </contour>
  </outline>
</glyph>
<glyph name="ocircumflex" format="1">
  <advance width="393"/>
  <unicode hex="00F4"/>
  <outline>
    <contour>
      <point x="412" y="184" type="curve" smooth="yes"/>
      <point x="435" y="315" type="line" smooth="yes"/>
      <point x="456" y="436"/>
      <point x="405" y="510"/>
      <point x="286" y="510" type="curve" smooth="yes"/>
      <point x="168" y="510"/>
      <point x="88" y="442"/>
      <point x="66" y="315" type="curve" smooth="yes"/>
      <point x="43" y="184" type="line" smooth="yes"/>
      <point x="24" y="77"/>
      <point x="68" y="-10"/>
      <point x="195" y="-10" type="curve" smooth="yes"/>
      <point x="319" y="-10"/>
      <point x="392" y="71"/>
    </contour>
    <contour>
      <point x="417" y="319" type="curve" smooth="yes"/>
      <point x="393" y="184" type="line" smooth="yes"/>
      <point x="375" y="84"/>
      <point x="313" y="8"/>
      <point x="198" y="8" type="curve" smooth="yes"/>
      <point x="88" y="8"/>
      <point x="44" y="85"/>
      <point x="62" y="184" type="curve" smooth="yes"/>
      <point x="86" y="319" type="line" smooth="yes"/>
      <point x="107" y="442"/>
      <point x="187" y="492"/>
      <point x="283" y="492" type="curve" smooth="yes"/>
      <point x="379" y="492"/>
      <point x="437" y="433"/>
    </contour>
    <contour>
      <point x="320" y="687" type="line"/>
      <point x="422" y="561" type="line"/>
      <point x="442" y="577" type="line"/>
      <point x="325" y="718" type="line"/>
      <point x="153" y="577" type="line"/>
      <point x="166" y="561" type="line"/>
    </contour>
  </outline>
</glyph>
<glyph name="otilde" format="1">
  <advance width="392"/>
  <unicode hex="00F5"/>
  <outline>
    <contour>
      <point x="410" y="184" type="curve" smooth="yes"/>
      <point x="433" y="315" type="line" smooth="yes"/>
      <point x="454" y="436"/>
      <point x="404" y="510"/>
      <point x="285" y="510" type="curve" smooth="yes"/>
      <point x="167" y="510"/>
      <point x="87" y="442"/>
      <point x="65" y="315" type="curve" smooth="yes"/>
      <point x="42" y="184" type="line" smooth="yes"/>
      <point x="23" y="77"/>
      <point x="67" y="-10"/>
      <point x="194" y="-10" type="curve" smooth="yes"/>
      <point x="318" y="-10"/>
      <point x="390" y="71"/>
    </contour>
    <contour>
      <point x="416" y="319" type="curve" smooth="yes"/>
      <point x="392" y="184" type="line" smooth="yes"/>
      <point x="374" y="84"/>
      <point x="312" y="8"/>
      <point x="197" y="8" type="curve" smooth="yes"/>
      <point x="87" y="8"/>
      <point x="43" y="85"/>
      <point x="61" y="184" type="curve" smooth="yes"/>
      <point x="85" y="319" type="line" smooth="yes"/>
      <point x="106" y="442"/>
      <point x="186" y="492"/>
      <point x="282" y="492" type="curve" smooth="yes"/>
      <point x="377" y="492"/>
      <point x="436" y="433"/>
    </contour>
    <contour>
      <point x="416" y="593" type="curve"/>
      <point x="411" y="610" type="line"/>
      <point x="384" y="592"/>
      <point x="367" y="587"/>
      <point x="357" y="587" type="curve" smooth="yes"/>
      <point x="323" y="586"/>
      <point x="289" y="619"/>
      <point x="248" y="619" type="curve"/>
      <point x="226" y="618"/>
      <point x="204" y="612"/>
      <point x="181" y="590" type="curve"/>
      <point x="188" y="572" type="line"/>
      <point x="195" y="577"/>
      <point x="216" y="596"/>
      <point x="241" y="597" type="curve" smooth="yes"/>
      <point x="280" y="597"/>
      <point x="310" y="565"/>
      <point x="351" y="565" type="curve"/>
      <point x="370" y="566"/>
      <point x="390" y="572"/>
    </contour>
  </outline>
</glyph>
<glyph name="odieresis" format="1">
  <advance width="391"/>
  <unicode hex="00F6"/>
  <outline>
    <contour>
      <point x="410" y="184" type="curve" smooth="yes"/>
      <point x="433" y="315" type="line" smooth="yes"/>
      <point x="454" y="436"/>
      <point x="404" y="510"/>
      <point x="285" y="510" type="curve" smooth="yes"/>
      <point x="167" y="510"/>
      <point x="87" y="442"/>
      <point x="65" y="315" type="curve" smooth="yes"/>
      <point x="42" y="184" type="line" smooth="yes"/>
      <point x="23" y="77"/>
      <point x="67" y="-10"/>
      <point x="194" y="-10" type="curve" smooth="yes"/>
      <point x="318" y="-10"/>
      <point x="390" y="71"/>
    </contour>
    <contour>
      <point x="416" y="319" type="curve" smooth="yes"/>
      <point x="392" y="184" type="line" smooth="yes"/>
      <point x="374" y="84"/>
      <point x="312" y="8"/>
      <point x="197" y="8" type="curve" smooth="yes"/>
      <point x="87" y="8"/>
      <point x="43" y="85"/>
      <point x="61" y="184" type="curve" smooth="yes"/>
      <point x="85" y="319" type="line" smooth="yes"/>
      <point x="106" y="442"/>
      <point x="186" y="492"/>
      <point x="282" y="492" type="curve" smooth="yes"/>
      <point x="377" y="492"/>
      <point x="436" y="433"/>
    </contour>
    <contour>
      <point x="378" y="623" type="curve" smooth="yes"/>
      <point x="369" y="623"/>
      <point x="361" y="615"/>
      <point x="359" y="606" type="curve" smooth="yes"/>
      <point x="358" y="596"/>
      <point x="363" y="588"/>
      <point x="372" y="588" type="curve" smooth="yes"/>
      <point x="381" y="588"/>
      <point x="391" y="596"/>
      <point x="392" y="606" type="curve" smooth="yes"/>
      <point x="394" y="615"/>
      <point x="387" y="623"/>
    </contour>
    <contour>
      <point x="235" y="606" type="curve" smooth="yes"/>
      <point x="237" y="615"/>
      <point x="230" y="623"/>
      <point x="220" y="623" type="curve" smooth="yes"/>
      <point x="211" y="623"/>
      <point x="203" y="615"/>
      <point x="201" y="606" type="curve" smooth="yes"/>
      <point x="200" y="596"/>
      <point x="205" y="588"/>
      <point x="214" y="588" type="curve" smooth="yes"/>
      <point x="224" y="588"/>
      <point x="234" y="596"/>
    </contour>
  </outline>
</glyph>
<glyph name="divide" format="1">
  <advance width="361"/>
  <unicode hex="00F7"/>
  <outline>
    <contour>
      <point x="408" y="393" type="line"/>
      <point x="89" y="393" type="line"/>
      <point x="85" y="372" type="line"/>
      <point x="404" y="372" type="line"/>
    </contour>
    <contour>
      <point x="273" y="528" type="curve" smooth="yes"/>
      <point x="265" y="528"/>
      <point x="255" y="520"/>
      <point x="253" y="510" type="curve" smooth="yes"/>
      <point x="252" y="502"/>
      <point x="259" y="494"/>
      <point x="267" y="494" type="curve" smooth="yes"/>
      <point x="277" y="494"/>
      <point x="286" y="502"/>
      <point x="287" y="510" type="curve" smooth="yes"/>
      <point x="289" y="520"/>
      <point x="283" y="528"/>
    </contour>
    <contour>
      <point x="227" y="271" type="curve" smooth="yes"/>
      <point x="219" y="271"/>
      <point x="210" y="264"/>
      <point x="208" y="254" type="curve" smooth="yes"/>
      <point x="207" y="245"/>
      <point x="213" y="238"/>
      <point x="221" y="238" type="curve" smooth="yes"/>
      <point x="231" y="238"/>
      <point x="241" y="245"/>
      <point x="242" y="254" type="curve" smooth="yes"/>
      <point x="244" y="264"/>
      <point x="237" y="271"/>
    </contour>
  </outline>
</glyph>
<glyph name="oslash" format="1">
  <advance width="392"/>
  <unicode hex="00F8"/>
  <outline>
    <contour>
      <point x="409" y="184" type="curve" smooth="yes"/>
      <point x="432" y="315" type="line" smooth="yes"/>
      <point x="445" y="387"/>
      <point x="432" y="443"/>
      <point x="393" y="476" type="curve"/>
      <point x="462" y="585" type="line"/>
      <point x="441" y="585" type="line"/>
      <point x="379" y="486" type="line"/>
      <point x="355" y="502"/>
      <point x="323" y="510"/>
      <point x="284" y="510" type="curve" smooth="yes"/>
      <point x="166" y="510"/>
      <point x="86" y="442"/>
      <point x="64" y="315" type="curve" smooth="yes"/>
      <point x="41" y="184" type="line" smooth="yes"/>
      <point x="29" y="114"/>
      <point x="43" y="54"/>
      <point x="89" y="20" type="curve"/>
      <point x="35" y="-66" type="line"/>
      <point x="56" y="-66" type="line"/>
      <point x="103" y="10" type="line"/>
      <point x="127" y="-2"/>
      <point x="156" y="-10"/>
      <point x="193" y="-10" type="curve" smooth="yes"/>
      <point x="317" y="-10"/>
      <point x="389" y="71"/>
    </contour>
    <contour>
      <point x="60" y="184" type="curve" smooth="yes"/>
      <point x="84" y="319" type="line" smooth="yes"/>
      <point x="105" y="442"/>
      <point x="185" y="492"/>
      <point x="281" y="492" type="curve" smooth="yes"/>
      <point x="315" y="492"/>
      <point x="346" y="484"/>
      <point x="368" y="469" type="curve"/>
      <point x="100" y="37" type="line"/>
      <point x="61" y="68"/>
      <point x="49" y="121"/>
    </contour>
    <contour>
      <point x="415" y="319" type="curve" smooth="yes"/>
      <point x="391" y="184" type="line" smooth="yes"/>
      <point x="373" y="84"/>
      <point x="311" y="8"/>
      <point x="196" y="8" type="curve" smooth="yes"/>
      <point x="163" y="8"/>
      <point x="135" y="14"/>
      <point x="114" y="26" type="curve"/>
      <point x="381" y="458" type="line"/>
      <point x="412" y="429"/>
      <point x="426" y="383"/>
    </contour>
  </outline>
</glyph>
<glyph name="ugrave" format="1">
  <advance width="402"/>
  <unicode hex="00F9"/>
  <outline>
    <contour>
      <point x="380" y="97" type="curve"/>
      <point x="363" y="0" type="line"/>
      <point x="384" y="0" type="line"/>
      <point x="471" y="499" type="line"/>
      <point x="450" y="499" type="line"/>
      <point x="392" y="168" type="line" smooth="yes"/>
      <point x="378" y="87"/>
      <point x="306" y="15"/>
      <point x="209" y="9" type="curve" smooth="yes"/>
      <point x="100" y="1"/>
      <point x="41" y="43"/>
      <point x="61" y="155" type="curve" smooth="yes"/>
      <point x="121" y="499" type="line"/>
      <point x="101" y="499" type="line"/>
      <point x="41" y="156" type="line" smooth="yes"/>
      <point x="14" y="0"/>
      <point x="131" y="-13"/>
      <point x="206" y="-9" type="curve" smooth="yes"/>
      <point x="268" y="-4"/>
      <point x="342" y="29"/>
    </contour>
    <contour>
      <point x="240" y="643" type="curve" smooth="yes"/>
      <point x="277" y="543" type="line"/>
      <point x="299" y="543" type="line"/>
      <point x="267" y="657" type="line"/>
      <point x="265" y="665"/>
      <point x="257" y="671"/>
      <point x="248" y="667" type="curve"/>
      <point x="238" y="662"/>
      <point x="236" y="651"/>
    </contour>
  </outline>
</glyph>
<glyph name="uacute" format="1">
  <advance width="400"/>
  <unicode hex="00FA"/>
  <outline>
    <contour>
      <point x="379" y="97" type="curve"/>
      <point x="362" y="0" type="line"/>
      <point x="383" y="0" type="line"/>
      <point x="470" y="499" type="line"/>
      <point x="449" y="499" type="line"/>
      <point x="391" y="168" type="line" smooth="yes"/>
      <point x="377" y="87"/>
      <point x="304" y="15"/>
      <point x="208" y="9" type="curve" smooth="yes"/>
      <point x="99" y="1"/>
      <point x="40" y="43"/>
      <point x="60" y="155" type="curve" smooth="yes"/>
      <point x="120" y="499" type="line"/>
      <point x="100" y="499" type="line"/>
      <point x="40" y="156" type="line" smooth="yes"/>
      <point x="13" y="0"/>
      <point x="130" y="-13"/>
      <point x="205" y="-9" type="curve" smooth="yes"/>
      <point x="267" y="-4"/>
      <point x="340" y="29"/>
    </contour>
    <contour>
      <point x="359" y="657" type="curve"/>
      <point x="288" y="542" type="line"/>
      <point x="310" y="542" type="line"/>
      <point x="382" y="642" type="line" smooth="yes"/>
      <point x="388" y="650"/>
      <point x="390" y="661"/>
      <point x="382" y="665" type="curve"/>
      <point x="375" y="670"/>
      <point x="365" y="665"/>
    </contour>
  </outline>
</glyph>
<glyph name="udieresis" format="1">
  <advance width="403"/>
  <unicode hex="00FC"/>
  <outline>
    <contour>
      <point x="380" y="97" type="curve"/>
      <point x="363" y="0" type="line"/>
      <point x="384" y="0" type="line"/>
      <point x="471" y="499" type="line"/>
      <point x="450" y="499" type="line"/>
      <point x="392" y="168" type="line" smooth="yes"/>
      <point x="378" y="87"/>
      <point x="306" y="15"/>
      <point x="209" y="9" type="curve" smooth="yes"/>
      <point x="100" y="1"/>
      <point x="41" y="43"/>
      <point x="61" y="155" type="curve" smooth="yes"/>
      <point x="121" y="499" type="line"/>
      <point x="101" y="499" type="line"/>
      <point x="41" y="156" type="line" smooth="yes"/>
      <point x="14" y="0"/>
      <point x="131" y="-13"/>
      <point x="206" y="-9" type="curve" smooth="yes"/>
      <point x="268" y="-4"/>
      <point x="342" y="29"/>
    </contour>
    <contour>
      <point x="387" y="619" type="curve" smooth="yes"/>
      <point x="377" y="619"/>
      <point x="368" y="612"/>
      <point x="367" y="602" type="curve" smooth="yes"/>
      <point x="365" y="593"/>
      <point x="371" y="585"/>
      <point x="381" y="585" type="curve" smooth="yes"/>
      <point x="390" y="585"/>
      <point x="399" y="593"/>
      <point x="401" y="602" type="curve" smooth="yes"/>
      <point x="402" y="612"/>
      <point x="396" y="619"/>
    </contour>
    <contour>
      <point x="229" y="619" type="curve" smooth="yes"/>
      <point x="220" y="619"/>
      <point x="210" y="612"/>
      <point x="209" y="602" type="curve" smooth="yes"/>
      <point x="207" y="593"/>
      <point x="214" y="585"/>
      <point x="223" y="585" type="curve" smooth="yes"/>
      <point x="233" y="585"/>
      <point x="240" y="593"/>
      <point x="242" y="602" type="curve" smooth="yes"/>
      <point x="243" y="612"/>
      <point x="239" y="619"/>
    </contour>
  </outline>
</glyph>
<glyph name="yacute" format="1">
  <advance width="420"/>
  <unicode hex="00FD"/>
  <outline>
    <contour>
      <point x="495" y="499" type="curve"/>
      <point x="484" y="510" type="line"/>
      <point x="456" y="485"/>
      <point x="446" y="465"/>
      <point x="438" y="418" type="curve" smooth="yes"/>
      <point x="394" y="169" type="line" smooth="yes"/>
      <point x="380" y="88"/>
      <point x="304" y="16"/>
      <point x="208" y="10" type="curve" smooth="yes"/>
      <point x="100" y="2"/>
      <point x="40" y="44"/>
      <point x="60" y="156" type="curve" smooth="yes"/>
      <point x="120" y="499" type="line"/>
      <point x="100" y="499" type="line"/>
      <point x="40" y="157" type="line" smooth="yes"/>
      <point x="13" y="1"/>
      <point x="131" y="-12"/>
      <point x="206" y="-8" type="curve" smooth="yes"/>
      <point x="268" y="-3"/>
      <point x="344" y="30"/>
      <point x="382" y="99" type="curve"/>
      <point x="353" y="-66" type="line" smooth="yes"/>
      <point x="345" y="-110"/>
      <point x="328" y="-142"/>
      <point x="304" y="-160" type="curve" smooth="yes"/>
      <point x="278" y="-178"/>
      <point x="268" y="-183"/>
      <point x="236" y="-195" type="curve"/>
      <point x="239" y="-212" type="line"/>
      <point x="271" y="-202"/>
      <point x="296" y="-190"/>
      <point x="315" y="-174" type="curve" smooth="yes"/>
      <point x="345" y="-149"/>
      <point x="361" y="-114"/>
      <point x="370" y="-67" type="curve" smooth="yes"/>
      <point x="455" y="417" type="line" smooth="yes"/>
      <point x="463" y="461"/>
      <point x="471" y="482"/>
    </contour>
    <contour>
      <point x="376" y="657" type="curve"/>
      <point x="304" y="543" type="line"/>
      <point x="325" y="543" type="line"/>
      <point x="399" y="643" type="line" smooth="yes"/>
      <point x="404" y="651"/>
      <point x="406" y="662"/>
      <point x="399" y="667" type="curve" smooth="yes"/>
      <point x="391" y="671"/>
      <point x="381" y="665"/>
    </contour>
  </outline>
</glyph>
<glyph name="thorn" format="1">
  <advance width="409"/>
  <unicode hex="00FE"/>
  <outline>
    <contour>
      <point x="112" y="399" type="curve"/>
      <point x="165" y="698" type="line"/>
      <point x="145" y="698" type="line"/>
      <point x="22" y="0" type="line"/>
      <point x="42" y="0" type="line"/>
      <point x="83" y="234" type="line"/>
      <point x="98" y="155"/>
      <point x="156" y="116"/>
      <point x="232" y="116" type="curve" smooth="yes"/>
      <point x="343" y="116"/>
      <point x="436" y="205"/>
      <point x="454" y="309" type="curve" smooth="yes"/>
      <point x="475" y="426"/>
      <point x="413" y="509"/>
      <point x="300" y="509" type="curve" smooth="yes"/>
      <point x="228" y="509"/>
      <point x="159" y="472"/>
    </contour>
    <contour>
      <point x="299" y="493" type="curve" smooth="yes"/>
      <point x="401" y="490"/>
      <point x="454" y="410"/>
      <point x="437" y="315" type="curve" smooth="yes"/>
      <point x="419" y="212"/>
      <point x="334" y="133"/>
      <point x="234" y="133" type="curve" smooth="yes"/>
      <point x="119" y="133"/>
      <point x="83" y="226"/>
      <point x="100" y="319" type="curve" smooth="yes"/>
      <point x="117" y="417"/>
      <point x="205" y="493"/>
    </contour>
  </outline>
</glyph>
<glyph name="ydieresis" format="1">
  <advance width="421"/>
  <unicode hex="00FF"/>
  <outline>
    <contour>
      <point x="496" y="499" type="curve"/>
      <point x="485" y="510" type="line"/>
      <point x="457" y="485"/>
      <point x="447" y="465"/>
      <point x="439" y="418" type="curve" smooth="yes"/>
      <point x="395" y="169" type="line" smooth="yes"/>
      <point x="381" y="88"/>
      <point x="306" y="16"/>
      <point x="209" y="10" type="curve" smooth="yes"/>
      <point x="101" y="2"/>
      <point x="41" y="44"/>
      <point x="61" y="156" type="curve" smooth="yes"/>
      <point x="121" y="499" type="line"/>
      <point x="101" y="499" type="line"/>
      <point x="41" y="157" type="line" smooth="yes"/>
      <point x="14" y="1"/>
      <point x="132" y="-12"/>
      <point x="207" y="-8" type="curve" smooth="yes"/>
      <point x="270" y="-3"/>
      <point x="345" y="30"/>
      <point x="383" y="99" type="curve"/>
      <point x="354" y="-66" type="line" smooth="yes"/>
      <point x="346" y="-110"/>
      <point x="329" y="-142"/>
      <point x="305" y="-160" type="curve" smooth="yes"/>
      <point x="279" y="-178"/>
      <point x="269" y="-183"/>
      <point x="237" y="-195" type="curve"/>
      <point x="240" y="-212" type="line"/>
      <point x="272" y="-202"/>
      <point x="297" y="-190"/>
      <point x="317" y="-174" type="curve" smooth="yes"/>
      <point x="346" y="-149"/>
      <point x="362" y="-114"/>
      <point x="371" y="-67" type="curve" smooth="yes"/>
      <point x="456" y="417" type="line" smooth="yes"/>
      <point x="464" y="461"/>
      <point x="472" y="482"/>
    </contour>
    <contour>
      <point x="400" y="619" type="curve" smooth="yes"/>
      <point x="392" y="619"/>
      <point x="382" y="612"/>
      <point x="381" y="602" type="curve" smooth="yes"/>
      <point x="379" y="593"/>
      <point x="386" y="585"/>
      <point x="394" y="585" type="curve" smooth="yes"/>
      <point x="404" y="585"/>
      <point x="413" y="593"/>
      <point x="415" y="602" type="curve" smooth="yes"/>
      <point x="416" y="612"/>
      <point x="410" y="619"/>
    </contour>
    <contour>
      <point x="243" y="619" type="curve" smooth="yes"/>
      <point x="233" y="619"/>
      <point x="224" y="612"/>
      <point x="223" y="602" type="curve" smooth="yes"/>
      <point x="221" y="593"/>
      <point x="227" y="585"/>
      <point x="237" y="585" type="curve" smooth="yes"/>
      <point x="246" y="585"/>
      <point x="255" y="593"/>
      <point x="257" y="602" type="curve" smooth="yes"/>
      <point x="258" y="612"/>
      <point x="252" y="619"/>
    </contour>
  </outline>
</glyph>
<glyph name="Amacron" format="1">
  <advance width="512"/>
  <unicode hex="0100"/>
  <outline>
    <contour>
      <point x="372" y="698" type="line"/>
      <point x="4" y="0" type="line"/>
      <point x="24" y="0" type="line"/>
      <point x="171" y="280" type="line"/>
      <point x="438" y="280" type="line"/>
      <point x="487" y="0" type="line"/>
      <point x="508" y="0" type="line"/>
      <point x="386" y="698" type="line"/>
    </contour>
    <contour>
      <point x="435" y="299" type="line"/>
      <point x="182" y="299" type="line"/>
      <point x="372" y="658" type="line"/>
    </contour>
    <contour>
      <point x="513" y="799" type="line"/>
      <point x="293" y="799" type="line"/>
      <point x="290" y="780" type="line"/>
      <point x="510" y="780" type="line"/>
    </contour>
  </outline>
</glyph>
<glyph name="Abreve" format="1">
  <advance width="512"/>
  <unicode hex="0102"/>
  <outline>
    <contour>
      <point x="372" y="698" type="line"/>
      <point x="4" y="0" type="line"/>
      <point x="24" y="0" type="line"/>
      <point x="171" y="280" type="line"/>
      <point x="438" y="280" type="line"/>
      <point x="487" y="0" type="line"/>
      <point x="508" y="0" type="line"/>
      <point x="386" y="698" type="line"/>
    </contour>
    <contour>
      <point x="435" y="299" type="line"/>
      <point x="182" y="299" type="line"/>
      <point x="372" y="658" type="line"/>
    </contour>
    <contour>
      <point x="317" y="855" type="curve" smooth="yes"/>
      <point x="318" y="861" type="line"/>
      <point x="295" y="861" type="line"/>
      <point x="294" y="855" type="line" smooth="yes"/>
      <point x="283" y="792"/>
      <point x="325" y="741"/>
      <point x="387" y="741" type="curve" smooth="yes"/>
      <point x="450" y="741"/>
      <point x="510" y="792"/>
      <point x="521" y="855" type="curve" smooth="yes"/>
      <point x="522" y="861" type="line"/>
      <point x="500" y="861" type="line"/>
      <point x="499" y="855" type="line" smooth="yes"/>
      <point x="490" y="804"/>
      <point x="442" y="763"/>
      <point x="391" y="763" type="curve" smooth="yes"/>
      <point x="342" y="763"/>
      <point x="308" y="804"/>
    </contour>
  </outline>
</glyph>
<glyph name="Aogonek" format="1">
  <advance width="561"/>
  <unicode hex="0104"/>
  <outline>
    <contour>
      <point x="372" y="698" type="line"/>
      <point x="4" y="0" type="line"/>
      <point x="24" y="0" type="line"/>
      <point x="171" y="280" type="line"/>
      <point x="438" y="280" type="line"/>
      <point x="487" y="0" type="line"/>
      <point x="508" y="0" type="line"/>
      <point x="386" y="698" type="line"/>
    </contour>
    <contour>
      <point x="435" y="299" type="line"/>
      <point x="182" y="299" type="line"/>
      <point x="372" y="658" type="line"/>
    </contour>
    <contour>
      <point x="408" y="-128" type="curve" smooth="yes"/>
      <point x="504" y="-2" type="line"/>
      <point x="506" y="7" type="line"/>
      <point x="488" y="4" type="line"/>
      <point x="487" y="-1" type="line"/>
      <point x="395" y="-119" type="line" smooth="yes"/>
      <point x="347" y="-182"/>
      <point x="383" y="-243"/>
      <point x="457" y="-232" type="curve" smooth="yes"/>
      <point x="471" y="-230"/>
      <point x="552" y="-202"/>
      <point x="552" y="-202" type="curve"/>
      <point x="549" y="-184" type="line"/>
      <point x="549" y="-184"/>
      <point x="509" y="-197"/>
      <point x="473" y="-208" type="curve" smooth="yes"/>
      <point x="405" y="-230"/>
      <point x="367" y="-183"/>
    </contour>
  </outline>
</glyph>
<glyph name="Ccaron" format="1">
  <advance width="385"/>
  <unicode hex="010C"/>
  <outline>
    <contour>
      <point x="459" y="658" type="curve"/>
      <point x="470" y="675" type="line"/>
      <point x="432" y="697"/>
      <point x="387" y="708"/>
      <point x="333" y="708" type="curve" smooth="yes"/>
      <point x="291" y="708"/>
      <point x="254" y="700"/>
      <point x="222" y="683" type="curve" smooth="yes"/>
      <point x="158" y="647"/>
      <point x="121" y="603"/>
      <point x="103" y="503" type="curve" smooth="yes"/>
      <point x="47" y="183" type="line" smooth="yes"/>
      <point x="32" y="99"/>
      <point x="55" y="42"/>
      <point x="99" y="15" type="curve" smooth="yes"/>
      <point x="143" y="-10"/>
      <point x="192" y="-10"/>
      <point x="213" y="-10" type="curve" smooth="yes"/>
      <point x="263" y="-10"/>
      <point x="319" y="1"/>
      <point x="380" y="23" type="curve"/>
      <point x="377" y="41" type="line"/>
      <point x="314" y="18"/>
      <point x="261" y="7"/>
      <point x="221" y="7" type="curve" smooth="yes"/>
      <point x="183" y="7"/>
      <point x="139" y="12"/>
      <point x="112" y="32" type="curve" smooth="yes"/>
      <point x="75" y="58"/>
      <point x="51" y="106"/>
      <point x="66" y="185" type="curve" smooth="yes"/>
      <point x="124" y="512" type="line" smooth="yes"/>
      <point x="134" y="572"/>
      <point x="165" y="619"/>
      <point x="193" y="643" type="curve" smooth="yes"/>
      <point x="223" y="668"/>
      <point x="273" y="689"/>
      <point x="333" y="689" type="curve" smooth="yes"/>
      <point x="374" y="689"/>
      <point x="415" y="679"/>
    </contour>
    <contour>
      <point x="226" y="857" type="line"/>
      <point x="325" y="739" type="line"/>
      <point x="468" y="858" type="line"/>
      <point x="455" y="872" type="line"/>
      <point x="330" y="768" type="line"/>
      <point x="243" y="872" type="line"/>
    </contour>
  </outline>
</glyph>
<glyph name="ccaron" format="1">
  <advance width="346"/>
  <unicode hex="010D"/>
  <outline>
    <contour>
      <point x="403" y="457" type="curve"/>
      <point x="413" y="476" type="line"/>
      <point x="360" y="504"/>
      <point x="296" y="516"/>
      <point x="236" y="504" type="curve" smooth="yes"/>
      <point x="190" y="494"/>
      <point x="147" y="470"/>
      <point x="115" y="426" type="curve" smooth="yes"/>
      <point x="89" y="394"/>
      <point x="76" y="362"/>
      <point x="67" y="318" type="curve"/>
      <point x="41" y="173" type="line" smooth="yes"/>
      <point x="24" y="75"/>
      <point x="59" y="23"/>
      <point x="123" y="1" type="curve" smooth="yes"/>
      <point x="179" y="-18"/>
      <point x="262" y="-13"/>
      <point x="332" y="5" type="curve"/>
      <point x="332" y="25" type="line"/>
      <point x="332" y="25"/>
      <point x="211" y="-9"/>
      <point x="127" y="21" type="curve" smooth="yes"/>
      <point x="60" y="45"/>
      <point x="47" y="98"/>
      <point x="60" y="175" type="curve" smooth="yes"/>
      <point x="85" y="312" type="line" smooth="yes"/>
      <point x="92" y="355"/>
      <point x="108" y="389"/>
      <point x="129" y="416" type="curve" smooth="yes"/>
      <point x="157" y="453"/>
      <point x="196" y="476"/>
      <point x="241" y="485" type="curve" smooth="yes"/>
      <point x="293" y="496"/>
      <point x="350" y="486"/>
    </contour>
    <contour>
      <point x="188" y="665" type="line"/>
      <point x="289" y="548" type="line"/>
      <point x="432" y="665" type="line"/>
      <point x="419" y="680" type="line"/>
      <point x="294" y="576" type="line"/>
      <point x="207" y="681" type="line"/>
    </contour>
  </outline>
</glyph>
<glyph name="dcaron" format="1">
  <advance width="488"/>
  <unicode hex="010F"/>
  <outline>
    <contour>
      <point x="393" y="-1" type="curve"/>
      <point x="517" y="698" type="line"/>
      <point x="498" y="698" type="line"/>
      <point x="457" y="470" type="line"/>
      <point x="409" y="492"/>
      <point x="350" y="508"/>
      <point x="277" y="508" type="curve" smooth="yes"/>
      <point x="143" y="508"/>
      <point x="84" y="421"/>
      <point x="73" y="358" type="curve"/>
      <point x="73" y="358"/>
      <point x="39" y="169"/>
      <point x="39" y="168" type="curve" smooth="yes"/>
      <point x="18" y="50"/>
      <point x="67" y="-11"/>
      <point x="213" y="-11" type="curve" smooth="yes"/>
      <point x="253" y="-11"/>
      <point x="393" y="-1"/>
    </contour>
    <contour>
      <point x="454" y="450" type="curve"/>
      <point x="454" y="450"/>
      <point x="378" y="18"/>
      <point x="378" y="18" type="curve"/>
      <point x="378" y="18"/>
      <point x="263" y="8"/>
      <point x="216" y="7" type="curve" smooth="yes"/>
      <point x="58" y="4"/>
      <point x="44" y="89"/>
      <point x="57" y="161" type="curve" smooth="yes"/>
      <point x="61" y="182"/>
      <point x="87" y="330"/>
      <point x="91" y="354" type="curve" smooth="yes"/>
      <point x="104" y="429"/>
      <point x="170" y="491"/>
      <point x="273" y="491" type="curve" smooth="yes"/>
      <point x="347" y="491"/>
      <point x="405" y="474"/>
    </contour>
    <contour>
      <point x="541" y="577" type="curve"/>
      <point x="549" y="571" type="line"/>
      <point x="549" y="571"/>
      <point x="591" y="595"/>
      <point x="601" y="648" type="curve" smooth="yes"/>
      <point x="603" y="658"/>
      <point x="598" y="665"/>
      <point x="588" y="665" type="curve" smooth="yes"/>
      <point x="579" y="665"/>
      <point x="570" y="658"/>
      <point x="568" y="648" type="curve" smooth="yes"/>
      <point x="566" y="640"/>
      <point x="570" y="635"/>
      <point x="576" y="632" type="curve"/>
      <point x="572" y="618"/>
      <point x="565" y="596"/>
    </contour>
  </outline>
</glyph>
<glyph name="Dcroat" format="1">
  <advance width="457"/>
  <unicode hex="0110"/>
  <outline>
    <contour>
      <point x="333" y="698" type="curve" smooth="yes"/>
      <point x="145" y="698" type="line"/>
      <point x="22" y="0" type="line"/>
      <point x="230" y="0" type="line" smooth="yes"/>
      <point x="371" y="0"/>
      <point x="452" y="67"/>
      <point x="476" y="199" type="curve" smooth="yes"/>
      <point x="524" y="473" type="line" smooth="yes"/>
      <point x="548" y="609"/>
      <point x="483" y="698"/>
    </contour>
    <contour>
      <point x="223" y="20" type="curve" smooth="yes"/>
      <point x="44" y="20" type="line"/>
      <point x="160" y="678" type="line"/>
      <point x="339" y="678" type="line" smooth="yes"/>
      <point x="474" y="678"/>
      <point x="526" y="592"/>
      <point x="504" y="466" type="curve" smooth="yes"/>
      <point x="459" y="213" type="line" smooth="yes"/>
      <point x="433" y="63"/>
      <point x="351" y="20"/>
    </contour>
    <contour>
      <point x="483" y="801" type="line"/>
      <point x="262" y="801" type="line"/>
      <point x="258" y="782" type="line"/>
      <point x="479" y="782" type="line"/>
    </contour>
  </outline>
</glyph>
<glyph name="dslash" format="1">
  <advance width="449"/>
  <unicode hex="0111"/>
  <outline>
    <contour>
      <point x="393" y="-1" type="curve"/>
      <point x="498" y="595" type="line"/>
      <point x="545" y="595" type="line"/>
      <point x="549" y="615" type="line"/>
      <point x="502" y="615" type="line"/>
      <point x="517" y="698" type="line"/>
      <point x="498" y="698" type="line"/>
      <point x="483" y="615" type="line"/>
      <point x="313" y="615" type="line"/>
      <point x="309" y="595" type="line"/>
      <point x="479" y="595" type="line"/>
      <point x="457" y="470" type="line"/>
      <point x="409" y="492"/>
      <point x="350" y="508"/>
      <point x="277" y="508" type="curve" smooth="yes"/>
      <point x="143" y="508"/>
      <point x="84" y="421"/>
      <point x="73" y="358" type="curve" smooth="yes"/>
      <point x="39" y="168" type="line" smooth="yes"/>
      <point x="18" y="50"/>
      <point x="67" y="-11"/>
      <point x="213" y="-11" type="curve" smooth="yes"/>
      <point x="253" y="-11"/>
      <point x="393" y="-1"/>
    </contour>
    <contour>
      <point x="454" y="450" type="curve"/>
      <point x="378" y="18" type="line"/>
      <point x="378" y="18"/>
      <point x="263" y="8"/>
      <point x="216" y="7" type="curve" smooth="yes"/>
      <point x="58" y="4"/>
      <point x="44" y="89"/>
      <point x="57" y="161" type="curve" smooth="yes"/>
      <point x="91" y="354" type="line" smooth="yes"/>
      <point x="104" y="429"/>
      <point x="170" y="491"/>
      <point x="273" y="491" type="curve" smooth="yes"/>
      <point x="347" y="491"/>
      <point x="405" y="474"/>
    </contour>
  </outline>
</glyph>
<glyph name="Emacron" format="1">
  <advance width="364"/>
  <unicode hex="0112"/>
  <outline>
    <contour>
      <point x="356" y="19" type="line"/>
      <point x="44" y="19" type="line"/>
      <point x="110" y="393" type="line"/>
      <point x="331" y="393" type="line"/>
      <point x="340" y="411" type="line"/>
      <point x="113" y="411" type="line"/>
      <point x="160" y="679" type="line"/>
      <point x="474" y="679" type="line"/>
      <point x="478" y="698" type="line"/>
      <point x="145" y="698" type="line"/>
      <point x="22" y="0" type="line"/>
      <point x="353" y="0" type="line"/>
    </contour>
    <contour>
      <point x="440" y="801" type="line"/>
      <point x="220" y="801" type="line"/>
      <point x="216" y="782" type="line"/>
      <point x="436" y="782" type="line"/>
    </contour>
  </outline>
</glyph>
